<svg xmlns="http://www.w3.org/2000/svg" viewBox="0 0 1024 1024"><defs><clipPath id="clip-path"><path class="cls-1" d="M480.577 552.577c6.39 9.981 20.684 12.58 30.284 9.409a24.434 24.434 0 0 0 7.094-8.02c2.682-4.981 3.355-10.856 2.266-17.514-7.008-10.542-27.939-8.245-36.993 2.382a18.745 18.745 0 0 0-1.947 2.732Z"/></clipPath><style>.cls-1{fill:#232323}.cls-2{fill:#371a45}.cls-3{fill:#fff}.cls-4{fill:#d2d2d2}.cls-5{fill:#9996fe}.cls-6{fill:#424268}.cls-7{opacity:.49}.cls-9{fill:#1d1842;fill-rule:evenodd}.cls-11{opacity:.3}.cls-15{fill:#ffb200}.cls-16{fill:#d66b09}.cls-17{opacity:.35}.cls-18{fill:#ffc536}.cls-19{fill:#ffec90}.cls-20{opacity:.41}.cls-22{opacity:.4}.cls-25{opacity:.7}.cls-28{opacity:.32}</style></defs><g id="Text"><path class="cls-2" d="M138.471 817.628V775.6h-11.014l2.772-9.59h28.919l-2.771 9.59h-7.567v42.03ZM183.72 817.628V798.3h-11.013v19.329h-10.265v-51.62h10.265v23.375h11.013v-23.376h10.34v51.62ZM229.5 765.933l-1.424 9.665h-15.812v13.111h13.785l-1.424 9.665h-12.361v9.59H230.1l-2.024 9.664h-26.152V775.6h-3.446l3.446-9.665ZM266.2 765.933h27.5v8.991l-10.34 6.143V775.6H273.1v33.04h10.263V798.3h-4.8l2.1-9.665H293.7v28.994h-27.5l-3.521-3.521v-44.729ZM338.423 817.628h-11.688l-3.446-11.013H311.6l-2.773 11.013h-11.685l14.46-50.945h12.362Zm-17.831-20-2.772-11.687-3.446 11.687ZM341.492 817.778v-51.62h10.339v42.629h12.362l-2.023 8.991ZM408.769 817.628h-11.688l-3.446-11.013h-11.688l-2.772 11.013h-11.688l14.46-50.945h12.363Zm-17.832-20-2.771-11.687-3.446 11.687ZM443.454 808.713l-3.371 8.915h-24.8l-3.446-2.7v-45.474l3.446-2.771h27.5v8.241l-10.339 6.218v-5.469H422.1v33.04ZM458.811 817.628V775.6H447.8l2.772-9.59h28.919l-2.771 9.59h-7.568v42.03ZM482.782 817.628v-51.32h10.265v51.32ZM529.307 808.713l-3.371 8.915h-24.8l-3.447-2.7v-45.474l3.447-2.771h27.5v8.241l-10.339 6.218v-5.469h-10.342v33.04ZM605.272 817.628h-11.687l-3.446-11.013h-11.688l-2.772 11.013h-11.688l14.46-50.945h12.362Zm-17.831-20-2.771-11.687-3.446 11.687ZM631.791 817.628l-3.446-18.58h-6.219v18.58h-10.339V775.6h-3.446l3.446-9.59h28.245l2.773 2.022v28.92l-2.773 2.1h-.674l3.447 18.58Zm.6-42.03h-10.265v13.785h10.265ZM669.474 789.383l10.338-22.7h10.339v50.945h-10.339v-28.245l-10.338 28.245-11.014-28.245v28.245h-10.339v-50.945h10.339ZM712.4 785.563l6.218-19.63h10.939l-11.837 33.115-.075 18.58h-10.338v-18.58L694.8 765.933h11.163ZM794.584 808.713l-3.371 8.915h-24.8l-3.446-2.7v-45.474l3.446-2.771h27.5v8.241l-10.339 6.218v-5.469h-10.342v33.04ZM798.928 817.778v-51.62h10.339v42.629h12.362l-2.024 8.991ZM834.964 808.787h10.413v-42.03h10.265v48.249l-2.7 2.7h-24.8l-3.447-2.7v-48.249h10.265ZM894.822 788.709l-3.446 3.371 3.446 3.522v18.5l-3.446 3.521h-28.245V775.6h-2.773l2.773-9.59h28.245l3.446 3.446ZM884.408 775.6h-10.263v11.687h10.263Zm0 20.677h-10.263v11.689h10.263Z"/></g><g id="Logo"><circle class="cls-3" cx="512.033" cy="454.787" r="258.838"/><path class="cls-2" d="M767.721 405.988c-21.6-113.03-117.04-202.22-237.13-210.81a260.448 260.448 0 0 0-269.98 192.01 263.677 263.677 0 0 0-8.19 49.04 258.4 258.4 0 0 0 31.91 144.8 261.07 261.07 0 0 0 28.11 40.79q1.425 1.725 2.9 3.42a258.553 258.553 0 0 0 178.13 89.16 259.486 259.486 0 0 0 195.13-68.56q3-2.76 5.91-5.63a259.336 259.336 0 0 0 76.57-160.27c.22-2.19.4-4.38.56-6.59a259.659 259.659 0 0 0-3.92-67.36Zm-91.09 246.54a257.179 257.179 0 0 1-352.86-22.2q-3.195-3.42-6.27-6.97a260.041 260.041 0 0 1-30.57-43.55 255.65 255.65 0 0 1-31.65-143.38c.11-1.51.23-3.01.37-4.51a258.537 258.537 0 0 1 13.74-63.39 257.892 257.892 0 0 1 226.04-170.65 259.925 259.925 0 0 1 34.96.16c112.57 8.05 203.24 87.73 230.58 191.21a255.242 255.242 0 0 1 8.29 55.75c.24 6.45.24 12.97-.01 19.52-.11 2.87-.27 5.74-.47 8.63a257.394 257.394 0 0 1-92.15 179.38Z"/><path class="cls-2" d="M767.061 460.776a235.122 235.122 0 0 1-44.841 137.161c-21.08 29.25-107.477 80.255-213.929 80.824-98.7.528-188.307-53-209.168-82.4a235.125 235.125 0 0 1-43.813-137.499c.5-134.768 115.266-190.209 256.588-189.68s255.666 56.826 255.163 191.594Z"/><path class="cls-3" d="M771.315 536.1h-9.489a4.447 4.447 0 0 1-4.446-4.45l.059-153.544a4.447 4.447 0 0 1 4.449-4.446h9.49a46.658 46.658 0 0 1 46.64 46.676l-.027 69.123a46.657 46.657 0 0 1-46.676 46.641Z"/><path class="cls-2" d="M774.4 537.44q-1.536.1-3.088.1h-9.488a5.881 5.881 0 0 1-5.881-5.883l.06-153.544a5.881 5.881 0 0 1 5.884-5.88h9.489a48.091 48.091 0 0 1 48.074 48.11l-.026 69.124A48.1 48.1 0 0 1 774.4 537.44Zm-3.087-2.773a45.223 45.223 0 0 0 45.242-45.205l.026-69.124a45.221 45.221 0 0 0-45.204-45.238h-9.489a3.01 3.01 0 0 0-3.014 3.011l-.06 153.545a3.015 3.015 0 0 0 3.012 3.014Z"/><path class="cls-4" d="M818 456.509v24.293a55.348 55.348 0 0 1-55.352 55.307 5.286 5.286 0 0 1-5.272-5.287v-40.379a5.284 5.284 0 0 0 4.8 3.131l3.6-.009A55.277 55.277 0 0 0 818 456.509Z"/><path class="cls-2" d="M774.82 543.977q-1.746.109-3.509.107h-9.488a12.431 12.431 0 0 1-12.423-12.436l.06-153.546a12.428 12.428 0 0 1 12.44-12.427h9.486A54.639 54.639 0 0 1 826 420.341l-.025 69.123a54.651 54.651 0 0 1-51.156 54.513Zm-3.5-15.859a38.675 38.675 0 0 0 38.69-38.658l.025-69.124a38.671 38.671 0 0 0-38.659-38.69h-5.952l-.058 146.471Z"/><path class="cls-3" d="M252.687 373.461h9.489a4.447 4.447 0 0 1 4.446 4.449l-.059 153.545a4.449 4.449 0 0 1-4.449 4.446h-9.49a46.659 46.659 0 0 1-46.64-46.676l.027-69.124a46.658 46.658 0 0 1 46.676-46.64Z"/><path class="cls-2" d="M262.485 537.328q-.184.012-.372.012h-9.489a48.149 48.149 0 0 1-48.075-48.111l.028-69.124a48.151 48.151 0 0 1 48.11-48.075h9.49a5.89 5.89 0 0 1 5.879 5.883L268 531.458a5.892 5.892 0 0 1-5.515 5.87Zm-12.667-162.344a45.283 45.283 0 0 0-42.373 45.116l-.027 69.124a45.276 45.276 0 0 0 45.206 45.241h9.49a3 3 0 0 0 3.015-3.013l.058-153.545a3.018 3.018 0 0 0-3.012-3.014h-9.488c-.962.007-1.921.032-2.869.091Z"/><path class="cls-4" d="m266.591 488.5-.021 42.138a5.285 5.285 0 0 1-5.286 5.272 55.3 55.3 0 0 1-55.291-55.334l.007-21.831a55.342 55.342 0 0 0 50.385 32.512h5.543a5.33 5.33 0 0 0 4.663-2.757Z"/><path class="cls-2" d="M262.9 543.865c-.26.016-.521.025-.786.023h-9.491A54.7 54.7 0 0 1 198 489.223l.027-69.124a54.67 54.67 0 0 1 54.662-54.622h9.49a12.448 12.448 0 0 1 12.425 12.437l-.058 153.542a12.451 12.451 0 0 1-11.646 12.409Zm-12.669-162.344a38.726 38.726 0 0 0-36.237 38.579l-.027 69.124a38.721 38.721 0 0 0 38.66 38.69h5.954l.056-146.472h-5.954c-.822.001-1.642.029-2.452.079Z"/><path class="cls-5" d="M745.571 585.752a247.312 247.312 0 0 1-22.63 32.95c-1.2 1.47-2.58 3.01-4.14 4.59a270.35 270.35 0 0 1-19.7 21.58 267.054 267.054 0 0 1-420.66-60.97c.19-.1.39-.2.58-.3q2.625-1.3 5.31-2.58l1.35-.63c.42-.2.83-.4 1.25-.59 1.97-.92 3.97-1.83 5.98-2.73.21-.09.41-.19.62-.27q8.91-3.975 18.32-7.61a497.044 497.044 0 0 1 91.78-25.21c.65-.12 1.32-.24 1.98-.36q2.565-.45 5.16-.88h.01l.6-.09q13.08-2.145 26.59-3.71c1.12-.14 2.25-.27 3.38-.39a621.409 621.409 0 0 1 68.82-3.78q25.23 0 49.54 1.94l.72.06q16.35 1.3 32.15 3.44l1.28.18a553.463 553.463 0 0 1 58.01 11.05c1.32.32 2.64.66 3.95 1q8.22 2.1 16.2 4.44 10.185 2.97 19.94 6.31c2.87.97 5.72 1.98 8.53 3v.01c1.13.4 2.24.81 3.36 1.23q4.725 1.77 9.35 3.62 8.76 3.495 17.1 7.32c.29.12.57.25.86.39 1.08.49 2.15.99 3.22 1.49.63.3 1.26.6 1.89.89.45.22.91.44 1.36.65 0 0 0 .01.01 0 .26.13.51.26.77.38.15.08.3.15.44.22 1.98.96 3.94 1.94 5.87 2.92.29.15.57.288.85.44Z"/><ellipse class="cls-6" cx="339.001" cy="610.272" rx="20.178" ry="39.516" transform="rotate(-65.859 339.003 610.273)"/><path class="cls-7" d="M375.775 624.267c-1.334 6.347-8.124 10.5-19.189 10.5-17.972 0-40.421-10.972-50.131-24.5-5.978-8.33-5.736-15.688-.487-20.121-.815 3.966.491 8.789 4.228 14 9.71 13.528 32.159 24.5 50.13 24.5 6.916.001 12.158-1.622 15.449-4.379Z"/><path class="cls-6" d="M593.121 545.352c-.1.26-.21.51-.32.76-.15.32-.32.62-.49.93a11.561 11.561 0 0 1-1.99 2.52c-.16.17-.32.31-.49.46-6.1 5.32-16.89 4.59-24.09-1.65a16.335 16.335 0 0 1-6.03-11.66l.72.06q16.35 1.3 32.15 3.44l1.28.18a.085.085 0 0 1 0 .07 11.865 11.865 0 0 1-.74 4.89Z"/><path class="cls-7" d="M593.121 545.352c-.1.26-.21.51-.32.76-.15.32-.31.62-.49.93a11.561 11.561 0 0 1-1.99 2.52c-.16.17-.32.31-.49.46-6.1 5.32-16.89 4.59-24.09-1.65a16.335 16.335 0 0 1-6.03-11.66l.72.06a18.213 18.213 0 0 0 4.81 6.37c7.2 6.23 17.99 6.97 24.09 1.65a11.678 11.678 0 0 0 3.25-4.58l1.28.18a.085.085 0 0 1 0 .07 11.865 11.865 0 0 1-.74 4.89Z"/><ellipse class="cls-6" cx="378.792" cy="566.733" rx="12.129" ry="15.034" transform="rotate(-65.726 378.797 566.735)"/><ellipse class="cls-6" cx="398.792" cy="612.733" rx="8.507" ry="10.544" transform="rotate(-65.726 398.796 612.735)"/><path class="cls-7" d="M392.891 565.478a10.2 10.2 0 0 1-2.975 10.886c-5.207 4.543-14.412 3.914-20.555-1.4-3.782-3.275-5.523-7.564-5.093-11.438a15 15 0 0 0 4.67 6.973c6.143 5.318 15.348 5.948 20.555 1.4a9.9 9.9 0 0 0 3.398-6.421ZM408.68 611.853a7.156 7.156 0 0 1-2.086 7.634c-3.652 3.186-10.108 2.745-14.416-.985a9.452 9.452 0 0 1-3.572-8.021 10.516 10.516 0 0 0 3.275 4.89c4.308 3.73 10.764 4.171 14.415.985a6.942 6.942 0 0 0 2.384-4.503Z"/><ellipse class="cls-6" cx="591.312" cy="588.91" rx="12.112" ry="14.687" transform="rotate(-30.046 591.313 588.91)"/><path class="cls-7" d="M602.5 597.73a10.261 10.261 0 0 1-9.929 5.233c-7.037-.532-13.306-7.257-14-15.017-.427-4.778 1.359-8.835 4.434-11.127a13.408 13.408 0 0 0-1.562 7.855c.693 7.76 6.961 14.485 14 15.017a10.362 10.362 0 0 0 7.057-1.961Z"/><path class="cls-6" d="M439.551 547.522c-.07.26-.14.52-.23.78a10.46 10.46 0 0 1-3.19 4.66c-5.35 4.6-14.54 4.28-20.51-.72a14.523 14.523 0 0 1-3.31-3.91 9.7 9.7 0 0 1-.51-1.02 11.659 11.659 0 0 1-.85-2.69c-.05-.31-.1-.63-.13-.94s-.04-.63-.04-.94l.6-.09q13.08-2.145 26.59-3.71a11.571 11.571 0 0 1 1.48 3.33c.03.1.06.19.08.28.01.02.02.03.02.05l.12.6c.05.31.1.63.13.95a10.3 10.3 0 0 1-.25 3.37Z"/><path class="cls-7" d="M439.771 546.312a9.9 9.9 0 0 1-.22 1.21c-.07.26-.14.52-.23.78a10.46 10.46 0 0 1-3.19 4.66c-5.35 4.6-14.54 4.28-20.51-.72a14.523 14.523 0 0 1-3.31-3.91 9.7 9.7 0 0 1-.51-1.02 11.659 11.659 0 0 1-.85-2.69c-.05-.31-.1-.63-.13-.94a7.4 7.4 0 0 1-.05-.94h.01l.6-.09a13.811 13.811 0 0 0 3.96 5.24c5.97 5 15.16 5.32 20.51.72a10.382 10.382 0 0 0 3.6-6.34.037.037 0 0 0 .01-.03 1.729 1.729 0 0 1 .07.31c.01.02.02.03.02.05l.12.6a7.485 7.485 0 0 1 .13.95 9.736 9.736 0 0 1-.03 2.16Z"/><path class="cls-6" d="M689.381 574.542a4.086 4.086 0 0 1-.29.48c-.11.19-.23.37-.35.55a12.484 12.484 0 0 1-1.02 1.37c-.17.21-.35.42-.53.62a.17.17 0 0 1-.06.06q-.21.24-.45.48a14.352 14.352 0 0 1-1.61 1.42c-.19.15-.38.3-.58.43a7.012 7.012 0 0 1-.67.44 4.943 4.943 0 0 1-.49.3c-.27.17-.54.31-.82.45-.3.15-.6.3-.91.42a.642.642 0 0 1-.2.08 8.148 8.148 0 0 1-.77.3.476.476 0 0 1-.14.05 16.7 16.7 0 0 1-2.02.56 11.5 11.5 0 0 1-1.31.2c-.33.05-.66.08-1 .1-.38.03-.76.04-1.15.04-.46 0-.93-.01-1.41-.05-11.19-.84-21.16-11.54-22.26-23.89a24.349 24.349 0 0 1-.06-3.61c.02-.33.05-.66.09-.98a6.723 6.723 0 0 1 .1-.8c.02-.21.05-.41.09-.62a14.761 14.761 0 0 1 .31-1.5c1.32.32 2.64.66 3.95 1q18.705 4.785 36.14 10.75a20.965 20.965 0 0 1-2.58 11.35Z"/><path class="cls-7" d="M689.381 574.542a4.086 4.086 0 0 1-.29.48c-.11.19-.23.37-.35.55a12.484 12.484 0 0 1-1.02 1.37c-.17.21-.35.42-.53.62a.17.17 0 0 1-.06.06q-.21.24-.45.48a14.352 14.352 0 0 1-1.61 1.42c-.19.15-.38.3-.58.43a7.012 7.012 0 0 1-.67.44 4.943 4.943 0 0 1-.49.3c-.27.17-.54.31-.82.45-.3.15-.6.3-.91.42a.642.642 0 0 1-.2.08 8.148 8.148 0 0 1-.77.3.476.476 0 0 1-.14.05 17.226 17.226 0 0 1-2.02.56 11.5 11.5 0 0 1-1.31.2c-.33.05-.66.08-1 .1-.38.03-.76.04-1.15.04-.46 0-.93-.01-1.41-.05-11.19-.84-21.16-11.54-22.26-23.89a24.349 24.349 0 0 1-.06-3.61c.02-.33.05-.66.09-.98a6.723 6.723 0 0 1 .1-.8c.02-.21.05-.41.09-.62a14.761 14.761 0 0 1 .31-1.5c1.32.32 2.64.66 3.95 1 .01.43.04.87.08 1.31 1.11 12.34 11.08 23.04 22.27 23.89a16.518 16.518 0 0 0 11.21-3.1Z"/><ellipse class="cls-6" cx="677.312" cy="637.91" rx="10.143" ry="17.538" transform="rotate(-46.911 677.311 637.91)"/><path class="cls-7" d="M691.705 646.73c-.72 3.466-3.572 5.561-8.024 5.233-7.231-.532-15.948-7.257-19.465-15.017-2.165-4.778-1.855-8.835.385-11.127a13.078 13.078 0 0 0 1.3 7.855c3.517 7.76 12.233 14.485 19.465 15.017a7.785 7.785 0 0 0 6.339-1.961Z"/><ellipse class="cls-6" cx="547.326" cy="658.366" rx="36.111" ry="30.72" transform="rotate(-2.353 547.37 658.43)"/><path class="cls-7" d="M581.751 667.272c-3.471 9.289-12.014 17.1-23.739 20.323-19.042 5.238-39.27-3.6-45.171-19.742-3.633-9.938-.991-20.325 6.009-28.072a26.323 26.323 0 0 0-.059 18.393c5.9 16.14 26.129 24.981 45.171 19.742a37.194 37.194 0 0 0 17.789-10.644ZM696.7 612.022a4.975 4.975 0 0 0-.47.33c.16-.13.32-.24.49-.36-.009.008-.009.02-.02.03Z"/><path style="fill:none;stroke:#fff;stroke-miterlimit:10;stroke-width:4px" d="M399.001 609.772v-79"/><path class="cls-9" d="M398.458 542.081c16.593-8.612 32.438 4.548 49.013-3.566l-.244-9.814c-16.558 7.614-32.4-5.534-49.014 3.6l.245 9.78Z"/><path d="M398.7 551.7c16.576-8.109 32.42 5.051 49.014-3.566l-.245-9.8c-16.576 8.105-32.42-5.055-49.013 3.566q.12 4.9.244 9.8Z" style="fill-rule:evenodd;fill:#fff"/><path class="cls-9" d="M398.94 561.428c16.559-7.614 32.4 5.534 49.015-3.6l-.246-9.777c-16.593 8.612-32.437-4.548-49.013 3.565q.123 4.902.244 9.812Z"/><path class="cls-3" d="m465.214 589.016 5.4 2.451a3.3 3.3 0 0 0 2.387.139l1.372-.439 2.731-9.54 5.695-19.908-7.1-5.038-1.491.675a5.078 5.078 0 0 0-2.572 2.587 76.176 76.176 0 0 0-5.3 17.612 78.544 78.544 0 0 0-1.122 11.461Z"/><path class="cls-1" d="M471.983 591.851a3.4 3.4 0 0 1-1.407-.306l-5.448-2.475v-.056a79.131 79.131 0 0 1 1.122-11.473 76.708 76.708 0 0 1 5.308-17.632 5.154 5.154 0 0 1 2.615-2.631l1.536-.694 7.184 5.1-8.455 29.549-1.415.453a3.379 3.379 0 0 1-1.04.165Zm-6.683-2.889 5.347 2.428a3.211 3.211 0 0 0 2.325.136l1.329-.425 2.718-9.5 5.679-19.851-7.007-4.975-1.447.655a4.983 4.983 0 0 0-2.529 2.543 76.557 76.557 0 0 0-5.3 17.594 79.013 79.013 0 0 0-1.115 11.395Z"/><path class="cls-3" d="M531.839 567.124a3.382 3.382 0 0 1-1.692 1.107c-1.185.435-3.048.9-3.839 1.173-.173.059-.353.1-.533.146a.665.665 0 0 0-.089.03.586.586 0 0 0-.089.039.911.911 0 0 0-.156.1l-.008.008a.548.548 0 0 0-.066.061 1.118 1.118 0 0 0-.065.071c-.088.109-.174.217-.264.324a44.076 44.076 0 0 1-6.957 6.817l-.149.117c-.1.077-.2.155-.3.229a32.285 32.285 0 0 1-2.22 1.539c-.077.05-.153.1-.229.143a23.46 23.46 0 0 1-1.365.785 5.2 5.2 0 0 1-3.421.435 4.932 4.932 0 0 1-.649-.188l-.261-.1q-.26-.1-.514-.2c-.01 0-.018-.008-.029-.012l-.349-.142q-.44-.183-.854-.381l-.02-.011-.273-.134-.044-.022a12.262 12.262 0 0 1-.456-.24l2.448-4.638 1.032-1.956a26.673 26.673 0 0 1 6.654-5.418 2.074 2.074 0 0 0 .99-1.869c0-1.307-1.253-2.326-1.561-3.052-1.077-2.52 3.5-3.56 4.89.3l8.907 3.365a2.676 2.676 0 0 1 1.439.587.729.729 0 0 1 .092.987Z"/><g class="cls-11"><path class="cls-1" d="M531.839 567.008a3.375 3.375 0 0 1-1.692 1.107c-1.185.436-3.048.9-3.839 1.173-.173.059-.353.1-.533.146a.845.845 0 0 0-.089.03.887.887 0 0 0-.089.039 1.1 1.1 0 0 0-.156.1l-.008.009a.628.628 0 0 0-.066.061 1.143 1.143 0 0 0-.065.071c-.086.109-.172.217-.261.324a.908.908 0 0 0-.578.334 40.166 40.166 0 0 1-6.379 6.476l-.149.117-.3.229-.117.088q-1.037.783-2.1 1.451c-.077.049-.153.1-.229.142a23.38 23.38 0 0 1-1.26.731c-.034.018-.069.037-.105.054a5.113 5.113 0 0 1-4.07.247l-.261-.1q-.26-.1-.514-.2a.252.252 0 0 0-.029-.012l-.349-.143-.371-.161a17.86 17.86 0 0 1-.481-.222l-.02-.01-.273-.134-.044-.022-.456-.224v-.009l.155-3.035a1.743 1.743 0 0 0-1.582-1.822l-.066-1.7-.241-1.551 4.182 3.469.615.512a1.613 1.613 0 0 0 1.8.173L522 569.168s-.424-1.272 1.356-1.441c1.743-.166 5.191.856 8.393-1.709a1.924 1.924 0 0 0 .09.99Z"/></g><path class="cls-3" d="m512.123 570.47-.017.036-2.053 4.1-.043.083-2.224 4.442-.047.1-.337-.167-1.274-.622-.381 1.133-2.358 6.994a9.776 9.776 0 0 1-4.126 5.784l-17.419-3.514-6.144-14.616.05-.308.435-2.692 2.385-7.574.9-2.872 10.54 1.587 10.775 1.624 5.339.8c.072.056.143.114.216.173a61.037 61.037 0 0 1 5.783 5.509Z"/><g class="cls-11"><path class="cls-1" d="m510.053 574.606-.043.083-2.224 4.442c-.015-.007-.03-.016-.045-.022l-.02-.01-.273-.134-.044-.022-.456-.224v-.019l.155-3.034a1.743 1.743 0 0 0-1.582-1.823l-.066-1.7-.241-1.551 4.182 3.468.615.512a.435.435 0 0 0 .042.034Z"/></g><g class="cls-11"><path class="cls-1" d="m465.214 589.016 5.4 2.451a3.3 3.3 0 0 0 2.387.139l1.372-.439 2.731-9.54a41.492 41.492 0 0 1-10.766-4.072 78.544 78.544 0 0 0-1.124 11.461Z"/></g><path class="cls-3" d="m466.457 598.3.615 5.931.775 7.449a1.353 1.353 0 0 0 1.31 1.215c4.779.131 6.508-2.765 5.862-8.013l9.333-1.093a7.463 7.463 0 0 0 5.308-3.179c.059-.086.117-.174.173-.262l-13.3-6.281-.451.107-8.044 1.9a2.065 2.065 0 0 0-1.581 2.226Z"/><path class="cls-1" d="M469.457 612.983h-.3a1.444 1.444 0 0 1-1.393-1.292l-1.39-13.379a2.153 2.153 0 0 1 1.647-2.317l8.523-2.014.027.013 13.387 6.321-.051.081a9.324 9.324 0 0 1-.175.265 7.538 7.538 0 0 1-5.368 3.215l-9.249 1.084c.351 2.957-.077 5.123-1.272 6.438a5.659 5.659 0 0 1-4.386 1.585Zm7.066-18.828-8.465 2a1.982 1.982 0 0 0-1.517 2.134l1.39 13.38a1.274 1.274 0 0 0 1.228 1.14 5.665 5.665 0 0 0 4.556-1.53c1.172-1.289 1.583-3.439 1.22-6.388l-.011-.085 9.419-1.1a7.372 7.372 0 0 0 5.247-3.142l.12-.18Z"/><path class="cls-3" d="M472.9 586.087c.654 7.379 6.412 12.1 16.905 13.483a1.885 1.885 0 0 0 .567 1.695l.756 11.848a2.879 2.879 0 0 0 2.581 2.675 28.483 28.483 0 0 0 10.6-.819 29.6 29.6 0 0 0 3.631-1.249 1.613 1.613 0 0 0 .993-1.58c-.185-2.8-2.812-5.486-6.975-4.631l-.39-9.446a8.793 8.793 0 0 0-1.214-4.148c-2.205-3.687-5.774-6.157-11.831-6.409l-10.372-10.7-2.458-2.538-.285-.293a31.268 31.268 0 0 0-2.327 7.647c0 .017-.006.035-.009.052v.009a18.388 18.388 0 0 0-.172 4.404Z"/><g class="cls-11"><path class="cls-1" d="m467.072 604.23.775 7.449a1.353 1.353 0 0 0 1.31 1.215c4.779.131 6.508-2.765 5.862-8.013l9.333-1.093a7.463 7.463 0 0 0 5.308-3.179c.059-.086.117-.174.173-.262l-13.3-6.281-.451.107s1.363 4.875 5.9 5.616l-7.938.909c-2.029 7.794-4.338 9.36-6.972 3.532Z"/></g><path class="cls-1" d="M471.984 592.359a3.913 3.913 0 0 1-1.618-.351l-5.4-2.452a.593.593 0 0 1-.348-.555 77.671 77.671 0 0 1 6.473-29.3 5.667 5.667 0 0 1 2.87-2.889l1.493-.675a.593.593 0 1 1 .488 1.082l-1.492.674a4.479 4.479 0 0 0-2.272 2.284 76.435 76.435 0 0 0-6.362 28.459l5.037 2.289a2.728 2.728 0 0 0 1.961.114l1.372-.439a.593.593 0 0 1 .362 1.13l-1.372.439a3.914 3.914 0 0 1-1.192.19Z"/><path class="cls-3" d="M483.729 569.961q-.209.291-.443.558c-1.6 1.831-4.105 2.848-7.186 3.341l-.35.055-1.811.284a20.318 20.318 0 0 0-3.263 7.247 3.187 3.187 0 0 1 1.324 4.043v.009a5.794 5.794 0 0 1-.46.9 2.733 2.733 0 0 1-.439.553l-.008.008a2.205 2.205 0 0 1-.563.4c-.514.249-1.112.551-1.137.781-.033.3-.35.6-.867.828a3.971 3.971 0 0 1-.922.264 4.706 4.706 0 0 1-2.426-.23 5.048 5.048 0 0 1-2.11-1.491c-.178-.212-1.033-.476-1.177-.718a7.9 7.9 0 0 1-.881-2.124c-.77-3.03.28-6.306 1.651-9.446a23.059 23.059 0 0 1 3.794-5.96 24.121 24.121 0 0 1 7.442-5.711l2.824-1.4 2.763-1.37 2.239 4.835Z"/><g class="cls-11"><path class="cls-1" d="M483.286 570.519c-1.6 1.831-4.105 2.848-7.186 3.341l-.35.055-1.811.284a20.318 20.318 0 0 0-3.263 7.247 3.187 3.187 0 0 1 1.324 4.043v.009a6.022 6.022 0 0 1-.548 1.044 4.509 4.509 0 0 1-.355.416 2.205 2.205 0 0 1-.563.4c-.514.249-1.112.551-1.137.781-.033.3-.35.6-.867.828a3.971 3.971 0 0 1-.922.264 4.706 4.706 0 0 1-2.426-.23 5.048 5.048 0 0 1-2.11-1.491c-.178-.212-1.033-.476-1.177-.718a7.9 7.9 0 0 1-.881-2.124 5.754 5.754 0 0 1 .268.59c1.271 3.22 6.611 2.457 6.611.211s1.356-1.483.6-2.8a3 3 0 0 1 0-2.707 21.548 21.548 0 0 1 4.424-7.993 4.126 4.126 0 0 1 3.7-1.2 15.6 15.6 0 0 0 6.669-.25Z"/></g><path class="cls-1" d="M477.574 562.228a.509.509 0 0 1-.389-.181 8.464 8.464 0 0 0-4.967-2.668.508.508 0 1 1 .115-1.01 9.4 9.4 0 0 1 5.63 3.023.508.508 0 0 1-.062.716.5.5 0 0 1-.327.12Z"/><g class="cls-11"><path class="cls-1" d="M476.711 562.146q.892.8 1.859 1.5a24.881 24.881 0 0 0 3.143 1.963 25.168 25.168 0 0 0 29.987-4.929 25.112 25.112 0 0 1-10.911 3.3q-.84.054-1.694.054a25.234 25.234 0 0 1-9.081-1.678l-10.54-1.586Z"/></g><path class="cls-1" d="M483.935 570.109a8.033 8.033 0 0 1-1.986 2.026 11.351 11.351 0 0 1-2.5 1.333 18.006 18.006 0 0 1-2.7.8c-.462.1-.913.179-1.361.265l-1.351.255.388-.237a18.269 18.269 0 0 0-1.925 3.353 21.787 21.787 0 0 0-1.242 3.685l-.223-.617a4.944 4.944 0 0 1 1.459 1.624 3.381 3.381 0 0 1 .363 1.105 3.476 3.476 0 0 1-.028 1.157 4.547 4.547 0 0 1-.341 1.056 5.653 5.653 0 0 1-.246.478c-.045.077-.089.154-.137.228l-.071.113-.1.135a2.719 2.719 0 0 1-.968.769 2.428 2.428 0 0 1-.6.2 1.718 1.718 0 0 1-.736-.013l.736-.65a2.486 2.486 0 0 1-.038.914 1.817 1.817 0 0 1-.511.881 2.537 2.537 0 0 1-.767.487 4.863 4.863 0 0 1-.758.245c-.124.029-.248.057-.37.079s-.241.045-.38.063a5.05 5.05 0 0 1-.793.038 6.587 6.587 0 0 1-1.517-.237 7.738 7.738 0 0 1-2.7-1.342 5.576 5.576 0 0 1-1.093-1.113 4.536 4.536 0 0 1-.221-.337l-.185-.327a9.194 9.194 0 0 1-.325-.679 8.325 8.325 0 0 1-.65-2.923 11.384 11.384 0 0 1 .288-2.929 20.542 20.542 0 0 1 .839-2.753c.338-.893.7-1.752 1.091-2.621a23.966 23.966 0 0 1 7.064-8.9 24.93 24.93 0 0 1 2.355-1.632 24.59 24.59 0 0 1 1.243-.71c.21-.115.424-.221.636-.33l.628-.311 5.013-2.485a.593.593 0 0 1 .527 1.063l-5.013 2.485-.625.31c-.2.1-.407.2-.606.314-.4.213-.8.442-1.185.677a23.547 23.547 0 0 0-2.242 1.554 22.79 22.79 0 0 0-6.716 8.46 27.954 27.954 0 0 0-1.851 5.137 10.183 10.183 0 0 0-.26 2.623 7.125 7.125 0 0 0 .556 2.508c.084.2.179.392.279.583l.159.282c.053.087.1.167.163.247a4.346 4.346 0 0 0 .862.874 6.574 6.574 0 0 0 2.28 1.133 5.4 5.4 0 0 0 1.24.2 3.87 3.87 0 0 0 .6-.028 7.818 7.818 0 0 0 .624-.119 2.267 2.267 0 0 0 .983-.435.625.625 0 0 0 .182-.312 1.343 1.343 0 0 0 .012-.476v-.032a.574.574 0 0 1 .5-.64.584.584 0 0 1 .24.022.921.921 0 0 0 .535-.109 1.532 1.532 0 0 0 .537-.421l.044-.062.058-.091c.04-.062.076-.125.113-.188.072-.125.137-.253.2-.381a3.339 3.339 0 0 0 .253-.781 2.228 2.228 0 0 0-.218-1.493 3.784 3.784 0 0 0-1.117-1.223l-.009-.007a.594.594 0 0 1-.214-.609 22.98 22.98 0 0 1 1.31-3.886 19.5 19.5 0 0 1 2.05-3.57.6.6 0 0 1 .388-.237l1.363-.171c.455-.058.91-.11 1.348-.177a16.981 16.981 0 0 0 2.6-.6 10.538 10.538 0 0 0 2.407-1.1 7.435 7.435 0 0 0 1.953-1.76.254.254 0 0 1 .413.3Z"/><path class="cls-1" d="m473.386 573.984 1.3-2.42a.256.256 0 0 1 .474.184l-.67 2.665a.6.6 0 1 1-1.159-.291.636.636 0 0 1 .055-.138Z"/><path class="cls-3" d="M475.632 573.933c3.161 2.047 7.532 3.01 12.641 3.312a.925.925 0 0 1 .868.977l-.148 2.541a.927.927 0 0 1-.957.872c-5.839-.195-10.7-1.359-13.989-4.081"/><path class="cls-1" d="M488.067 581.72h-.034c-6.371-.213-10.963-1.554-14.04-4.1l.108-.131c3.047 2.521 7.606 3.85 13.938 4.061a.841.841 0 0 0 .87-.792l.148-2.541a.84.84 0 0 0-.789-.887c-5.588-.331-9.736-1.419-12.681-3.326l.092-.142c2.92 1.891 7.041 2.97 12.6 3.3a1.011 1.011 0 0 1 .948 1.066l-.148 2.541a1.018 1.018 0 0 1-1.012.951Z"/><path class="cls-1" d="M475.946 574.206a37.722 37.722 0 0 0-1.522 4.163 24.38 24.38 0 0 0-.89 4.306 16.268 16.268 0 0 0 .08 4.338 12.439 12.439 0 0 0 1.374 4.051 12.311 12.311 0 0 0 2.736 3.286 16.1 16.1 0 0 0 3.662 2.322 24.1 24.1 0 0 0 4.144 1.467 37.43 37.43 0 0 0 4.351.843l.5.732c0-.013 0-.007 0 0v.044c0 .022 0 .048-.006.073a1.358 1.358 0 0 0 0 .156 1.3 1.3 0 0 0 .207.6 1.609 1.609 0 0 0 .21.262l.016.018a.588.588 0 0 1 .156.364l.668 10.474.084 1.309c0 .059.008.1.013.143l.014.129c.021.084.029.172.057.254a2.249 2.249 0 0 0 .881 1.25 2.291 2.291 0 0 0 .958.391l.129.02.159.015.32.029c.214.018.427.043.641.053l.642.038c.214.012.428.013.642.021.429.018.857 0 1.285.006.428-.018.857-.024 1.283-.059.855-.052 1.706-.153 2.551-.289s1.684-.315 2.513-.526 1.647-.471 2.456-.755l.6-.221.6-.238.149-.06c.048-.019.107-.042.131-.055a1.152 1.152 0 0 0 .18-.1 1.062 1.062 0 0 0 .279-.307.967.967 0 0 0 .133-.385.856.856 0 0 0 0-.21l-.035-.286-.017-.143-.033-.141-.064-.282c-.024-.093-.062-.182-.092-.274a2 2 0 0 0-.1-.271 4.659 4.659 0 0 0-1.4-1.815 4.841 4.841 0 0 0-2.127-.908 6.621 6.621 0 0 0-2.387.059h-.03a.594.594 0 0 1-.676-.5q0-.033-.006-.066l-.287-6.971-.078-1.74c-.013-.287-.022-.59-.038-.863s-.046-.542-.089-.81a8.1 8.1 0 0 0-1.12-3.024 13.745 13.745 0 0 0-2.037-2.627 11.379 11.379 0 0 0-2.676-1.971 13.688 13.688 0 0 0-3.15-1.206 21.688 21.688 0 0 0-3.383-.559.255.255 0 0 1 .025-.508 19.71 19.71 0 0 1 3.528.321 14.327 14.327 0 0 1 3.419 1.088 12.4 12.4 0 0 1 3.012 2.022 12.882 12.882 0 0 1 2.312 2.8 9.067 9.067 0 0 1 1.258 3.483c.046.306.075.615.091.924l.037.88.072 1.743.287 6.97-.712-.556a7.8 7.8 0 0 1 2.828-.066 6.014 6.014 0 0 1 2.647 1.139 5.843 5.843 0 0 1 1.771 2.292 3.014 3.014 0 0 1 .129.343c.038.116.084.23.115.348l.083.357.04.179.023.183.043.365c.008.057.007.146.009.217s0 .152-.017.226a2.155 2.155 0 0 1-.292.846 2.2 2.2 0 0 1-.984.882c-.075.036-.118.051-.172.073l-.155.062-.621.247-.628.23a28.892 28.892 0 0 1-5.179 1.335c-.883.136-1.77.247-2.661.3-.445.036-.891.043-1.337.061-.446 0-.893.013-1.339-.006-.223-.008-.446-.01-.668-.022l-.668-.04c-.223-.01-.445-.035-.667-.054l-.333-.03-.167-.016-.2-.029a3.46 3.46 0 0 1-2.789-2.5c-.04-.126-.058-.258-.086-.387l-.022-.2a3.225 3.225 0 0 1-.016-.184l-.084-1.309-.668-10.473.172.381a2.875 2.875 0 0 1-.37-.461 2.451 2.451 0 0 1-.264-.545 2.387 2.387 0 0 1-.125-.6 2.612 2.612 0 0 1-.007-.307c0-.053.006-.1.013-.159 0-.026.007-.054.012-.083l.007-.045.013-.061.5.732a38.5 38.5 0 0 1-4.5-.872 25.292 25.292 0 0 1-4.345-1.539 17.335 17.335 0 0 1-3.93-2.494 12.911 12.911 0 0 1-4.511-8.053 17.519 17.519 0 0 1-.088-4.652 25.56 25.56 0 0 1 .931-4.514 39.163 39.163 0 0 1 1.573-4.3.593.593 0 0 1 1.091.467Z"/><path class="cls-3" d="m488.811 585.817 3.685.189h.041l4.65.237 7.616.39h.025a1.738 1.738 0 0 0 1.8-1.649l.472-9.207a1.742 1.742 0 0 0-1.65-1.827l-13.059-.668-2.931-.149a1.74 1.74 0 0 0-1.827 1.649l-.472 9.207a1.739 1.739 0 0 0 1.65 1.828Z"/><path class="cls-1" d="M504.893 587.219h-.12l-15.992-.819a2.318 2.318 0 0 1-2.2-2.435l.122-2.387a.58.58 0 1 1 1.159.06l-.122 2.386a1.159 1.159 0 0 0 1.1 1.217l15.993.819a1.159 1.159 0 0 0 1.219-1.1l.471-9.206a1.161 1.161 0 0 0-1.1-1.218l-15.992-.817a1.161 1.161 0 0 0-1.218 1.1l-.124 2.409a.58.58 0 1 1-1.159-.06l.124-2.408a2.325 2.325 0 0 1 2.437-2.2l15.992.817a2.321 2.321 0 0 1 2.2 2.437l-.471 9.206a2.324 2.324 0 0 1-2.319 2.199Z"/><path class="cls-1" d="M504.829 587.145h-.029l-12.291-.627h-.037a2.271 2.271 0 0 1-2.106-2.373l.478-9.369a2.253 2.253 0 0 1 1.339-1.952.508.508 0 1 1 .415.928 1.245 1.245 0 0 0-.739 1.075l-.478 9.37a1.251 1.251 0 0 0 1.159 1.306h.021l12.291.627a.509.509 0 0 1-.025 1.017Z"/><g class="cls-11"><path style="fill:#462b5b" d="m504.828 586.636-7.641-.39 7.616.39h.025z"/><path class="cls-1" d="M504.828 586.721h-.025l-7.621-.39.009-.169 7.642.39-.005.169z"/></g><g class="cls-11"><path class="cls-1" d="m488.811 585.817 3.685.189a1.752 1.752 0 0 1-1.621-1.838l.478-9.369a1.759 1.759 0 0 1 1.038-1.514l-2.931-.149a1.74 1.74 0 0 0-1.827 1.649l-.124 2.409q.378.029.764.051a.924.924 0 0 1 .868.976l-.147 2.542a.932.932 0 0 1-.958.873c-.253-.009-.5-.019-.753-.031l-.122 2.387a1.739 1.739 0 0 0 1.65 1.825Z"/></g><path class="cls-1" d="M498.519 586.72h-.019a.415.415 0 0 1-.39-.438l.309-5.382a1.259 1.259 0 0 1 .622-1.016l1.883-1.107a.43.43 0 0 0 .214-.352l.235-4.689a.415.415 0 1 1 .828.041l-.235 4.69a1.257 1.257 0 0 1-.622 1.025l-1.884 1.107a.431.431 0 0 0-.213.349l-.309 5.382a.415.415 0 0 1-.419.39ZM488.067 582.229h-.051c-6.488-.217-11.181-1.6-14.347-4.217a.593.593 0 1 1 .757-.914c2.956 2.447 7.414 3.738 13.63 3.945a.337.337 0 0 0 .345-.313l.148-2.542a.33.33 0 0 0-.311-.349c-5.678-.337-9.907-1.451-12.928-3.407a.593.593 0 0 1 .645-1c2.844 1.842 6.885 2.894 12.353 3.218a1.521 1.521 0 0 1 1.426 1.6l-.148 2.542a1.531 1.531 0 0 1-1.519 1.437ZM504.744 568.388a5.124 5.124 0 0 1 .313.668c.09.223.165.45.239.678a13.08 13.08 0 0 1 .34 1.389c.094.468.155.939.21 1.412.025.237.042.474.064.711l.039.713a.5.5 0 1 1-1 .055.417.417 0 0 1 0-.05v-.016l.032-.682c0-.227.01-.455.008-.682-.006-.454-.018-.91-.061-1.362a12.684 12.684 0 0 0-.188-1.347 11.9 11.9 0 0 0-.159-.658 4.872 4.872 0 0 0-.214-.622l-.007-.016a.213.213 0 0 1 .379-.191ZM499.263 592.94a.593.593 0 0 1-.306-1.1 9.2 9.2 0 0 0 3.852-5.4.593.593 0 0 1 1.16.249 10.3 10.3 0 0 1-4.4 6.169.6.6 0 0 1-.306.082ZM512.031 570.975a.59.59 0 0 1-.431-.185 56.25 56.25 0 0 0-5.84-5.535.593.593 0 0 1 .736-.931 57.447 57.447 0 0 1 5.965 5.65.593.593 0 0 1-.023.839.587.587 0 0 1-.407.162Z"/><path class="cls-1" d="M510.238 572.051a13.941 13.941 0 0 1 1.752-2.209c.328-.339.673-.663 1.029-.973s.73-.6 1.117-.871a41.661 41.661 0 0 1 2.359-1.533l.294-.18.105-.069.1-.077a1.292 1.292 0 0 0 .3-.37 1.525 1.525 0 0 0 .159-.47 1.98 1.98 0 0 0 .021-.524 2.48 2.48 0 0 0-.4-1.026c-.219-.353-.5-.688-.79-1.1a3.869 3.869 0 0 1-.218-.346c-.035-.065-.073-.142-.1-.212s-.054-.134-.076-.205a2.273 2.273 0 0 1-.116-.919 1.936 1.936 0 0 1 .335-.927 2.139 2.139 0 0 1 .7-.636 2.941 2.941 0 0 1 1.672-.359 3.589 3.589 0 0 1 1.565.49 4.086 4.086 0 0 1 1.2 1.071 5.187 5.187 0 0 1 .731 1.374.593.593 0 1 1-1.116.4 3.367 3.367 0 0 0-1.409-1.822 2.411 2.411 0 0 0-1.049-.33 1.767 1.767 0 0 0-.994.2.819.819 0 0 0-.447.642 1.1 1.1 0 0 0 .061.442c.012.039.029.079.044.119a.993.993 0 0 0 .048.1 2.657 2.657 0 0 0 .151.237c.24.342.552.717.821 1.148a3.615 3.615 0 0 1 .579 1.531 3.187 3.187 0 0 1-.032.853 2.72 2.72 0 0 1-.285.832 2.511 2.511 0 0 1-.564.7l-.174.138-.183.121-.3.182a26.715 26.715 0 0 0-2.257 1.527c-.721.54-1.428 1.089-2.131 1.655s-1.392 1.159-2.123 1.732a.258.258 0 0 1-.377-.341Z"/><path class="cls-1" d="m518.661 565.075-.661 3.313a.256.256 0 0 1-.507-.049l-.009-3.379a.6.6 0 0 1 1.193 0 .658.658 0 0 1-.016.115ZM511.485 580.954a5.677 5.677 0 0 1-1.941-.34 19.837 19.837 0 0 1-2.887-1.278.593.593 0 1 1 .578-1.036 18.85 18.85 0 0 0 2.714 1.2 4.572 4.572 0 0 0 3.731-.289 39.96 39.96 0 0 0 11.159-9.718 1.5 1.5 0 0 1 .785-.516l.158-.04c.119-.03.231-.059.332-.093.344-.12.854-.265 1.444-.433.8-.229 1.712-.488 2.385-.736 1.232-.452 1.463-.924 1.455-1.017-.007-.066-.238-.368-1.187-.524a.593.593 0 0 1 .192-1.171c1.791.294 2.132 1.118 2.176 1.583.083.875-.729 1.693-2.227 2.243-.714.263-1.646.528-2.468.763-.55.156-1.069.3-1.381.413-.15.052-.293.088-.432.122l-.143.037a.315.315 0 0 0-.161.108 41.182 41.182 0 0 1-11.522 10.022 5.8 5.8 0 0 1-2.76.7Z"/><path class="cls-1" d="M526.06 570.081a7.542 7.542 0 0 1-1.724-.064 7.834 7.834 0 0 1-1.606-.471.171.171 0 0 1 .08-.33 7.308 7.308 0 0 0 1.558.039 6.641 6.641 0 0 0 1.468-.339.6.6 0 1 1 .385 1.134.57.57 0 0 1-.151.03ZM519.282 576.505c-2.91-.006-6.293-3.449-6.7-6.822a.509.509 0 1 1 1.01-.122c.343 2.82 3.323 5.922 5.7 5.927a.509.509 0 1 1 0 1.017ZM497.234 614.251a17.769 17.769 0 0 1-6.316-1.008.508.508 0 0 1 .368-.948c5.178 2 13.384.5 17.316-1.362a.509.509 0 0 1 .435.92 30.343 30.343 0 0 1-11.803 2.398ZM502.046 608.094c-.1 0-.247.023-.374.042s-.263.044-.4.071a6.949 6.949 0 0 0-.781.214 5.763 5.763 0 0 0-.752.308 5.3 5.3 0 0 0-.705.412l-.012.009a.255.255 0 0 1-.322-.392 6 6 0 0 1 .679-.6 6.541 6.541 0 0 1 .76-.5 7.632 7.632 0 0 1 .819-.41 8 8 0 0 1 .43-.17 4.815 4.815 0 0 1 .464-.147h.015a.6.6 0 1 1 .3 1.157.589.589 0 0 1-.121.006ZM490.369 601.774a.509.509 0 0 1-.26-.947c2.955-1.751 9.215-3.1 11.81-1.375a.509.509 0 1 1-.563.847c-2.03-1.349-7.765-.353-10.729 1.4a.5.5 0 0 1-.258.075ZM489.378 599.156l1.839-1.4a.257.257 0 0 1 .364.355l-1.353 1.875a.6.6 0 0 1-.973-.7.589.589 0 0 1 .123-.13Z"/><path class="cls-1" d="M469.459 613.492h-.318a1.955 1.955 0 0 1-1.885-1.747l-1.39-13.382a2.667 2.667 0 0 1 2.034-2.863l8.5-2.006a.593.593 0 0 1 .273 1.155l-8.5 2.006a1.478 1.478 0 0 0-1.128 1.587l1.391 13.381a.763.763 0 0 0 .736.683 5.2 5.2 0 0 0 4.166-1.362c1.068-1.175 1.436-3.188 1.092-5.985a.593.593 0 0 1 .52-.662l9.332-1.094a6.857 6.857 0 0 0 4.886-2.923c.056-.081.111-.164.164-.248a.593.593 0 0 1 1 .638c-.059.094-.121.187-.183.279a8.048 8.048 0 0 1-5.729 3.433l-8.749 1.025c.261 2.856-.227 4.985-1.455 6.335a6.136 6.136 0 0 1-4.757 1.75Z"/><path class="cls-1" d="M482.051 604.566a.519.519 0 0 1-.172-.03.509.509 0 0 1-.306-.651c.558-1.554-.276-5.149-.644-6.4a.508.508 0 1 1 .975-.287c.058.2 1.411 4.85.626 7.034a.509.509 0 0 1-.479.334ZM474.44 605.007l-.165-2.359a.257.257 0 0 1 .5-.108l.828 2.215a.6.6 0 0 1-1.124.42.624.624 0 0 1-.039-.168ZM470.045 613.4a.509.509 0 0 1-.506-.458l-1.692-16.83a.509.509 0 1 1 1.012-.1l1.692 16.83a.509.509 0 0 1-.455.557ZM471.735 592.264h-.046a.51.51 0 0 1-.461-.553 121.941 121.941 0 0 1 1.734-12.153.508.508 0 1 1 .993.219 120.543 120.543 0 0 0-1.714 12.026.509.509 0 0 1-.506.461ZM472.833 576.422a.507.507 0 0 1-.421-.223c-.136-.2-3.367-4.842-8.122-3.332a.508.508 0 1 1-.308-.969c5.484-1.741 9.234 3.675 9.271 3.73a.509.509 0 0 1-.42.794Z"/><g class="cls-11"><path class="cls-1" d="M489.8 599.57a1.885 1.885 0 0 0 .567 1.695l.756 11.848a2.879 2.879 0 0 0 2.581 2.675 28.483 28.483 0 0 0 10.6-.819h-.022c-8.268 1.785-9.491-5.389-9.491-5.389s-1.187-7.967-.879-10.015a3.315 3.315 0 0 0-.689-2.953c-.841-.12-1.228-.547-.609-1.652-12.8.545-17.631-10.154-14.468-18.164a12.817 12.817 0 0 1 3.7-5.145 17.908 17.908 0 0 1-6.144 2.567l-.013.04-2.612 7.354-.007.019v.042c-.013.308-.1 2.258-.169 4.409.65 7.384 6.408 12.105 16.899 13.488Z"/></g><ellipse class="cls-1" cx="495.68" cy="624.466" rx="25.272" ry="3.305" style="opacity:.2"/><ellipse class="cls-3" cx="495.801" cy="542.481" rx="24.966" ry="24.58" transform="rotate(-4.487 495.757 542.437)"/><path class="cls-1" d="M495.7 567.15a25.031 25.031 0 0 1-16.193-5.9 24.4 24.4 0 0 1-2.729-34.775 25.329 25.329 0 0 1 35.318-2.771 24.4 24.4 0 0 1 2.728 34.775 25.083 25.083 0 0 1-17.094 8.587c-.679.057-1.357.084-2.03.084Zm.2-49.168q-1 0-2.017.079a24.918 24.918 0 0 0-16.979 8.529 24.226 24.226 0 0 0 2.71 34.534 25.159 25.159 0 0 0 35.08-2.752 24.226 24.226 0 0 0-2.71-34.534 24.86 24.86 0 0 0-16.084-5.856Z"/><g class="cls-11"><path class="cls-1" d="M471.067 544.252a24.775 24.775 0 0 0 26.812 22.548 25.068 25.068 0 0 0 17.584-9.213 25.124 25.124 0 0 1-12.3 4.335 24.776 24.776 0 0 1-26.813-22.551 24.275 24.275 0 0 1 5.384-17.244 24.5 24.5 0 0 0-10.667 22.125Z"/></g><g class="cls-11"><path class="cls-1" d="M480.577 552.577c6.39 9.981 20.684 12.58 30.284 9.409a24.434 24.434 0 0 0 7.094-8.02c2.682-4.981 3.355-10.856 2.266-17.514-7.008-10.542-27.939-8.245-36.993 2.382a18.745 18.745 0 0 0-1.947 2.732Z"/><g style="clip-path:url(#clip-path)"><path class="cls-15" d="M505.022 552.766a9.6 9.6 0 0 0-.01 1.187 9.7 9.7 0 0 0 14.07 8.147 52.019 52.019 0 0 1-14.06-9.334Z"/><path class="cls-16" d="m516.364 563.155.036-.155.1-.13-.027-.021-.033-.008a30.035 30.035 0 0 1-11.068-7.336l-.263.2a23.469 23.469 0 0 0 5.193 4.356 23.181 23.181 0 0 0 6.062 3.094ZM511.671 558.007a48.6 48.6 0 0 1-6.649-5.241 9.6 9.6 0 0 0-.01 1.187 42.163 42.163 0 0 0 6.225 4.895 43.35 43.35 0 0 0 6.7 3.743 9.649 9.649 0 0 0 1.147-.491 48.559 48.559 0 0 1-7.413-4.093Z"/><g class="cls-11"><path class="cls-1" d="M505.022 551.422a9.6 9.6 0 0 0-.01 1.187 9.705 9.705 0 0 0 14.07 8.148 52.054 52.054 0 0 1-14.06-9.335Z"/></g><g class="cls-17"><path class="cls-2" d="M506.012 547.83c.059.067.12.134.185.2a5.856 5.856 0 0 1-.16-.249Z"/></g><path class="cls-15" d="M506.618 548.086a9.754 9.754 0 0 0-.606 1.047 54.567 54.567 0 0 0 16.034 10.645 9.646 9.646 0 0 0 .73-.965l.031-.048q.148-.225.282-.456a9.638 9.638 0 0 0 .551-1.105l.019-.045a9.7 9.7 0 0 0-14.4-11.74 9.5 9.5 0 0 0-1.387 1.142c-.035.034-.07.068-.1.1a9.7 9.7 0 0 0-.8.936 8.614 8.614 0 0 0-.271.378.743.743 0 0 0-.083.111Z"/><path class="cls-3" d="M505.531 538.28c0 1.237 0 1.594-1.377 1.594 1.382 0 1.377.306 1.377 1.636 0-1.33 0-1.636 1.377-1.636-1.382 0-1.377-.357-1.377-1.594ZM491.61 546.842c0 1.238 0 1.6-1.377 1.6 1.382 0 1.377.3 1.377 1.636 0-1.331 0-1.636 1.377-1.636-1.382-.005-1.377-.362-1.377-1.6ZM493.86 534.433a.423.423 0 1 1-.423-.423.423.423 0 0 1 .423.423Z"/><circle class="cls-3" cx="488.895" cy="540.125" r=".389"/><path class="cls-3" d="M500.938 534.07a.485.485 0 1 1-.485-.484.485.485 0 0 1 .485.484Z"/><circle class="cls-3" cx="497.35" cy="542.008" r=".315"/><path class="cls-3" d="M486.545 553.152a.31.31 0 1 1-.31-.31.31.31 0 0 1 .31.31Z"/><circle class="cls-3" cx="507.764" cy="553.093" r=".425"/><path class="cls-3" d="M513.749 557.749a.475.475 0 1 1-.475-.475.475.475 0 0 1 .475.475Z"/><circle class="cls-3" cx="498.116" cy="554.933" r=".407"/><path class="cls-3" d="M514.535 552a.173.173 0 1 1-.173-.173.172.172 0 0 1 .173.173Z"/><circle class="cls-3" cx="488.846" cy="556.958" r=".407"/><path class="cls-16" d="M506.69 547.979a2.5 2.5 0 0 0-.072.107 9.754 9.754 0 0 0-.606 1.047 54.567 54.567 0 0 0 16.034 10.645 9.646 9.646 0 0 0 .73-.965l.031-.048a36.349 36.349 0 0 1-8.541-4.479c-3.607-2.394-6.478-4.823-7.576-6.307ZM524.153 555.774l.071-.649c-1.315-.145-4.551-1.784-7.868-3.987-3.958-2.628-6.416-4.929-6.8-5.845l-.6.252c.506 1.211 3.335 3.678 7.039 6.138 3.449 2.29 6.727 3.934 8.158 4.091ZM524.205 552.441l.2-.623a30.132 30.132 0 0 1-6.268-3.361 28.606 28.606 0 0 1-5.634-4.6l-.508.412a29.253 29.253 0 0 0 5.78 4.73 30.848 30.848 0 0 0 6.43 3.442Z"/><path class="cls-16" d="m523.608 557.481.1-.645c-1.5-.237-4.839-1.945-8.314-4.252-3.645-2.42-6.62-4.958-7.236-6.171l-.583.295c.672 1.325 3.669 3.905 7.457 6.42 3.604 2.391 6.968 4.1 8.576 4.353Z"/><path class="cls-1" d="M514.7 563.652a10.2 10.2 0 0 1-10.186-10.922.508.508 0 0 1 .859-.331 51.549 51.549 0 0 0 13.91 9.235.508.508 0 0 1 .028.92 10.205 10.205 0 0 1-4.611 1.098Zm-9.181-9.73a9.19 9.19 0 0 0 12.3 8.169 53.842 53.842 0 0 1-12.3-8.169Z"/><path class="cls-18" d="M501.274 546.187c-.786 1.184.758 3.711 3.748 6.579a52.019 52.019 0 0 0 14.06 9.334c3.8 1.643 6.732 2.085 7.518.9.713-1.075-.494-3.258-2.96-5.8a9.638 9.638 0 0 1-.551 1.105c.673.76.973 1.325.792 1.6s-.842.212-1.835-.128a54.567 54.567 0 0 1-16.034-10.645c-.7-.783-1.014-1.365-.83-1.642s.818-.214 1.779.11a9.7 9.7 0 0 1 .8-.936c-3.293-1.286-5.773-1.552-6.487-.477Z"/><path class="cls-19" d="M523.841 561.155a1.158 1.158 0 0 0 1.034-.411c.387-.583-.062-1.567-1.374-3.006l-.391.356c1.232 1.353 1.492 2.1 1.324 2.357-.282.425-2.064.157-5.313-1.432a56.907 56.907 0 0 1-11.274-7.485c-2.726-2.377-3.664-3.917-3.383-4.341.168-.253.962-.3 2.687.306l.177-.5c-1.837-.65-2.917-.683-3.3-.1-.7 1.047 1.506 3.314 3.475 5.032a57.487 57.487 0 0 0 11.39 7.561 14.1 14.1 0 0 0 4.948 1.663Z"/><path class="cls-19" d="M524.441 562.563a1.678 1.678 0 0 0 1.49-.593c.729-1.1-.82-3.117-2.247-4.617l-.383.365c2.092 2.2 2.5 3.487 2.189 3.959-.386.583-2.264.61-6.285-1.233a53.577 53.577 0 0 1-12.7-8.434c-3.259-2.991-3.963-4.732-3.576-5.315.313-.472 1.659-.593 4.5.482l.188-.5c-1.937-.733-4.4-1.377-5.127-.279-.947 1.426 1.886 4.369 3.659 6a54.147 54.147 0 0 0 12.841 8.525 15.855 15.855 0 0 0 5.451 1.64Z"/><g class="cls-11"><path class="cls-1" d="M525.448 561.85c-.785 1.183-3.714.741-7.517-.9a48.257 48.257 0 0 1-7.252-3.987c2.46.758 4.252.784 4.84-.1a1.308 1.308 0 0 0 .2-.771 32.032 32.032 0 0 0 5.174 2.539c.993.341 1.651.4 1.835.129a.371.371 0 0 0 .046-.258l.8-1.253c1.718 2.014 2.472 3.698 1.874 4.601Z"/></g><path class="cls-1" d="M524.825 564.18a17.245 17.245 0 0 1-5.944-1.613 52.571 52.571 0 0 1-14.211-9.434c-1.966-1.886-5.078-5.332-3.82-7.227 1.084-1.632 4.459-.746 7.1.285a.509.509 0 0 1 .179.829 9.2 9.2 0 0 0-.762.887.507.507 0 0 1-.568.176 4.059 4.059 0 0 0-1.112-.255 4.218 4.218 0 0 0 .7.966 54.169 54.169 0 0 0 15.82 10.5 4.194 4.194 0 0 0 1.166.274 4.07 4.07 0 0 0-.669-.926.508.508 0 0 1-.058-.592 9.441 9.441 0 0 0 .522-1.046.507.507 0 0 1 .833-.157c1.975 2.034 4.1 4.8 3.019 6.432a2.476 2.476 0 0 1-2.195.901ZM501.7 546.468c-.486.732.462 2.849 3.676 5.931a51.549 51.549 0 0 0 13.91 9.235c4.087 1.765 6.406 1.817 6.892 1.086.37-.557-.063-2.089-2.392-4.623l-.078.15c.526.64.971 1.379.6 1.94-.433.653-1.523.381-2.424.072a54.969 54.969 0 0 1-16.248-10.787c-.635-.711-1.307-1.61-.875-2.262.373-.561 1.227-.438 2.021-.2l.107-.131c-3.239-1.162-4.819-.967-5.188-.41Z"/><g class="cls-11"><path class="cls-1" d="M504.956 548.077a54.554 54.554 0 0 0 16.035 10.645 10.068 10.068 0 0 0 .73-.964l.031-.048q.149-.227.282-.457a9.875 9.875 0 0 0 .551-1.1l.018-.046a9.7 9.7 0 0 0-2.319-10.776 9.671 9.671 0 0 1 .087 7.619l-.019.046c-.008.021-.02.045-.033.074-.749 1.569-2.63 1.977-4.315 1.551-3.213-.812-9.665-5.743-11.027-6.861-.144.232.101.073-.021.317Z"/></g><g class="cls-20"><path class="cls-3" d="M506.242 549.366c.157.176.334.362.529.557.13-.237.271-.471.423-.7l.072-.106q.132-.195.272-.379a9.7 9.7 0 0 1 .8-.936l.1-.1a9.56 9.56 0 0 1 1.388-1.142 9.7 9.7 0 0 1 14.307 4.1 9.7 9.7 0 0 0-16.042-3.861l-.1.1a9.675 9.675 0 0 0-.8.936q-.139.186-.272.379l-.072.106a9.843 9.843 0 0 0-.605 1.046Z"/></g><path class="cls-1" d="M522.046 560.286a.523.523 0 0 1-.165-.027 54.969 54.969 0 0 1-16.248-10.787.509.509 0 0 1-.076-.566 10.213 10.213 0 0 1 .637-1.1 10.2 10.2 0 0 1 .362-.51 10.205 10.205 0 0 1 16.973 11.27c-.1.178-.214.357-.329.53a10.271 10.271 0 0 1-.768 1.015.507.507 0 0 1-.386.175Zm-15.418-11.235a55.834 55.834 0 0 0 15.254 10.127c.165-.207.323-.424.47-.646.1-.157.2-.318.3-.478a9.376 9.376 0 0 0 .523-1.047 9.189 9.189 0 0 0-15.805-9.1c-.112.149-.222.3-.326.46a8.72 8.72 0 0 0-.416.684Zm-.01-.965Z"/></g></g><path d="M480.577 552.577c6.39 9.981 20.684 12.58 30.284 9.409a24.434 24.434 0 0 0 7.094-8.02c-10.679 11.195-36.276 3.592-34.727-15.132a18.745 18.745 0 0 0-1.947 2.732Z" style="fill:#020202"/><path class="cls-1" d="m480.26 539.374-.859-.545a26.768 26.768 0 0 1 9.742-8.944 32.928 32.928 0 0 1 12.349-3.863c6.978-.733 13.237.967 16.743 4.549l-.727.711c-3.291-3.361-9.238-4.95-15.91-4.248-8.929.939-17.105 5.666-21.338 12.34Z"/><path class="cls-1" d="m481.72 541.821-.878-.512a23.264 23.264 0 0 1 9.57-8.68 32.318 32.318 0 0 1 12.935-3.49c7.464-.382 13.646 2.007 16.963 6.552l-.821.6c-3.111-4.263-8.978-6.5-16.09-6.137-9.167.469-17.879 5.157-21.679 11.667ZM502.482 563.772a31.328 31.328 0 0 1-8.1-1.067 24.034 24.034 0 0 1-14.235-9.854.509.509 0 0 1 .857-.548c6.2 9.693 20.246 12.322 29.7 9.2a.509.509 0 0 1 .32.966 27.411 27.411 0 0 1-8.542 1.303Z"/><path class="cls-1" d="M502 565.945c-9.8 0-18.022-4.034-23.354-11.522a.509.509 0 0 1 .829-.59c5.592 7.855 14.512 11.763 25.108 11a.508.508 0 0 1 .073 1.014q-1.35.099-2.656.098Z"/><g class="cls-22"><path class="cls-3" d="M505.534 532.571q11.445 5.962 10.041 19.934a.415.415 0 0 0 .763.267 17.012 17.012 0 0 0 2.51-12.255 7.152 7.152 0 0 0-2.5-4.361 18.814 18.814 0 0 0-10.59-4.366.414.414 0 0 0-.224.781Z"/><path class="cls-1" d="M515.994 553.05a.541.541 0 0 1-.167-.027.5.5 0 0 1-.336-.526c.928-9.234-2.436-15.912-10-19.851a.5.5 0 0 1 .272-.941 18.993 18.993 0 0 1 10.636 4.386 7.216 7.216 0 0 1 2.528 4.412 16.986 16.986 0 0 1-2.521 12.315.482.482 0 0 1-.412.232Zm-10.275-21.177a.33.33 0 0 0-.146.623c7.627 3.974 11.027 10.704 10.087 20.018a.323.323 0 0 0 .223.348.318.318 0 0 0 .383-.135 16.823 16.823 0 0 0 2.5-12.2 7.051 7.051 0 0 0-2.468-4.308 18.826 18.826 0 0 0-10.543-4.348Z"/></g><g class="cls-22"><path class="cls-3" d="M493.037 540.465a17.286 17.286 0 0 0-2.851 4.066 1.781 1.781 0 0 1-2.677.633l-.032-.025a2.4 2.4 0 0 1-.735-2.631 8.245 8.245 0 0 1 3.022-4.268 2.323 2.323 0 0 1 3.47.7 1.293 1.293 0 0 1-.197 1.525Z"/><path class="cls-1" d="M488.573 545.61a1.8 1.8 0 0 1-1.113-.383l-.033-.026a2.481 2.481 0 0 1-.76-2.718 8.3 8.3 0 0 1 3.051-4.308 2.4 2.4 0 0 1 3.585.73 1.368 1.368 0 0 1-.208 1.615 17.289 17.289 0 0 0-2.839 4.047 1.891 1.891 0 0 1-1.28 1 1.842 1.842 0 0 1-.403.043Zm2.658-7.766a2.464 2.464 0 0 0-1.422.46 8.148 8.148 0 0 0-2.992 4.229 2.323 2.323 0 0 0 .71 2.545l.031.024a1.65 1.65 0 0 0 1.383.309 1.736 1.736 0 0 0 1.174-.915 17.446 17.446 0 0 1 2.864-4.085 1.209 1.209 0 0 0 .186-1.428 2.336 2.336 0 0 0-.583-.685 2.184 2.184 0 0 0-1.351-.454Z"/></g><g class="cls-22"><path class="cls-3" d="M485.949 552.9c.683 2.161 2.474 2.279 3.4 1.295a1.131 1.131 0 0 0 .257-1.038 22.016 22.016 0 0 1-.524-3.449 1.479 1.479 0 0 0-2.287-1.135c-.78.541-1.331 1.827-.846 4.327Z"/><path class="cls-1" d="M488.017 554.864a1.83 1.83 0 0 1-.408-.046 2.548 2.548 0 0 1-1.736-1.9v-.008c-.565-2.91.31-4.01.881-4.407a1.493 1.493 0 0 1 1.515-.111 1.556 1.556 0 0 1 .9 1.3 21.9 21.9 0 0 0 .523 3.437 1.211 1.211 0 0 1-.277 1.11 1.912 1.912 0 0 1-1.398.625Zm-1.992-1.987a2.4 2.4 0 0 0 1.619 1.787 1.728 1.728 0 0 0 1.65-.527 1.053 1.053 0 0 0 .237-.965 22.225 22.225 0 0 1-.526-3.461 1.4 1.4 0 0 0-.806-1.174 1.338 1.338 0 0 0-1.357.1c-.542.373-1.362 1.422-.817 4.24Z"/></g><path class="cls-1" d="M495.7 567.658a25.537 25.537 0 0 1-16.52-6.015 24.9 24.9 0 0 1-2.785-35.5 25.837 25.837 0 0 1 36.029-2.827 24.9 24.9 0 0 1 2.785 35.5 25.588 25.588 0 0 1-17.438 8.761q-1.04.081-2.071.081Zm.2-49.168q-.984 0-1.976.078a24.41 24.41 0 0 0-16.635 8.356 23.718 23.718 0 0 0 2.653 33.811 24.366 24.366 0 0 0 15.758 5.737q.984 0 1.976-.078a24.41 24.41 0 0 0 16.635-8.356 23.718 23.718 0 0 0-2.653-33.811 24.358 24.358 0 0 0-15.758-5.737Z"/><ellipse class="cls-3" cx="476.395" cy="545.931" rx="5.82" ry="8.928" transform="rotate(-4.487 476.346 545.882)"/><path class="cls-1" d="M476.793 554.928c-3.123 0-5.908-3.737-6.285-8.535-.389-4.955 1.936-9.192 5.182-9.447a5.119 5.119 0 0 1 4.381 2.318 11.754 11.754 0 0 1 2.211 6.205c.388 4.954-1.936 9.192-5.182 9.447-.1.008-.2.012-.307.012Zm-6.116-8.549c.382 4.862 3.261 8.615 6.41 8.368s5.407-4.4 5.026-9.265a11.6 11.6 0 0 0-2.176-6.115 4.96 4.96 0 0 0-4.234-2.252c-3.153.247-5.407 4.4-5.026 9.264Z"/><g class="cls-11"><path class="cls-1" d="M470.593 546.385c.386 4.917 3.3 8.7 6.5 8.446s5.489-4.44 5.1-9.356a13.147 13.147 0 0 0-.176-1.36c-.768 2.84-2.533 4.864-4.73 5.037-2.9.228-5.562-2.849-6.325-7.082a12.785 12.785 0 0 0-.369 4.315Z"/></g><path class="cls-1" d="M476.8 555.436c-3.388 0-6.4-3.94-6.8-9-.41-5.233 2.124-9.717 5.649-9.993a5.6 5.6 0 0 1 4.824 2.514 12.281 12.281 0 0 1 2.315 6.476c.41 5.234-2.124 9.717-5.649 9.994a7.794 7.794 0 0 1-.339.009Zm-5.613-9.1c.36 4.581 2.989 8.124 5.863 7.9s4.918-4.137 4.559-8.718a11.086 11.086 0 0 0-2.072-5.845 4.476 4.476 0 0 0-3.791-2.055c-2.873.225-4.918 4.136-4.559 8.718Z"/><path class="cls-1" d="M475.08 554.074a4.126 4.126 0 0 1-3.3-2.162 11.443 11.443 0 0 1-1.687-5.345c-.346-4.407 1.4-8.017 3.974-8.219s4.862 3.092 5.208 7.5-1.4 8.017-3.975 8.219a3.946 3.946 0 0 1-.22.007Zm-.788-14.717h-.141c-1.939.152-3.331 3.415-3.04 7.125a10.411 10.411 0 0 0 1.521 4.863 3.063 3.063 0 0 0 2.593 1.7c1.939-.152 3.331-3.415 3.04-7.125-.284-3.614-2.085-6.563-3.973-6.563ZM469.348 587.66c-.024-.027-.034-.042-.047-.058l-.034-.049a1.64 1.64 0 0 1-.06-.094c-.039-.061-.072-.123-.106-.185a3.332 3.332 0 0 1-.165-.38 3.007 3.007 0 0 1-.175-.793 2.818 2.818 0 0 1 .04-.791 3.209 3.209 0 0 1 .229-.729.255.255 0 0 1 .486.137v.022a2.662 2.662 0 0 0-.036.62 2.161 2.161 0 0 0 .374 1.091 2.517 2.517 0 0 0 .172.219l.094.1a.839.839 0 0 0 .046.042.146.146 0 0 0 .022.017c.006 0 .015.012.011 0a.593.593 0 0 1-.848.83Z"/><path class="cls-15" d="M517.46 555.751a9.6 9.6 0 0 0-.01 1.187 9.705 9.705 0 0 0 14.07 8.148 52.054 52.054 0 0 1-14.06-9.335Z"/><path class="cls-16" d="m528.8 566.14.038-.158.1-.131-.027-.021-.033-.008a30.035 30.035 0 0 1-11.068-7.336l-.263.2a23.5 23.5 0 0 0 5.193 4.357 23.2 23.2 0 0 0 6.06 3.097ZM524.109 560.992a48.6 48.6 0 0 1-6.649-5.241 9.6 9.6 0 0 0-.01 1.187 42.043 42.043 0 0 0 6.225 4.895 43.35 43.35 0 0 0 6.7 3.743 9.642 9.642 0 0 0 1.147-.49 48.611 48.611 0 0 1-7.413-4.094Z"/><g class="cls-11"><path class="cls-1" d="M517.46 554.407a9.705 9.705 0 0 0 14.06 9.335 52.054 52.054 0 0 1-14.06-9.335Z"/></g><g class="cls-17"><path class="cls-2" d="M518.45 550.816c.059.066.12.133.185.2a5.856 5.856 0 0 1-.16-.249Z"/></g><path class="cls-15" d="M519.056 551.071a9.754 9.754 0 0 0-.606 1.047 54.567 54.567 0 0 0 16.034 10.645 9.646 9.646 0 0 0 .73-.965l.031-.048q.149-.225.282-.456a9.557 9.557 0 0 0 .551-1.105l.019-.045a9.7 9.7 0 0 0-14.4-11.74 9.5 9.5 0 0 0-1.387 1.142l-.1.1a9.7 9.7 0 0 0-.8.936c-.093.123-.184.25-.272.379-.038.039-.059.074-.082.11Z"/><path class="cls-16" d="m519.127 550.965-.071.106a9.754 9.754 0 0 0-.606 1.047 54.567 54.567 0 0 0 16.034 10.645 9.646 9.646 0 0 0 .73-.965l.031-.048a36.349 36.349 0 0 1-8.541-4.479c-3.604-2.394-6.479-4.823-7.577-6.306ZM536.591 558.76l.071-.65c-1.315-.145-4.551-1.784-7.868-3.987-3.958-2.627-6.416-4.929-6.8-5.845l-.6.252c.5 1.211 3.334 3.678 7.039 6.138 3.448 2.29 6.727 3.932 8.158 4.092ZM536.643 555.426l.2-.623a30.084 30.084 0 0 1-6.268-3.361 28.645 28.645 0 0 1-5.634-4.6l-.508.411a29.253 29.253 0 0 0 5.78 4.73 30.848 30.848 0 0 0 6.43 3.443Z"/><path class="cls-16" d="m536.046 560.467.1-.646c-1.5-.237-4.839-1.945-8.314-4.252-3.645-2.42-6.62-4.958-7.236-6.171l-.583.295c.672 1.325 3.669 3.9 7.457 6.42 3.604 2.387 6.969 4.1 8.576 4.354Z"/><path class="cls-1" d="M527.139 566.637a10.2 10.2 0 0 1-10.186-10.922.508.508 0 0 1 .859-.331 51.549 51.549 0 0 0 13.91 9.235.508.508 0 0 1 .028.92 10.205 10.205 0 0 1-4.611 1.098Zm-9.181-9.73a9.19 9.19 0 0 0 12.3 8.169 53.754 53.754 0 0 1-12.3-8.169Z"/><path class="cls-18" d="M513.712 549.172c-.786 1.184.758 3.712 3.748 6.579a52.054 52.054 0 0 0 14.06 9.335c3.8 1.642 6.732 2.084 7.518.9.713-1.075-.494-3.257-2.96-5.8a9.557 9.557 0 0 1-.551 1.105c.673.76.972 1.325.792 1.6s-.842.213-1.835-.128a54.567 54.567 0 0 1-16.034-10.645c-.7-.783-1.014-1.365-.83-1.642s.818-.214 1.779.11a9.7 9.7 0 0 1 .8-.936c-3.293-1.287-5.773-1.55-6.487-.478Z"/><path class="cls-19" d="M536.279 564.141a1.162 1.162 0 0 0 1.034-.412c.387-.583-.062-1.567-1.374-3.006l-.391.356c1.232 1.353 1.492 2.105 1.324 2.358-.282.424-2.064.157-5.313-1.433a56.907 56.907 0 0 1-11.274-7.485c-2.726-2.377-3.664-3.917-3.383-4.341.168-.253.962-.3 2.687.306l.177-.5c-1.837-.65-2.917-.683-3.3-.1-.7 1.047 1.506 3.314 3.475 5.032a57.519 57.519 0 0 0 11.389 7.561 14.137 14.137 0 0 0 4.949 1.664Z"/><path class="cls-19" d="M536.879 565.548a1.678 1.678 0 0 0 1.49-.593c.729-1.1-.82-3.116-2.247-4.617l-.383.365c2.092 2.2 2.5 3.487 2.189 3.959-.387.583-2.264.61-6.285-1.233a53.577 53.577 0 0 1-12.7-8.434c-3.259-2.991-3.963-4.732-3.576-5.314.313-.472 1.659-.594 4.5.481l.188-.5c-1.937-.733-4.4-1.377-5.127-.279-.947 1.426 1.886 4.369 3.659 6a54.147 54.147 0 0 0 12.841 8.525 15.848 15.848 0 0 0 5.451 1.64Z"/><g class="cls-11"><path class="cls-1" d="M537.886 564.835c-.785 1.184-3.714.741-7.517-.9a48.257 48.257 0 0 1-7.252-3.987c2.46.758 4.252.784 4.84-.1a1.315 1.315 0 0 0 .2-.771 32.07 32.07 0 0 0 5.173 2.539c.994.341 1.652.4 1.836.129a.371.371 0 0 0 .046-.258l.8-1.252c1.718 2.013 2.472 3.697 1.874 4.6Z"/></g><path class="cls-1" d="M537.263 567.165a17.245 17.245 0 0 1-5.944-1.613 52.509 52.509 0 0 1-14.211-9.434c-1.966-1.886-5.078-5.332-3.82-7.227 1.084-1.632 4.459-.746 7.1.285a.509.509 0 0 1 .179.829 9.2 9.2 0 0 0-.762.887.507.507 0 0 1-.568.176 4.059 4.059 0 0 0-1.112-.255 4.218 4.218 0 0 0 .7.966 54.169 54.169 0 0 0 15.82 10.5 4.2 4.2 0 0 0 1.165.274 4.033 4.033 0 0 0-.668-.925.508.508 0 0 1-.058-.593 9.441 9.441 0 0 0 .522-1.046.509.509 0 0 1 .833-.157c1.975 2.034 4.1 4.8 3.018 6.432a2.473 2.473 0 0 1-2.194.901Zm-23.127-17.712c-.486.732.462 2.849 3.676 5.931a51.549 51.549 0 0 0 13.91 9.235c4.087 1.765 6.406 1.817 6.892 1.086.37-.557-.063-2.089-2.392-4.623l-.078.15c.526.64.971 1.379.6 1.94-.433.652-1.523.381-2.424.072a54.969 54.969 0 0 1-16.248-10.787c-.635-.711-1.307-1.61-.875-2.262.373-.561 1.227-.438 2.021-.2l.107-.131c-3.239-1.162-4.819-.967-5.188-.41Z"/><g class="cls-11"><path class="cls-1" d="M517.394 551.062a54.567 54.567 0 0 0 16.034 10.645 9.748 9.748 0 0 0 .73-.964l.032-.048q.148-.227.281-.457a9.715 9.715 0 0 0 .552-1.1l.018-.046a9.636 9.636 0 0 0 .53-1.709 9.711 9.711 0 0 0-2.849-9.066 9.67 9.67 0 0 1 .087 7.618l-.019.047-.033.073c-.749 1.569-2.63 1.977-4.316 1.551-3.212-.812-9.664-5.743-11.026-6.861-.144.233.101.073-.021.317Z"/></g><g class="cls-20"><path class="cls-3" d="M518.68 552.351c.157.176.334.362.529.557.13-.237.271-.471.423-.7l.072-.106c.088-.129.179-.256.272-.379a9.7 9.7 0 0 1 .8-.936l.1-.1a9.56 9.56 0 0 1 1.388-1.142 9.7 9.7 0 0 1 14.307 4.1 9.7 9.7 0 0 0-16.042-3.861l-.1.1a9.675 9.675 0 0 0-.8.936c-.094.124-.184.25-.272.379l-.072.106a9.674 9.674 0 0 0-.605 1.046Z"/></g><path class="cls-1" d="M534.484 563.271a.523.523 0 0 1-.165-.027 54.969 54.969 0 0 1-16.248-10.787.508.508 0 0 1-.076-.566 10.213 10.213 0 0 1 .637-1.1c.115-.173.237-.345.361-.51a10.205 10.205 0 0 1 16.974 11.27c-.1.178-.214.357-.329.531a10.376 10.376 0 0 1-.768 1.014.509.509 0 0 1-.386.175Zm-15.418-11.235a55.834 55.834 0 0 0 15.254 10.127c.165-.207.323-.424.47-.646.1-.156.2-.317.3-.478a9.376 9.376 0 0 0 .523-1.047 9.189 9.189 0 0 0-15.805-9.1c-.112.149-.222.3-.326.46a7.94 7.94 0 0 0-.416.684Zm-.01-.965ZM520.788 563.084a1.229 1.229 0 0 1 .111.116c.032.035.058.069.086.1.053.069.106.138.152.208a4.507 4.507 0 0 1 .255.428 5.82 5.82 0 0 1 .373.891 6.894 6.894 0 0 1 .224.915c.029.153.044.307.066.46l.039.46a.17.17 0 0 1-.333.06v-.011l-.119-.424c-.048-.138-.088-.278-.142-.413a6.447 6.447 0 0 0-.357-.782 5.1 5.1 0 0 0-.461-.7 3.548 3.548 0 0 0-.268-.3c-.046-.048-.1-.09-.141-.132-.024-.019-.048-.041-.07-.057a.239.239 0 0 0-.054-.037.508.508 0 0 1 .641-.789Z"/><ellipse cx="494.6" cy="580.053" rx="2.123" ry="1.536" transform="rotate(-85.513 494.604 580.053)" style="fill:#22a7f0"/><path class="cls-3" d="M495.468 580.837c.092-1.169-.519-2.17-1.365-2.237a1.2 1.2 0 0 0-.669.153 1.477 1.477 0 0 1 1.332-.816c.846.066 1.457 1.068 1.366 2.236a2.285 2.285 0 0 1-1.029 1.844 2.713 2.713 0 0 0 .365-1.18Z" style="opacity:.6"/><path class="cls-1" d="M494.52 582.67h-.125a1.859 1.859 0 0 1-1.42-.941 3.068 3.068 0 0 1-.4-1.83c.115-1.465 1.1-2.543 2.232-2.453s1.938 1.307 1.823 2.771a3.075 3.075 0 0 1-.683 1.745 1.891 1.891 0 0 1-1.427.708Zm-.955-2.7a2.1 2.1 0 0 0 .259 1.233.77.77 0 0 0 1.363.107 2.107 2.107 0 0 0 .449-1.177c.069-.879-.348-1.658-.909-1.7s-1.093.661-1.162 1.539Z"/><path class="cls-4" d="M770.293 437.325a257.153 257.153 0 0 1-.077 35.918C760 615.826 636.154 723.15 493.569 712.969c-142.583-10.213-249.906-134.062-239.725-276.647.29-4.1.679-8.2 1.164-12.224 8.42 126.923 109.34 231.4 239.8 240.728 138.486 9.89 259.275-91.055 275.485-227.501Z"/><path class="cls-2" d="M531.061 188.642A266.935 266.935 0 0 0 278.441 583.9a269.149 269.149 0 0 0 31.95 45.62 266.562 266.562 0 0 0 388.71 15.35 270.35 270.35 0 0 0 19.7-21.58 265.786 265.786 0 0 0 55.9-121.55c.02-.1.03-.2.05-.3a269.019 269.019 0 0 0 3.42-27.63c10.5-146.748-100.36-274.678-247.11-285.168ZM494.141 705a249 249 0 0 1-142.21-57.02 254.979 254.979 0 0 1-59.02-70.91 248.177 248.177 0 0 1-31.48-110.45 254.64 254.64 0 0 1 .39-29.73 250.944 250.944 0 0 1 234.04-232.49 256.52 256.52 0 0 1 34.06.16c99.4 7.11 181.28 71.52 215.61 158.57a249.376 249.376 0 0 1 16.72 109.54q-.255 3.5-.6 6.96-.96 9.84-2.69 19.41c0 .03-.01.06-.01.09a249.805 249.805 0 0 1-52.18 113.64 252.879 252.879 0 0 1-59.53 53.18 249.535 249.535 0 0 1-153.1 39.05Z"/><path class="cls-2" d="M767.721 405.982q-1.5-4.44-3.26-8.74c-1.09-2.71-2.25-5.37-3.49-8a159.857 159.857 0 0 0-15.44-26.11 181.035 181.035 0 0 0-38.92-38.8c-43.81-32.51-107.23-51.97-183.41-56.26s-141.39 7.92-188.56 35.3a178.67 178.67 0 0 0-46.68 38.32 159.158 159.158 0 0 0-18.57 26.83q-2.22 4.035-4.21 8.22-2.46 5.1-4.57 10.44-11.34 28.5-13.31 63.25a239.18 239.18 0 0 0 31.72 133.17q3.015 5.28 6.33 10.46c5.1 7.97 14.4 17.64 27.09 27.75 1.8 1.45 3.68 2.9 5.62 4.35 1.84 1.38 3.75 2.77 5.71 4.16a311.1 311.1 0 0 0 28.16 17.66c38.69 21.51 89.93 40.01 145.45 42.64a364.046 364.046 0 0 0 149.86-24.67 303.747 303.747 0 0 0 29.39-13.43q3.345-1.755 6.49-3.52a.037.037 0 0 1 .03-.01c1.87-1.06 3.69-2.1 5.45-3.16 13.15-7.83 23.39-15.65 30.2-22.54 1.56-1.58 2.94-3.12 4.14-4.59a247.312 247.312 0 0 0 22.63-32.95 238.121 238.121 0 0 0 29.13-84.01c.02-.1.03-.2.05-.3q1.53-10.5 2.13-21.18 2.295-40.62-9.16-74.28ZM298.8 585.442q-2.745-4.275-5.27-8.64a223.962 223.962 0 0 1-30.46-103.63q-.45-10.875.17-21.84c3.4-60.4 30.12-105.53 79.41-134.15 32.53-18.88 74.49-30.08 123.27-33.13a477.193 477.193 0 0 1 56.38-.04c73.06 4.12 133.5 22.49 174.79 53.14a166.991 166.991 0 0 1 30.28 28.7c22.55 27.71 33.92 61.61 33.92 101.3q0 6.015-.35 12.21c-.06 1.12-.13 2.23-.22 3.34q-.57 8.235-1.76 16.34c0 .03-.01.06-.01.09a222.557 222.557 0 0 1-27.79 79.63 230.7 230.7 0 0 1-20.62 29.88 52.284 52.284 0 0 1-3.77 4.13c-22.25 22.17-87.53 56.4-170.91 61.61a345.07 345.07 0 0 1-37.72.29 304.7 304.7 0 0 1-82.66-16.07c-58.769-19.84-103.849-53.13-116.68-73.16Z"/><g class="cls-25"><ellipse class="cls-3" cx="686.468" cy="456.931" rx="45.806" ry="33.192" transform="rotate(-76.505 686.472 456.93)"/></g><g class="cls-25"><ellipse class="cls-3" cx="715.768" cy="525.238" rx="21.025" ry="18.042" transform="rotate(-68.563 715.77 525.238)"/></g><path d="M724.994 360.152c29.708 31.728 45.936 73.9 42.915 127.652-2.848 50.581-21.918 96.6-52.162 133.869-22.695 27.937-112.1 74.028-218.993 68.981-37.744-1.775-73.741-11.279-104.941-24.051 131.532 3.4 240.454-53.215 268.59-87.865 38.413-47.3 62.6-105.717 66.207-169.887a262.013 262.013 0 0 0-1.616-48.699Z" style="fill:#111a28" class="cls-17"/><path class="cls-2" d="M753.932 369.181a7.954 7.954 0 0 1-5.779-1.982 7.292 7.292 0 0 1-.376-.352l-.643-.637-.483-.765c-39.852-63.108-121.6-102.618-224.275-108.4-103.231-5.809-188.878 25.4-234.96 85.633l-.516.61a7.985 7.985 0 0 1-12.021-10.5c49.378-64.38 139.9-97.8 248.4-91.685 107.713 6.069 193.937 48.146 236.656 115.47a7.986 7.986 0 0 1-6 12.613Z"/><g class="cls-25"><path class="cls-3" d="M268.311 468.366s-12.6-95.81 47.887-138.832 136.939-48.517 134.237-43.506c0 0-88.493 26.644-134.091 95.664-35.163 53.223-48.033 86.674-48.033 86.674Z"/></g><path d="M350.608 548.859s-41.307.478-56.494-27.381-13.634-60.589-11.644-59.187c0 0 6.812 38.914 33.79 61.776 20.803 17.633 34.348 24.792 34.348 24.792Z" style="opacity:.31"/><path class="cls-5" d="M580.64 418.628a63.494 63.494 0 0 1-2.526 17.773v.006l-.012.025a62.608 62.608 0 0 1-3.111 8.391v.007l-.006.006a63.4 63.4 0 0 1-57.8 37.243 64.776 64.776 0 0 1-8.908-.616 63.424 63.424 0 0 1-26.345-10.071c-.267-.18-.535-.361-.8-.548a63.454 63.454 0 1 1 99.5-52.216Z"/><circle class="cls-28" cx="477.999" cy="435.424" r="12.441"/><path class="cls-28" d="M493.19 477.376a7.466 7.466 0 1 0-12.05-6.531Z"/><circle class="cls-28" cx="485.464" cy="391.879" r="10.575"/><path class="cls-28" d="M574.991 444.823v.007a10.575 10.575 0 1 1 3.123-8.429v.006Z"/><circle class="cls-28" cx="539.583" cy="394.368" r="6.843"/><circle class="cls-28" cx="513.457" cy="434.18" r="10.575"/><path class="cls-28" d="M559.776 465.663a63.664 63.664 0 0 1-16.759 10.937 10.587 10.587 0 0 1 10.252-13.182 10.467 10.467 0 0 1 6.507 2.245ZM530.371 356.552a10.582 10.582 0 0 1-20.4-.964 63.882 63.882 0 0 1 20.4.964Z"/><circle class="cls-28" cx="539.583" cy="421.739" r="3.11"/><circle class="cls-3" cx="433.541" cy="454.872" r="1.866"/><circle class="cls-3" cx="564.741" cy="320.957" r="1.866"/><circle class="cls-3" cx="483.597" cy="355.178" r="1.244"/><circle class="cls-3" cx="457.207" cy="333.97" r=".933"/><circle class="cls-3" cx="626.171" cy="403.892" r="2.177"/><circle class="cls-3" cx="617.596" cy="380.395" r="4.043"/><circle class="cls-3" cx="548.596" cy="337.395" r="4.043"/><circle class="cls-3" cx="433.596" cy="408.395" r="4.043"/><circle class="cls-3" cx="609.774" cy="447.464" r="1.244"/><circle class="cls-3" cx="553.58" cy="480.524" r=".933"/><circle class="cls-3" cx="542.072" cy="486.433" r="1.866"/><circle class="cls-3" cx="488.885" cy="484.878" r="1.555"/><circle class="cls-3" cx="504.126" cy="488.3" r=".622"/><path class="cls-3" d="m402.452 385.175 1.518.6-1.518.6a3.134 3.134 0 0 0-1.765 1.766l-.6 1.518-.6-1.518a3.136 3.136 0 0 0-1.766-1.766l-1.518-.6 1.518-.6a3.136 3.136 0 0 0 1.766-1.766l.6-1.518.6 1.518a3.134 3.134 0 0 0 1.765 1.766ZM432.981 351.583l1.518.6-1.518.6a3.132 3.132 0 0 0-1.766 1.765l-.6 1.518-.6-1.518a3.133 3.133 0 0 0-1.765-1.765l-1.519-.6 1.519-.6a3.136 3.136 0 0 0 1.765-1.765l.6-1.518.6 1.518a3.134 3.134 0 0 0 1.766 1.765ZM599.772 469.907l1.518.6-1.518.6a3.132 3.132 0 0 0-1.766 1.765l-.6 1.518-.6-1.518a3.133 3.133 0 0 0-1.765-1.765l-1.518-.6 1.518-.6a3.136 3.136 0 0 0 1.765-1.765l.6-1.518.6 1.518a3.134 3.134 0 0 0 1.766 1.765ZM618.157 425.9l1.518.6-1.518.6a3.136 3.136 0 0 0-1.766 1.766l-.6 1.518-.6-1.518a3.137 3.137 0 0 0-1.765-1.766l-1.518-.6 1.518-.6a3.137 3.137 0 0 0 1.765-1.766l.6-1.518.6 1.518a3.136 3.136 0 0 0 1.766 1.766ZM608.157 344.9l1.518.6-1.518.6a3.136 3.136 0 0 0-1.766 1.766l-.6 1.518-.6-1.518a3.137 3.137 0 0 0-1.765-1.766l-1.518-.6 1.518-.6a3.137 3.137 0 0 0 1.765-1.766l.6-1.518.6 1.518a3.136 3.136 0 0 0 1.766 1.766ZM555.483 358.72l.672.265-.672.265a1.382 1.382 0 0 0-.78.78l-.265.671-.265-.671a1.379 1.379 0 0 0-.78-.78l-.671-.265.671-.265a1.382 1.382 0 0 0 .78-.78l.265-.672.265.672a1.385 1.385 0 0 0 .78.78ZM504.525 317.055l1.518.6-1.518.6a3.13 3.13 0 0 0-1.765 1.765l-.6 1.518-.6-1.518a3.127 3.127 0 0 0-1.765-1.765l-1.518-.6 1.518-.6a3.13 3.13 0 0 0 1.765-1.765l.6-1.518.6 1.518a3.133 3.133 0 0 0 1.765 1.765ZM418.185 423.231l1.518.6-1.518.6a3.132 3.132 0 0 0-1.766 1.765l-.6 1.518-.6-1.518a3.13 3.13 0 0 0-1.765-1.765l-1.518-.6 1.518-.6a3.133 3.133 0 0 0 1.765-1.765l.6-1.518.6 1.518a3.134 3.134 0 0 0 1.766 1.765ZM438.934 477.224l1.518.6-1.518.6a3.132 3.132 0 0 0-1.766 1.765l-.6 1.518-.6-1.518a3.133 3.133 0 0 0-1.765-1.765l-1.518-.6 1.518-.6a3.136 3.136 0 0 0 1.765-1.765l.6-1.518.6 1.518a3.134 3.134 0 0 0 1.766 1.765ZM485.722 504.532l1.518.6-1.518.6a3.136 3.136 0 0 0-1.765 1.765l-.6 1.519-.6-1.519a3.137 3.137 0 0 0-1.766-1.765l-1.518-.6 1.518-.6a3.136 3.136 0 0 0 1.766-1.766l.6-1.518.6 1.518a3.134 3.134 0 0 0 1.765 1.766ZM586.921 399.227l.487.192-.487.192a1 1 0 0 0-.566.566l-.191.486-.192-.486a1 1 0 0 0-.566-.566l-.486-.192.486-.192a1 1 0 0 0 .566-.565l.192-.487.191.487a1 1 0 0 0 .566.565ZM543.464 499.649l1.518.6-1.518.6a3.13 3.13 0 0 0-1.765 1.765l-.6 1.518-.6-1.518a3.127 3.127 0 0 0-1.765-1.765l-1.518-.6 1.518-.6a3.133 3.133 0 0 0 1.765-1.765l.6-1.518.6 1.518a3.136 3.136 0 0 0 1.765 1.765ZM466 473.779l.73.288-.73.288a1.507 1.507 0 0 0-.849.848l-.287.73-.288-.73a1.507 1.507 0 0 0-.849-.848l-.729-.288.729-.288a1.507 1.507 0 0 0 .849-.848l.288-.73.287.73a1.507 1.507 0 0 0 .849.848ZM425.776 377l.73.288-.73.288a1.5 1.5 0 0 0-.848.849l-.288.729-.288-.729a1.5 1.5 0 0 0-.848-.849l-.73-.288.73-.288a1.5 1.5 0 0 0 .848-.848l.288-.73.288.73a1.5 1.5 0 0 0 .848.848Z"/></g></svg>