<svg id="Logo" xmlns="http://www.w3.org/2000/svg" viewBox="0 0 1024 1024"><defs><clipPath id="clip-path"><path class="cls-1" d="M480.577 609.8c6.39 9.982 20.684 12.58 30.284 9.409a24.441 24.441 0 0 0 7.094-8.019c2.682-4.982 3.355-10.857 2.266-17.515-7.008-10.542-27.939-8.245-36.993 2.382a18.754 18.754 0 0 0-1.947 2.733Z"/></clipPath><style>.cls-1{fill:#232323}.cls-2{fill:#fff}.cls-3{fill:#371a45}.cls-4{fill:#d2d2d2}.cls-5{fill:#9996fe}.cls-6{fill:#424268}.cls-7{opacity:.49}.cls-9{fill:#1d1842;fill-rule:evenodd}.cls-11{opacity:.3}.cls-15{fill:#ffb200}.cls-16{fill:#d66b09}.cls-17{opacity:.35}.cls-18{fill:#ffc536}.cls-19{fill:#ffec90}.cls-20{opacity:.41}.cls-22{opacity:.4}.cls-25{opacity:.7}.cls-28{opacity:.32}</style></defs><circle class="cls-2" cx="512.033" cy="512.01" r="258.838"/><path class="cls-3" d="M767.721 463.21c-21.6-113.03-117.04-202.22-237.13-210.81a260.448 260.448 0 0 0-269.98 192.01 263.677 263.677 0 0 0-8.19 49.04 258.4 258.4 0 0 0 31.91 144.8 261.07 261.07 0 0 0 28.11 40.79q1.425 1.725 2.9 3.42a258.553 258.553 0 0 0 178.13 89.16A259.486 259.486 0 0 0 688.6 703.06q3-2.76 5.91-5.63a259.336 259.336 0 0 0 76.57-160.27c.22-2.19.4-4.38.56-6.59a259.659 259.659 0 0 0-3.919-67.36Zm-91.09 246.54a257.179 257.179 0 0 1-352.86-22.2q-3.195-3.42-6.27-6.97a260.041 260.041 0 0 1-30.57-43.55 255.65 255.65 0 0 1-31.65-143.38c.11-1.51.23-3.01.37-4.51a258.537 258.537 0 0 1 13.74-63.39 257.892 257.892 0 0 1 226.04-170.65 259.925 259.925 0 0 1 34.96.16c112.57 8.05 203.24 87.73 230.58 191.21a255.242 255.242 0 0 1 8.29 55.75c.24 6.45.24 12.97-.01 19.52-.11 2.87-.27 5.74-.47 8.63a257.394 257.394 0 0 1-92.15 179.38Z"/><path class="cls-3" d="M767.061 518a235.127 235.127 0 0 1-44.841 137.16c-21.08 29.249-107.477 80.255-213.929 80.824-98.7.527-188.307-53-209.168-82.406a235.12 235.12 0 0 1-43.813-137.493c.5-134.768 115.266-190.209 256.588-189.681S767.564 383.23 767.061 518Z"/><path class="cls-2" d="M771.315 593.324h-9.489a4.447 4.447 0 0 1-4.446-4.449l.059-153.545a4.448 4.448 0 0 1 4.449-4.446h9.49a46.659 46.659 0 0 1 46.64 46.676l-.027 69.123a46.658 46.658 0 0 1-46.676 46.641Z"/><path class="cls-3" d="M774.4 594.663q-1.536.1-3.088.1h-9.488a5.883 5.883 0 0 1-5.881-5.883l.06-153.545a5.883 5.883 0 0 1 5.884-5.88h9.489a48.091 48.091 0 0 1 48.074 48.111l-.026 69.123a48.1 48.1 0 0 1-45.024 47.974Zm-3.087-2.774a45.223 45.223 0 0 0 45.242-45.205l.026-69.124a45.223 45.223 0 0 0-45.206-45.241h-9.489a3.01 3.01 0 0 0-3.014 3.011l-.06 153.545a3.015 3.015 0 0 0 3.012 3.014Z"/><path class="cls-4" d="M818 513.732v24.293a55.347 55.347 0 0 1-55.352 55.306 5.285 5.285 0 0 1-5.272-5.287v-40.378a5.281 5.281 0 0 0 4.8 3.13l3.6-.009A55.278 55.278 0 0 0 818 513.732Z"/><path class="cls-3" d="M774.82 601.2q-1.746.11-3.509.108h-9.488a12.433 12.433 0 0 1-12.423-12.437l.06-153.547A12.429 12.429 0 0 1 761.9 422.9h9.486A54.639 54.639 0 0 1 826 477.563l-.025 69.123A54.649 54.649 0 0 1 774.82 601.2Zm-3.5-15.859a38.675 38.675 0 0 0 38.69-38.658l.025-69.124a38.673 38.673 0 0 0-38.659-38.69h-5.952l-.058 146.47Z"/><path class="cls-2" d="M252.687 430.684h9.489a4.447 4.447 0 0 1 4.446 4.449l-.059 153.545a4.448 4.448 0 0 1-4.449 4.446h-9.49a46.658 46.658 0 0 1-46.64-46.676l.027-69.123a46.657 46.657 0 0 1 46.676-46.641Z"/><path class="cls-3" d="M262.485 594.551a6.544 6.544 0 0 1-.372.011h-9.489a48.149 48.149 0 0 1-48.075-48.11l.028-69.124a48.15 48.15 0 0 1 48.11-48.075h9.49a5.889 5.889 0 0 1 5.879 5.883L268 588.68a5.893 5.893 0 0 1-5.515 5.871Zm-12.667-162.344a45.282 45.282 0 0 0-42.373 45.117l-.027 69.124a45.276 45.276 0 0 0 45.206 45.241h9.49a3 3 0 0 0 3.015-3.013l.058-153.545a3.018 3.018 0 0 0-3.012-3.014h-9.488a47.03 47.03 0 0 0-2.869.09Z"/><path class="cls-4" d="m266.591 545.717-.021 42.138a5.286 5.286 0 0 1-5.286 5.273 55.3 55.3 0 0 1-55.291-55.335l.007-21.826a55.342 55.342 0 0 0 50.385 32.512h5.543a5.333 5.333 0 0 0 4.663-2.762Z"/><path class="cls-3" d="M262.9 601.088c-.26.016-.521.024-.786.023h-9.491A54.7 54.7 0 0 1 198 546.446l.027-69.124A54.669 54.669 0 0 1 252.69 422.7h9.49a12.447 12.447 0 0 1 12.425 12.436l-.058 153.542a12.453 12.453 0 0 1-11.647 12.41Zm-12.669-162.344a38.724 38.724 0 0 0-36.237 38.582l-.027 69.124a38.72 38.72 0 0 0 38.66 38.69h5.954l.056-146.473h-5.954a38.33 38.33 0 0 0-2.452.077Z"/><path class="cls-5" d="M745.571 642.974a247.312 247.312 0 0 1-22.63 32.95c-1.2 1.47-2.58 3.01-4.14 4.59a270.35 270.35 0 0 1-19.7 21.58 267.054 267.054 0 0 1-420.66-60.97c.19-.1.39-.2.58-.3q2.625-1.3 5.31-2.58l1.35-.63c.42-.2.83-.4 1.25-.59 1.97-.92 3.97-1.83 5.98-2.73.21-.09.41-.19.62-.27q8.91-3.975 18.32-7.61a497.044 497.044 0 0 1 91.78-25.21c.65-.12 1.32-.24 1.98-.36q2.565-.45 5.16-.88h.01l.6-.09q13.08-2.145 26.59-3.71c1.12-.14 2.25-.27 3.38-.39a621.409 621.409 0 0 1 68.82-3.78q25.23 0 49.54 1.94l.72.06q16.35 1.3 32.15 3.44l1.28.18a553.463 553.463 0 0 1 58.01 11.05c1.32.32 2.64.66 3.95 1q8.22 2.1 16.2 4.44 10.185 2.97 19.94 6.31c2.87.97 5.72 1.98 8.53 3v.01c1.13.4 2.24.81 3.36 1.23q4.725 1.77 9.35 3.62 8.76 3.5 17.1 7.32c.29.12.57.25.86.39 1.08.49 2.15.99 3.22 1.49.63.3 1.26.6 1.89.89.45.22.91.44 1.36.65 0 0 0 .01.01 0 .26.13.51.26.77.38.15.08.3.15.44.22 1.98.96 3.94 1.94 5.87 2.92.29.15.57.29.85.44Z"/><ellipse class="cls-6" cx="339.001" cy="667.494" rx="20.178" ry="39.516" transform="rotate(-65.859 339.004 667.496)"/><path class="cls-7" d="M375.775 681.49c-1.334 6.347-8.124 10.5-19.189 10.5-17.972 0-40.421-10.971-50.131-24.5-5.978-8.33-5.736-15.688-.487-20.121-.815 3.966.491 8.79 4.228 14 9.71 13.529 32.159 24.5 50.13 24.5 6.916 0 12.158-1.623 15.449-4.379Z"/><path class="cls-6" d="M593.121 602.574c-.1.26-.21.51-.32.76-.15.32-.32.62-.49.93a11.561 11.561 0 0 1-1.99 2.52c-.16.17-.32.31-.49.46-6.1 5.32-16.89 4.59-24.09-1.65a16.335 16.335 0 0 1-6.03-11.66l.72.06q16.35 1.3 32.15 3.44l1.28.18a.085.085 0 0 1 0 .07 11.865 11.865 0 0 1-.74 4.89Z"/><path class="cls-7" d="M593.121 602.574c-.1.26-.21.51-.32.76-.15.32-.31.62-.49.93a11.561 11.561 0 0 1-1.99 2.52c-.16.17-.32.31-.49.46-6.1 5.32-16.89 4.59-24.09-1.65a16.335 16.335 0 0 1-6.03-11.66l.72.06a18.213 18.213 0 0 0 4.81 6.37c7.2 6.23 17.99 6.97 24.09 1.65a11.678 11.678 0 0 0 3.25-4.58l1.28.18a.085.085 0 0 1 0 .07 11.865 11.865 0 0 1-.74 4.89Z"/><ellipse class="cls-6" cx="378.792" cy="623.955" rx="12.129" ry="15.034" transform="rotate(-65.726 378.797 623.957)"/><ellipse class="cls-6" cx="398.792" cy="669.955" rx="8.507" ry="10.544" transform="rotate(-65.726 398.797 669.957)"/><path class="cls-7" d="M392.891 622.7a10.2 10.2 0 0 1-2.975 10.886c-5.207 4.543-14.412 3.914-20.555-1.4-3.782-3.275-5.523-7.563-5.093-11.438a15 15 0 0 0 4.67 6.973c6.143 5.319 15.348 5.948 20.555 1.4a9.9 9.9 0 0 0 3.398-6.421ZM408.68 669.075a7.158 7.158 0 0 1-2.086 7.635c-3.652 3.186-10.108 2.745-14.416-.985a9.454 9.454 0 0 1-3.572-8.022 10.516 10.516 0 0 0 3.275 4.89c4.308 3.73 10.764 4.172 14.415.986a6.944 6.944 0 0 0 2.384-4.504Z"/><ellipse class="cls-6" cx="591.312" cy="646.133" rx="12.112" ry="14.687" transform="rotate(-30.046 591.314 646.133)"/><path class="cls-7" d="M602.5 654.953a10.261 10.261 0 0 1-9.929 5.233c-7.037-.533-13.306-7.258-14-15.018-.427-4.778 1.359-8.834 4.434-11.127a13.408 13.408 0 0 0-1.562 7.855c.693 7.76 6.961 14.485 14 15.018a10.367 10.367 0 0 0 7.057-1.961Z"/><path class="cls-6" d="M439.551 604.744c-.07.26-.14.52-.23.78a10.46 10.46 0 0 1-3.19 4.66c-5.35 4.6-14.54 4.28-20.51-.72a14.523 14.523 0 0 1-3.31-3.91 9.7 9.7 0 0 1-.51-1.02 11.659 11.659 0 0 1-.85-2.69c-.05-.31-.1-.63-.13-.94s-.04-.63-.04-.94l.6-.09q13.08-2.145 26.59-3.71a11.571 11.571 0 0 1 1.48 3.33c.03.1.06.19.08.28.01.02.02.03.02.05l.12.6c.05.31.1.63.13.95a10.3 10.3 0 0 1-.25 3.37Z"/><path class="cls-7" d="M439.771 603.534a9.9 9.9 0 0 1-.22 1.21c-.07.26-.14.52-.23.78a10.46 10.46 0 0 1-3.19 4.66c-5.35 4.6-14.54 4.28-20.51-.72a14.523 14.523 0 0 1-3.31-3.91 9.7 9.7 0 0 1-.51-1.02 11.659 11.659 0 0 1-.85-2.69c-.05-.31-.1-.63-.13-.94a7.4 7.4 0 0 1-.05-.94h.01l.6-.09a13.811 13.811 0 0 0 3.96 5.24c5.97 5 15.16 5.32 20.51.72a10.382 10.382 0 0 0 3.6-6.34.037.037 0 0 0 .01-.03 1.729 1.729 0 0 1 .07.31c.01.02.02.03.02.05l.12.6a7.485 7.485 0 0 1 .13.95 9.736 9.736 0 0 1-.03 2.16Z"/><path class="cls-6" d="M689.381 631.764a4.086 4.086 0 0 1-.29.48c-.11.19-.23.37-.35.55a12.484 12.484 0 0 1-1.02 1.37c-.17.21-.35.42-.53.62a.17.17 0 0 1-.06.06q-.21.24-.45.48a14.352 14.352 0 0 1-1.61 1.42c-.19.15-.38.3-.58.43a7.012 7.012 0 0 1-.67.44 4.943 4.943 0 0 1-.49.3c-.27.17-.54.31-.82.45-.3.15-.6.3-.91.42a.642.642 0 0 1-.2.08 8.148 8.148 0 0 1-.77.3.476.476 0 0 1-.14.05 16.7 16.7 0 0 1-2.02.56 11.5 11.5 0 0 1-1.31.2c-.33.05-.66.08-1 .1-.38.03-.76.04-1.15.04-.46 0-.93-.01-1.41-.05-11.19-.84-21.16-11.54-22.26-23.89a24.349 24.349 0 0 1-.06-3.61c.02-.33.05-.66.09-.98a6.723 6.723 0 0 1 .1-.8c.02-.21.05-.41.09-.62a14.761 14.761 0 0 1 .31-1.5c1.32.32 2.64.66 3.95 1q18.705 4.785 36.14 10.75a20.965 20.965 0 0 1-2.58 11.35Z"/><path class="cls-7" d="M689.381 631.764a4.086 4.086 0 0 1-.29.48c-.11.19-.23.37-.35.55a12.484 12.484 0 0 1-1.02 1.37c-.17.21-.35.42-.53.62a.17.17 0 0 1-.06.06q-.21.24-.45.48a14.352 14.352 0 0 1-1.61 1.42c-.19.15-.38.3-.58.43a7.012 7.012 0 0 1-.67.44 4.943 4.943 0 0 1-.49.3c-.27.17-.54.31-.82.45-.3.15-.6.3-.91.42a.642.642 0 0 1-.2.08 8.148 8.148 0 0 1-.77.3.476.476 0 0 1-.14.05 17.226 17.226 0 0 1-2.02.56 11.5 11.5 0 0 1-1.31.2c-.33.05-.66.08-1 .1-.38.03-.76.04-1.15.04-.46 0-.93-.01-1.41-.05-11.19-.84-21.16-11.54-22.26-23.89a24.349 24.349 0 0 1-.06-3.61c.02-.33.05-.66.09-.98a6.723 6.723 0 0 1 .1-.8c.02-.21.05-.41.09-.62a14.761 14.761 0 0 1 .31-1.5c1.32.32 2.64.66 3.95 1 .01.43.04.87.08 1.31 1.11 12.34 11.08 23.04 22.27 23.89a16.518 16.518 0 0 0 11.21-3.1Z"/><ellipse class="cls-6" cx="677.312" cy="695.133" rx="10.143" ry="17.538" transform="rotate(-46.911 677.31 695.133)"/><path class="cls-7" d="M691.705 703.953c-.72 3.466-3.572 5.561-8.024 5.233-7.231-.533-15.948-7.258-19.465-15.018-2.165-4.778-1.855-8.834.385-11.127a13.078 13.078 0 0 0 1.3 7.855c3.517 7.76 12.233 14.485 19.465 15.018a7.788 7.788 0 0 0 6.339-1.961Z"/><ellipse class="cls-6" cx="547.326" cy="715.589" rx="36.111" ry="30.72" transform="rotate(-2.353 547.388 715.644)"/><path class="cls-7" d="M581.751 724.5c-3.471 9.288-12.014 17.1-23.739 20.322-19.042 5.239-39.27-3.6-45.171-19.742-3.633-9.938-.991-20.325 6.009-28.071a26.32 26.32 0 0 0-.059 18.392c5.9 16.14 26.129 24.981 45.171 19.743a37.194 37.194 0 0 0 17.789-10.644ZM696.7 669.244a4.975 4.975 0 0 0-.47.33c.16-.13.32-.24.49-.36-.009.01-.009.02-.02.03Z"/><path style="fill:none;stroke:#fff;stroke-miterlimit:10;stroke-width:4px" d="M399.001 666.994v-79"/><path class="cls-9" d="M398.458 599.3c16.593-8.612 32.438 4.548 49.013-3.566l-.244-9.813c-16.558 7.614-32.4-5.534-49.014 3.6l.245 9.779Z"/><path d="M398.7 608.924c16.576-8.109 32.42 5.051 49.014-3.566l-.245-9.8c-16.576 8.105-32.42-5.055-49.013 3.566q.12 4.898.244 9.8Z" style="fill-rule:evenodd;fill:#fff"/><path class="cls-9" d="M398.94 618.651c16.559-7.614 32.4 5.534 49.015-3.6l-.246-9.778c-16.593 8.612-32.437-4.548-49.013 3.566q.123 4.9.244 9.812Z"/><path class="cls-2" d="m465.214 646.239 5.4 2.451a3.315 3.315 0 0 0 2.387.139l1.372-.439 2.731-9.541 5.695-19.908-7.1-5.038-1.491.675a5.078 5.078 0 0 0-2.572 2.587 76.2 76.2 0 0 0-5.3 17.613 78.517 78.517 0 0 0-1.122 11.461Z"/><path class="cls-1" d="M471.983 649.073a3.384 3.384 0 0 1-1.407-.306l-5.448-2.475v-.056a79.131 79.131 0 0 1 1.122-11.473 76.722 76.722 0 0 1 5.308-17.632 5.152 5.152 0 0 1 2.615-2.63l1.536-.695 7.184 5.1-8.455 29.55-1.415.453a3.408 3.408 0 0 1-1.04.164Zm-6.683-2.888 5.347 2.428a3.216 3.216 0 0 0 2.325.135l1.329-.425 2.718-9.5 5.679-19.85-7.007-4.973-1.447.654a4.981 4.981 0 0 0-2.529 2.544 76.534 76.534 0 0 0-5.3 17.593 79.027 79.027 0 0 0-1.115 11.394Z"/><path class="cls-2" d="M531.839 624.346a3.375 3.375 0 0 1-1.692 1.107c-1.185.436-3.048.9-3.839 1.173-.173.059-.353.1-.533.146a.845.845 0 0 0-.089.03.706.706 0 0 0-.089.039.911.911 0 0 0-.156.1l-.008.009a.477.477 0 0 0-.066.061.9.9 0 0 0-.065.071c-.088.109-.174.217-.264.324a44.082 44.082 0 0 1-6.957 6.81l-.149.117-.3.229a32.285 32.285 0 0 1-2.22 1.539c-.077.049-.153.1-.229.142a23.38 23.38 0 0 1-1.26.731c-.034.018-.069.037-.105.054a5.2 5.2 0 0 1-3.421.436 5.1 5.1 0 0 1-.649-.189l-.261-.1q-.26-.1-.514-.2a.252.252 0 0 0-.029-.012l-.349-.143q-.44-.183-.854-.381l-.02-.01-.273-.134-.044-.022q-.232-.117-.456-.241l2.452-4.632 1.032-1.957a26.67 26.67 0 0 1 6.654-5.417 2.077 2.077 0 0 0 .99-1.87c0-1.307-1.253-2.326-1.561-3.051-1.077-2.521 3.5-3.56 4.89.3l8.907 3.365a2.668 2.668 0 0 1 1.439.586.729.729 0 0 1 .088.99Z"/><g class="cls-11"><path class="cls-1" d="M531.839 624.23a3.375 3.375 0 0 1-1.692 1.107c-1.185.436-3.048.9-3.839 1.173-.173.06-.353.1-.533.146a.849.849 0 0 0-.089.031.706.706 0 0 0-.089.039 1.091 1.091 0 0 0-.156.1l-.008.009a.757.757 0 0 0-.066.061c-.022.022-.043.046-.065.071-.086.108-.172.217-.261.324a.9.9 0 0 0-.578.334 40.158 40.158 0 0 1-6.379 6.475l-.149.117-.3.229-.117.088q-1.037.783-2.1 1.451c-.077.049-.153.1-.229.142a23.46 23.46 0 0 1-1.26.731q-.051.029-.105.054a5.1 5.1 0 0 1-3.421.436 4.932 4.932 0 0 1-.649-.188l-.261-.1q-.26-.1-.514-.2a.252.252 0 0 0-.029-.012l-.349-.142-.371-.161a15.23 15.23 0 0 1-.481-.223l-.02-.01-.273-.134-.044-.022-.456-.224v-.017l.155-3.034a1.743 1.743 0 0 0-1.582-1.823l-.066-1.7-.241-1.551 4.182 3.468.615.512a1.613 1.613 0 0 0 1.8.173L522 626.39s-.424-1.271 1.356-1.441c1.743-.166 5.191.856 8.393-1.709a1.924 1.924 0 0 0 .09.99Z"/></g><path class="cls-2" d="m512.123 627.692-.017.036-2.053 4.1-.043.083-2.224 4.441-.047.1-.337-.166-1.274-.622-.381 1.132-2.358 6.994a9.773 9.773 0 0 1-4.126 5.784l-17.419-3.514-6.144-14.615.05-.308.435-2.692 2.385-7.574.9-2.872 10.54 1.587 10.775 1.624 5.339.8c.072.055.143.113.216.172a61.293 61.293 0 0 1 5.783 5.51Z"/><g class="cls-11"><path class="cls-1" d="m510.053 631.829-.043.083-2.224 4.441-.045-.022-.02-.011-.273-.134-.044-.022-.456-.223v-.021l.155-3.034a1.743 1.743 0 0 0-1.582-1.822l-.066-1.7-.241-1.551 4.182 3.468.615.512c.013.015.027.025.042.036Z"/></g><g class="cls-11"><path class="cls-1" d="m465.214 646.239 5.4 2.451a3.315 3.315 0 0 0 2.387.139l1.372-.439 2.731-9.541a41.49 41.49 0 0 1-10.766-4.071 78.517 78.517 0 0 0-1.124 11.461Z"/></g><path class="cls-2" d="m466.457 655.521.615 5.932.775 7.448a1.354 1.354 0 0 0 1.31 1.216c4.779.13 6.508-2.765 5.862-8.013l9.333-1.094a7.465 7.465 0 0 0 5.308-3.178c.059-.087.117-.175.173-.263l-13.3-6.281-.451.107-8.044 1.9a2.063 2.063 0 0 0-1.581 2.226Z"/><path class="cls-1" d="M469.457 670.206h-.3a1.443 1.443 0 0 1-1.393-1.291l-1.39-13.38a2.154 2.154 0 0 1 1.647-2.317l8.523-2.014.027.013 13.387 6.321-.051.082c-.057.088-.115.177-.175.265a7.537 7.537 0 0 1-5.368 3.214l-9.249 1.084c.351 2.958-.077 5.124-1.272 6.439a5.659 5.659 0 0 1-4.386 1.584Zm7.066-18.828-8.465 2a1.983 1.983 0 0 0-1.517 2.134l1.39 13.379a1.273 1.273 0 0 0 1.228 1.14 5.665 5.665 0 0 0 4.556-1.529c1.172-1.29 1.583-3.439 1.22-6.389l-.011-.085 9.419-1.1a7.369 7.369 0 0 0 5.247-3.142 6.98 6.98 0 0 0 .12-.179Z"/><path class="cls-2" d="M472.9 643.309c.654 7.379 6.412 12.1 16.905 13.484a1.885 1.885 0 0 0 .567 1.7l.756 11.847a2.879 2.879 0 0 0 2.581 2.675 28.483 28.483 0 0 0 10.6-.819 29.6 29.6 0 0 0 3.631-1.249 1.611 1.611 0 0 0 .993-1.58c-.185-2.8-2.812-5.485-6.975-4.631l-.39-9.445a8.787 8.787 0 0 0-1.214-4.148c-2.205-3.687-5.774-6.157-11.831-6.41l-10.372-10.7-2.458-2.537-.285-.294a31.281 31.281 0 0 0-2.327 7.647c0 .017-.006.036-.009.053v.008a18.39 18.39 0 0 0-.172 4.399Z"/><g class="cls-11"><path class="cls-1" d="m467.072 661.453.775 7.448a1.354 1.354 0 0 0 1.31 1.216c4.779.13 6.508-2.765 5.862-8.013l9.333-1.094a7.465 7.465 0 0 0 5.308-3.178c.059-.087.117-.175.173-.263l-13.3-6.281-.451.107s1.363 4.876 5.9 5.616l-7.938.909c-2.029 7.794-4.338 9.361-6.972 3.533Z"/></g><path class="cls-1" d="M471.984 649.582a3.9 3.9 0 0 1-1.618-.352l-5.4-2.451a.6.6 0 0 1-.348-.556 77.662 77.662 0 0 1 6.473-29.3 5.669 5.669 0 0 1 2.87-2.89l1.493-.674a.593.593 0 1 1 .488 1.081l-1.492.674a4.486 4.486 0 0 0-2.272 2.284 76.44 76.44 0 0 0-6.362 28.459l5.037 2.289a2.723 2.723 0 0 0 1.961.114l1.372-.439a.593.593 0 1 1 .362 1.13l-1.372.44a3.914 3.914 0 0 1-1.192.191Z"/><path class="cls-2" d="M483.729 627.184c-.139.193-.287.38-.443.557-1.6 1.831-4.105 2.848-7.186 3.342l-.35.054-1.811.285a20.31 20.31 0 0 0-3.263 7.247 3.186 3.186 0 0 1 1.324 4.042v.009a5.794 5.794 0 0 1-.46.9 2.733 2.733 0 0 1-.439.553l-.008.009a2.2 2.2 0 0 1-.563.4c-.514.249-1.112.551-1.137.782-.033.3-.35.6-.867.827a3.922 3.922 0 0 1-.922.264 4.7 4.7 0 0 1-2.426-.23 5.054 5.054 0 0 1-2.11-1.49c-.178-.212-1.033-.477-1.177-.719a7.888 7.888 0 0 1-.881-2.124c-.77-3.029.28-6.306 1.651-9.446a23.075 23.075 0 0 1 3.794-5.96 24.136 24.136 0 0 1 7.442-5.711l2.824-1.4 2.763-1.37 2.239 4.835Z"/><g class="cls-11"><path class="cls-1" d="M483.286 627.741c-1.6 1.831-4.105 2.848-7.186 3.342l-.35.054-1.811.285a20.31 20.31 0 0 0-3.263 7.247 3.186 3.186 0 0 1 1.324 4.042v.009a5.951 5.951 0 0 1-.548 1.044 4.381 4.381 0 0 1-.355.416 2.2 2.2 0 0 1-.563.4c-.514.249-1.112.551-1.137.782-.033.3-.35.6-.867.827a3.922 3.922 0 0 1-.922.264 4.7 4.7 0 0 1-2.426-.23 5.054 5.054 0 0 1-2.11-1.49c-.178-.212-1.033-.477-1.177-.719a7.888 7.888 0 0 1-.881-2.124 5.754 5.754 0 0 1 .268.59c1.271 3.221 6.611 2.458 6.611.212s1.356-1.484.6-2.8a3 3 0 0 1 0-2.707 21.531 21.531 0 0 1 4.424-7.993 4.123 4.123 0 0 1 3.7-1.2 15.608 15.608 0 0 0 6.669-.251Z"/></g><path class="cls-1" d="M477.574 619.45a.509.509 0 0 1-.389-.181 8.464 8.464 0 0 0-4.967-2.668.508.508 0 1 1 .115-1.01 9.4 9.4 0 0 1 5.63 3.023.508.508 0 0 1-.389.836Z"/><g class="cls-11"><path class="cls-1" d="M476.711 619.369q.892.795 1.859 1.5a24.881 24.881 0 0 0 3.143 1.963A25.168 25.168 0 0 0 511.7 617.9a25.113 25.113 0 0 1-10.911 3.306 27.13 27.13 0 0 1-1.694.054 25.234 25.234 0 0 1-9.081-1.678L479.474 618Z"/></g><path class="cls-1" d="M483.935 627.331a8.017 8.017 0 0 1-1.986 2.026 11.351 11.351 0 0 1-2.5 1.333 17.889 17.889 0 0 1-2.7.8c-.462.1-.913.18-1.361.266l-1.351.254.388-.237a18.278 18.278 0 0 0-1.925 3.354 21.806 21.806 0 0 0-1.242 3.684l-.223-.616a4.94 4.94 0 0 1 1.459 1.623 3.387 3.387 0 0 1 .363 1.106 3.47 3.47 0 0 1-.028 1.156 4.555 4.555 0 0 1-.341 1.057 5.973 5.973 0 0 1-.246.478c-.045.077-.089.153-.137.227l-.071.113-.1.135a2.708 2.708 0 0 1-.968.769 2.429 2.429 0 0 1-.6.2 1.735 1.735 0 0 1-.736-.014l.736-.65a2.486 2.486 0 0 1-.038.914 1.817 1.817 0 0 1-.511.881 2.541 2.541 0 0 1-.767.488 4.964 4.964 0 0 1-.758.244 8.778 8.778 0 0 1-.75.143 5.048 5.048 0 0 1-.793.037 6.532 6.532 0 0 1-1.517-.236 7.773 7.773 0 0 1-2.7-1.342 5.582 5.582 0 0 1-1.093-1.114 4.337 4.337 0 0 1-.221-.337l-.185-.327a9.194 9.194 0 0 1-.325-.679 8.32 8.32 0 0 1-.65-2.922 11.384 11.384 0 0 1 .288-2.929 20.512 20.512 0 0 1 .839-2.754c.338-.893.7-1.752 1.091-2.621a23.974 23.974 0 0 1 7.064-8.9 24.735 24.735 0 0 1 2.355-1.631c.408-.247.821-.488 1.243-.711.21-.115.424-.221.636-.329l.628-.312 5.013-2.485a.593.593 0 0 1 .527 1.063l-5.013 2.485-.625.311c-.2.1-.407.2-.606.314-.4.212-.8.441-1.185.677a23.355 23.355 0 0 0-2.242 1.553 22.785 22.785 0 0 0-6.716 8.461 27.9 27.9 0 0 0-1.851 5.137 10.171 10.171 0 0 0-.26 2.622 7.125 7.125 0 0 0 .556 2.509c.084.2.179.391.279.583l.159.282c.053.086.1.166.163.247a4.372 4.372 0 0 0 .862.874 6.589 6.589 0 0 0 2.28 1.132 5.4 5.4 0 0 0 1.24.2 3.751 3.751 0 0 0 .6-.028 5.511 5.511 0 0 0 .624-.119 2.256 2.256 0 0 0 .983-.435.617.617 0 0 0 .182-.312 1.342 1.342 0 0 0 .012-.476v-.031a.573.573 0 0 1 .5-.64.584.584 0 0 1 .24.021.927.927 0 0 0 .535-.108 1.555 1.555 0 0 0 .537-.421l.044-.062.058-.092c.04-.062.076-.125.113-.187.072-.126.137-.254.2-.382a3.332 3.332 0 0 0 .253-.78 2.229 2.229 0 0 0-.218-1.494 3.794 3.794 0 0 0-1.117-1.223l-.009-.006a.6.6 0 0 1-.214-.61 22.98 22.98 0 0 1 1.31-3.886 19.5 19.5 0 0 1 2.05-3.57.6.6 0 0 1 .388-.237l1.363-.171c.455-.058.91-.11 1.348-.177a16.978 16.978 0 0 0 2.6-.595 10.581 10.581 0 0 0 2.407-1.1 7.439 7.439 0 0 0 1.953-1.761.254.254 0 0 1 .413.3Z"/><path class="cls-1" d="m473.386 631.207 1.3-2.421a.256.256 0 0 1 .474.184l-.67 2.666a.6.6 0 1 1-1.159-.292.628.628 0 0 1 .055-.137Z"/><path class="cls-2" d="M475.632 631.156c3.161 2.046 7.532 3.009 12.641 3.312a.924.924 0 0 1 .868.976l-.148 2.542a.927.927 0 0 1-.957.871c-5.839-.195-10.7-1.358-13.989-4.08"/><path class="cls-1" d="M488.067 638.943h-.034c-6.371-.213-10.963-1.554-14.04-4.1l.108-.131c3.047 2.522 7.606 3.85 13.938 4.062a.841.841 0 0 0 .87-.792l.148-2.542a.842.842 0 0 0-.789-.887c-5.588-.331-9.736-1.418-12.681-3.325l.092-.143c2.92 1.891 7.041 2.97 12.6 3.3a1.011 1.011 0 0 1 .948 1.066l-.148 2.541a1.019 1.019 0 0 1-1.012.951Z"/><path class="cls-1" d="M475.946 631.428a37.722 37.722 0 0 0-1.522 4.163 24.417 24.417 0 0 0-.89 4.306 16.268 16.268 0 0 0 .08 4.338 11.715 11.715 0 0 0 4.11 7.338 16.173 16.173 0 0 0 3.662 2.322 24.183 24.183 0 0 0 4.144 1.466 37.221 37.221 0 0 0 4.351.843l.5.732c0-.013 0-.006 0 0v.044c0 .022 0 .048-.006.073a1.38 1.38 0 0 0 0 .157 1.309 1.309 0 0 0 .207.6 1.7 1.7 0 0 0 .21.262l.016.018a.586.586 0 0 1 .156.363l.668 10.474.084 1.309c0 .059.008.1.013.143l.014.13c.021.084.029.171.057.253a2.3 2.3 0 0 0 .193.48 2.32 2.32 0 0 0 .688.77 2.292 2.292 0 0 0 .958.392l.129.02.159.015.32.029c.214.018.427.042.641.052l.642.038c.214.012.428.014.642.021.429.018.857 0 1.285.006.428-.017.857-.024 1.283-.059.855-.052 1.706-.153 2.551-.289s1.684-.314 2.513-.526 1.647-.471 2.456-.755l.6-.221.6-.238.149-.06c.048-.019.107-.042.131-.054a1.084 1.084 0 0 0 .18-.105 1.049 1.049 0 0 0 .279-.307.957.957 0 0 0 .133-.384.864.864 0 0 0 0-.211l-.035-.286-.017-.143-.033-.141-.064-.281c-.024-.093-.062-.183-.092-.275a1.991 1.991 0 0 0-.1-.27 4.662 4.662 0 0 0-1.4-1.816 4.841 4.841 0 0 0-2.127-.908 6.621 6.621 0 0 0-2.387.06h-.03a.594.594 0 0 1-.676-.5q0-.033-.006-.066l-.287-6.97-.078-1.738c-.013-.286-.022-.59-.038-.862s-.046-.542-.089-.81a8.1 8.1 0 0 0-1.12-3.025 13.769 13.769 0 0 0-2.037-2.626 11.323 11.323 0 0 0-2.676-1.971 13.6 13.6 0 0 0-3.15-1.206 21.69 21.69 0 0 0-3.383-.56.255.255 0 0 1 .025-.508 19.8 19.8 0 0 1 3.528.321 14.33 14.33 0 0 1 3.419 1.089 12.421 12.421 0 0 1 3.012 2.021 12.905 12.905 0 0 1 2.312 2.8 9.067 9.067 0 0 1 1.258 3.483c.046.307.075.615.091.924l.037.88.072 1.743.287 6.971-.712-.557a7.8 7.8 0 0 1 2.828-.066 6 6 0 0 1 2.647 1.137 5.835 5.835 0 0 1 1.771 2.292 2.93 2.93 0 0 1 .129.342c.038.116.084.23.115.348l.083.358.04.179.023.182.043.365c.008.058.007.146.009.218s0 .151-.017.226a2.16 2.16 0 0 1-.292.846 2.248 2.248 0 0 1-.6.657 2.283 2.283 0 0 1-.386.224c-.075.036-.118.051-.172.073l-.155.062-.621.248-.628.23a29.16 29.16 0 0 1-5.179 1.334c-.883.136-1.77.247-2.661.3-.445.037-.891.044-1.337.061-.446 0-.893.013-1.339-.006-.223-.007-.446-.009-.668-.021l-.668-.04c-.223-.01-.445-.036-.667-.055l-.333-.03-.167-.016-.2-.029a3.46 3.46 0 0 1-2.789-2.5c-.04-.126-.058-.258-.086-.387l-.022-.2a3.122 3.122 0 0 1-.016-.183l-.084-1.31-.668-10.473.172.382a2.883 2.883 0 0 1-.37-.462 2.451 2.451 0 0 1-.264-.545 2.379 2.379 0 0 1-.125-.6 2.629 2.629 0 0 1-.007-.308c0-.052.006-.1.013-.159 0-.026.007-.054.012-.083l.007-.045.013-.061.5.732a38.7 38.7 0 0 1-4.5-.871 25.3 25.3 0 0 1-4.345-1.54 17.335 17.335 0 0 1-3.93-2.494 12.9 12.9 0 0 1-4.511-8.053 17.518 17.518 0 0 1-.088-4.652 25.6 25.6 0 0 1 .931-4.514 39.238 39.238 0 0 1 1.573-4.3.594.594 0 0 1 1.091.468Z"/><path class="cls-2" d="m488.811 643.04 3.685.188h.041l4.65.238 7.616.39h.025a1.74 1.74 0 0 0 1.8-1.65L507.1 633a1.742 1.742 0 0 0-1.65-1.828l-13.059-.668-2.931-.149a1.74 1.74 0 0 0-1.827 1.65l-.472 9.206a1.739 1.739 0 0 0 1.65 1.829Z"/><path class="cls-1" d="M504.893 644.441h-.12l-15.992-.818a2.32 2.32 0 0 1-2.2-2.436l.122-2.386a.58.58 0 1 1 1.159.059l-.122 2.387a1.159 1.159 0 0 0 1.1 1.216l15.993.819a1.159 1.159 0 0 0 1.219-1.1l.471-9.206a1.162 1.162 0 0 0-1.1-1.218l-15.992-.817a1.162 1.162 0 0 0-1.218 1.1l-.124 2.409a.58.58 0 0 1-1.159-.059l.124-2.409a2.323 2.323 0 0 1 2.437-2.2l15.992.817a2.321 2.321 0 0 1 2.2 2.436l-.471 9.207a2.324 2.324 0 0 1-2.319 2.199Z"/><path class="cls-1" d="M504.829 644.367h-.029l-12.291-.627h-.037a2.271 2.271 0 0 1-2.106-2.373l.478-9.369a2.253 2.253 0 0 1 1.339-1.952.509.509 0 1 1 .415.929 1.243 1.243 0 0 0-.739 1.075l-.478 9.369a1.25 1.25 0 0 0 1.159 1.306h.021l12.291.628a.508.508 0 0 1-.025 1.016Z"/><g class="cls-11"><path style="fill:#462b5b" d="m504.828 643.859-7.641-.39 7.616.39h.025z"/><path class="cls-1" d="M504.828 643.943h-.025l-7.621-.39.009-.169 7.642.39-.005.169z"/></g><g class="cls-11"><path class="cls-1" d="m488.811 643.04 3.685.188a1.752 1.752 0 0 1-1.621-1.838l.478-9.369a1.761 1.761 0 0 1 1.038-1.514l-2.931-.149a1.74 1.74 0 0 0-1.827 1.65l-.124 2.409q.378.027.764.05a.925.925 0 0 1 .868.977l-.147 2.541a.93.93 0 0 1-.958.873c-.253-.009-.5-.019-.753-.031l-.122 2.387a1.739 1.739 0 0 0 1.65 1.826Z"/></g><path class="cls-1" d="M498.519 643.943h-.019a.414.414 0 0 1-.39-.438l.309-5.382a1.259 1.259 0 0 1 .622-1.016l1.878-1.107a.432.432 0 0 0 .214-.352l.235-4.69a.415.415 0 0 1 .828.041l-.235 4.69a1.261 1.261 0 0 1-.622 1.026l-1.884 1.106a.433.433 0 0 0-.213.349l-.309 5.382a.416.416 0 0 1-.414.391ZM488.067 639.451h-.051c-6.488-.216-11.181-1.6-14.347-4.216a.593.593 0 1 1 .757-.914c2.956 2.447 7.414 3.737 13.63 3.944a.336.336 0 0 0 .345-.313l.148-2.541a.332.332 0 0 0-.311-.35c-5.678-.336-9.907-1.45-12.928-3.406a.593.593 0 0 1 .645-1c2.844 1.841 6.885 2.894 12.353 3.217a1.521 1.521 0 0 1 1.426 1.6l-.148 2.541a1.531 1.531 0 0 1-1.519 1.438ZM504.744 625.611a5.053 5.053 0 0 1 .313.667c.09.224.165.45.239.678a13.14 13.14 0 0 1 .34 1.389c.094.468.155.94.21 1.413.025.236.042.473.064.711l.039.712a.5.5 0 1 1-1 .055.417.417 0 0 1 0-.05v-.016l.032-.681c0-.227.01-.455.008-.683-.006-.454-.018-.91-.061-1.361a12.7 12.7 0 0 0-.188-1.348 11.9 11.9 0 0 0-.159-.658 4.911 4.911 0 0 0-.214-.621l-.007-.016a.212.212 0 0 1 .379-.191ZM499.263 650.163a.594.594 0 0 1-.306-1.1 9.194 9.194 0 0 0 3.852-5.4.593.593 0 1 1 1.16.249 10.3 10.3 0 0 1-4.4 6.168.6.6 0 0 1-.306.083ZM512.031 628.2a.587.587 0 0 1-.431-.186 56.331 56.331 0 0 0-5.84-5.534.593.593 0 0 1 .736-.931 57.231 57.231 0 0 1 5.965 5.65.594.594 0 0 1-.43 1Z"/><path class="cls-1" d="M510.238 629.274a13.851 13.851 0 0 1 1.752-2.209c.328-.339.673-.663 1.029-.974s.73-.6 1.117-.871a41.644 41.644 0 0 1 2.359-1.532l.294-.18.105-.07.1-.076a1.32 1.32 0 0 0 .3-.37 1.543 1.543 0 0 0 .159-.47 1.982 1.982 0 0 0 .021-.524 2.484 2.484 0 0 0-.4-1.027c-.219-.352-.5-.688-.79-1.1a4.043 4.043 0 0 1-.218-.347 2.187 2.187 0 0 1-.1-.212 3.534 3.534 0 0 1-.076-.2 2.271 2.271 0 0 1-.116-.919 1.936 1.936 0 0 1 .335-.927 2.147 2.147 0 0 1 .7-.635 2.933 2.933 0 0 1 1.672-.359 3.588 3.588 0 0 1 1.565.489 4.089 4.089 0 0 1 1.2 1.072 5.181 5.181 0 0 1 .731 1.373.593.593 0 1 1-1.116.4 3.361 3.361 0 0 0-1.409-1.821 2.413 2.413 0 0 0-1.049-.331 1.767 1.767 0 0 0-.994.2.819.819 0 0 0-.447.642 1.094 1.094 0 0 0 .061.442c.012.04.029.079.044.119a.993.993 0 0 0 .048.1 2.662 2.662 0 0 0 .151.238c.24.342.552.716.821 1.147a3.62 3.62 0 0 1 .579 1.531 3.185 3.185 0 0 1-.032.853 2.72 2.72 0 0 1-.285.832 2.511 2.511 0 0 1-.564.7l-.174.138-.183.121-.3.182a26.725 26.725 0 0 0-2.243 1.527c-.721.54-1.428 1.088-2.131 1.655s-1.392 1.159-2.123 1.731a.257.257 0 0 1-.377-.34Z"/><path class="cls-1" d="m518.661 622.3-.661 3.311a.256.256 0 0 1-.507-.05l-.009-3.379a.6.6 0 0 1 1.193 0 .676.676 0 0 1-.016.118ZM511.485 638.177a5.678 5.678 0 0 1-1.941-.341 19.837 19.837 0 0 1-2.887-1.278.593.593 0 1 1 .578-1.036 18.632 18.632 0 0 0 2.714 1.2 4.572 4.572 0 0 0 3.731-.289 39.928 39.928 0 0 0 11.159-9.718 1.5 1.5 0 0 1 .785-.516l.158-.04c.119-.03.231-.058.332-.093.344-.119.854-.265 1.444-.433.8-.229 1.712-.488 2.385-.735 1.232-.453 1.463-.925 1.455-1.018-.007-.066-.238-.368-1.187-.523a.593.593 0 0 1 .192-1.171c1.791.293 2.132 1.117 2.176 1.582.083.876-.729 1.693-2.227 2.244-.714.262-1.646.528-2.468.762-.55.157-1.069.3-1.381.413-.15.052-.293.088-.432.123l-.143.036a.317.317 0 0 0-.161.109 41.214 41.214 0 0 1-11.522 10.022 5.8 5.8 0 0 1-2.76.7Z"/><path class="cls-1" d="M526.06 627.3a7.542 7.542 0 0 1-1.724-.064 7.9 7.9 0 0 1-1.606-.47.171.171 0 0 1 .08-.329 7.372 7.372 0 0 0 1.558.038 6.53 6.53 0 0 0 1.468-.339.6.6 0 1 1 .385 1.134.615.615 0 0 1-.151.031ZM519.282 633.727c-2.91-.006-6.293-3.449-6.7-6.822a.509.509 0 0 1 1.01-.122c.343 2.82 3.323 5.922 5.7 5.927a.509.509 0 1 1 0 1.017ZM497.234 671.473a17.792 17.792 0 0 1-6.316-1.007.509.509 0 0 1 .368-.949c5.178 2.006 13.384.5 17.316-1.361a.508.508 0 0 1 .435.919 30.343 30.343 0 0 1-11.803 2.398ZM502.046 665.317c-.1 0-.247.022-.374.041s-.263.044-.4.071a7.168 7.168 0 0 0-.781.214 5.906 5.906 0 0 0-.752.308 5.3 5.3 0 0 0-.705.413l-.012.008a.255.255 0 0 1-.322-.392 6.1 6.1 0 0 1 .679-.6 6.671 6.671 0 0 1 .76-.5 7.822 7.822 0 0 1 .819-.41c.142-.06.284-.117.43-.17s.285-.1.464-.147h.015a.6.6 0 1 1 .3 1.157.591.591 0 0 1-.121.007ZM490.369 659a.509.509 0 0 1-.26-.946c2.955-1.751 9.215-3.1 11.81-1.375a.509.509 0 0 1-.563.847c-2.03-1.349-7.765-.354-10.729 1.4a.5.5 0 0 1-.258.074ZM489.378 656.378l1.839-1.4a.257.257 0 0 1 .364.355l-1.353 1.875a.6.6 0 0 1-.973-.7.64.64 0 0 1 .123-.13Z"/><path class="cls-1" d="M469.459 670.714h-.318a1.955 1.955 0 0 1-1.885-1.747l-1.39-13.381a2.667 2.667 0 0 1 2.035-2.865l8.5-2.006a.593.593 0 0 1 .273 1.155l-8.5 2.006a1.478 1.478 0 0 0-1.128 1.587l1.391 13.381a.765.765 0 0 0 .736.684 5.2 5.2 0 0 0 4.166-1.363c1.068-1.174 1.436-3.188 1.092-5.985a.593.593 0 0 1 .52-.662l9.332-1.093a6.86 6.86 0 0 0 4.886-2.923 9.65 9.65 0 0 0 .164-.248.593.593 0 1 1 1 .637c-.059.094-.121.187-.183.279a8.048 8.048 0 0 1-5.729 3.433l-8.749 1.026c.261 2.855-.227 4.985-1.455 6.335a6.135 6.135 0 0 1-4.758 1.75Z"/><path class="cls-1" d="M482.051 661.788a.5.5 0 0 1-.172-.03.508.508 0 0 1-.306-.65c.558-1.554-.276-5.149-.644-6.4a.508.508 0 1 1 .975-.287c.058.2 1.411 4.85.626 7.034a.509.509 0 0 1-.479.333ZM474.44 662.229l-.165-2.359a.257.257 0 0 1 .5-.107l.828 2.215a.6.6 0 0 1-1.124.419.616.616 0 0 1-.039-.168ZM470.045 670.617a.508.508 0 0 1-.506-.457l-1.692-16.83a.509.509 0 1 1 1.012-.1l1.692 16.83a.508.508 0 0 1-.455.557.435.435 0 0 1-.051 0ZM471.735 649.486h-.046a.508.508 0 0 1-.461-.552 121.9 121.9 0 0 1 1.734-12.153.508.508 0 1 1 .993.218 120.543 120.543 0 0 0-1.714 12.026.509.509 0 0 1-.506.461ZM472.833 633.644a.507.507 0 0 1-.421-.223c-.136-.2-3.367-4.842-8.122-3.332a.508.508 0 1 1-.308-.969c5.484-1.741 9.234 3.675 9.271 3.73a.509.509 0 0 1-.42.794Z"/><g class="cls-11"><path class="cls-1" d="M489.8 656.793a1.885 1.885 0 0 0 .567 1.7l.756 11.847a2.879 2.879 0 0 0 2.581 2.675 28.483 28.483 0 0 0 10.6-.819l-.022.006c-8.268 1.785-9.491-5.389-9.491-5.389s-1.187-7.968-.879-10.015a3.314 3.314 0 0 0-.689-2.953c-.841-.121-1.228-.548-.609-1.653-12.8.546-17.631-10.154-14.468-18.164a12.824 12.824 0 0 1 3.7-5.145 17.868 17.868 0 0 1-6.144 2.567l-.013.041-2.612 7.353-.007.019v.042c-.013.309-.1 2.258-.169 4.409.65 7.374 6.408 12.095 16.899 13.479Z"/></g><ellipse class="cls-1" cx="495.68" cy="681.689" rx="25.272" ry="3.305" style="opacity:.2"/><ellipse class="cls-2" cx="495.801" cy="599.703" rx="24.966" ry="24.58" transform="rotate(-4.487 495.765 599.651)"/><path class="cls-1" d="M495.7 624.372a25.031 25.031 0 0 1-16.193-5.9 24.4 24.4 0 0 1-2.729-34.775 25.329 25.329 0 0 1 35.322-2.767 24.4 24.4 0 0 1 2.728 34.775 25.083 25.083 0 0 1-17.094 8.587c-.683.054-1.361.08-2.034.08Zm.2-49.168q-1 0-2.017.079a24.915 24.915 0 0 0-16.979 8.53 24.226 24.226 0 0 0 2.71 34.534 25.16 25.16 0 0 0 35.08-2.753 24.226 24.226 0 0 0-2.71-34.534 24.86 24.86 0 0 0-16.084-5.86Z"/><g class="cls-11"><path class="cls-1" d="M471.067 601.474a24.776 24.776 0 0 0 26.812 22.552 25.069 25.069 0 0 0 17.584-9.214 25.135 25.135 0 0 1-12.3 4.336 24.776 24.776 0 0 1-26.817-22.548 24.275 24.275 0 0 1 5.384-17.244 24.5 24.5 0 0 0-10.663 22.118Z"/></g><g class="cls-11"><path class="cls-1" d="M480.577 609.8c6.39 9.982 20.684 12.58 30.284 9.409a24.441 24.441 0 0 0 7.094-8.019c2.682-4.982 3.355-10.857 2.266-17.515-7.008-10.542-27.939-8.245-36.993 2.382a18.754 18.754 0 0 0-1.947 2.733Z"/><g style="clip-path:url(#clip-path)"><path class="cls-15" d="M505.022 609.988a9.6 9.6 0 0 0-.01 1.187 9.705 9.705 0 0 0 14.07 8.148 52.054 52.054 0 0 1-14.06-9.335Z"/><path class="cls-16" d="m516.364 620.377.038-.158.1-.131-.027-.021-.033-.008a30.035 30.035 0 0 1-11.068-7.336l-.263.2a23.467 23.467 0 0 0 5.193 4.357 23.171 23.171 0 0 0 6.06 3.097ZM511.671 615.229a48.6 48.6 0 0 1-6.649-5.241 9.6 9.6 0 0 0-.01 1.187 42.03 42.03 0 0 0 6.225 4.9 43.35 43.35 0 0 0 6.7 3.743 9.642 9.642 0 0 0 1.147-.49 48.658 48.658 0 0 1-7.413-4.099Z"/><g class="cls-11"><path class="cls-1" d="M505.022 608.644a9.7 9.7 0 0 0 11.38 10.231 9.779 9.779 0 0 0 1.533-.406 9.642 9.642 0 0 0 1.147-.49 51.992 51.992 0 0 1-14.06-9.335Z"/></g><g class="cls-17"><path class="cls-3" d="M506.012 605.053c.059.066.12.133.185.2a5.89 5.89 0 0 1-.16-.25Z"/></g><path class="cls-15" d="M506.618 605.308a9.754 9.754 0 0 0-.606 1.047A54.567 54.567 0 0 0 522.046 617a9.748 9.748 0 0 0 .73-.964l.031-.048q.148-.227.282-.457a9.544 9.544 0 0 0 .551-1.1l.019-.046a9.7 9.7 0 0 0-15.79-10.6l-.1.1a9.7 9.7 0 0 0-.8.936c-.093.123-.184.25-.271.379a.81.81 0 0 0-.08.108Z"/><path class="cls-2" d="M505.531 595.5c0 1.238 0 1.6-1.377 1.6 1.382 0 1.377.305 1.377 1.636 0-1.331 0-1.636 1.377-1.636-1.382 0-1.377-.36-1.377-1.6ZM491.61 604.065c0 1.237 0 1.594-1.377 1.594 1.382 0 1.377.305 1.377 1.636 0-1.331 0-1.636 1.377-1.636-1.382 0-1.377-.359-1.377-1.594ZM493.86 591.655a.423.423 0 1 1-.423-.423.423.423 0 0 1 .423.423Z"/><circle class="cls-2" cx="488.895" cy="597.348" r=".389"/><path class="cls-2" d="M500.938 591.292a.485.485 0 1 1-.485-.484.485.485 0 0 1 .485.484Z"/><circle class="cls-2" cx="497.35" cy="599.231" r=".315"/><path class="cls-2" d="M486.545 610.375a.31.31 0 1 1-.31-.311.31.31 0 0 1 .31.311Z"/><circle class="cls-2" cx="507.764" cy="610.316" r=".425"/><path class="cls-2" d="M513.749 614.971a.475.475 0 1 1-.475-.474.475.475 0 0 1 .475.474Z"/><circle class="cls-2" cx="498.116" cy="612.155" r=".407"/><path class="cls-2" d="M514.535 609.224a.173.173 0 1 1-.173-.172.173.173 0 0 1 .173.172Z"/><circle class="cls-2" cx="488.846" cy="614.18" r=".407"/><path class="cls-16" d="M506.69 605.2a2.47 2.47 0 0 0-.072.106 9.754 9.754 0 0 0-.606 1.047A54.567 54.567 0 0 0 522.046 617a9.748 9.748 0 0 0 .73-.964l.031-.048a36.427 36.427 0 0 1-8.541-4.479c-3.607-2.395-6.478-4.823-7.576-6.309ZM524.153 613l.071-.65c-1.315-.145-4.551-1.784-7.868-3.987-3.958-2.627-6.416-4.929-6.8-5.845l-.6.252c.506 1.212 3.335 3.678 7.039 6.138 3.449 2.292 6.727 3.932 8.158 4.092ZM524.205 609.663l.2-.623a30.119 30.119 0 0 1-6.268-3.36 28.642 28.642 0 0 1-5.634-4.6l-.508.411a29.253 29.253 0 0 0 5.78 4.73 30.8 30.8 0 0 0 6.43 3.442Z"/><path class="cls-16" d="m523.608 614.7.1-.646c-1.5-.236-4.839-1.945-8.314-4.252-3.645-2.42-6.62-4.957-7.236-6.171l-.583.3c.672 1.325 3.669 3.9 7.457 6.42 3.604 2.39 6.968 4.099 8.576 4.349Z"/><path class="cls-1" d="M514.7 620.875a10.2 10.2 0 0 1-10.186-10.923.508.508 0 0 1 .859-.331 51.549 51.549 0 0 0 13.91 9.235.509.509 0 0 1 .028.921 10.218 10.218 0 0 1-4.611 1.098Zm-9.181-9.731a9.19 9.19 0 0 0 12.3 8.169 53.754 53.754 0 0 1-12.3-8.169Z"/><path class="cls-18" d="M501.274 603.409c-.786 1.184.758 3.712 3.748 6.579a52.054 52.054 0 0 0 14.06 9.335c3.8 1.643 6.732 2.084 7.518.9.713-1.074-.494-3.257-2.96-5.8a9.544 9.544 0 0 1-.551 1.1c.673.76.973 1.326.792 1.6s-.842.213-1.835-.128a54.567 54.567 0 0 1-16.034-10.645c-.7-.783-1.014-1.365-.83-1.641s.818-.215 1.779.109a9.7 9.7 0 0 1 .8-.936c-3.293-1.282-5.773-1.548-6.487-.473Z"/><path class="cls-19" d="M523.841 618.378a1.161 1.161 0 0 0 1.034-.412c.387-.583-.062-1.566-1.374-3.006l-.391.356c1.232 1.353 1.492 2.105 1.324 2.358-.282.424-2.064.157-5.313-1.433a56.907 56.907 0 0 1-11.274-7.485c-2.726-2.377-3.664-3.916-3.383-4.341.168-.253.962-.3 2.687.306l.177-.5c-1.837-.65-2.917-.682-3.3-.1-.7 1.047 1.506 3.315 3.475 5.032a57.371 57.371 0 0 0 11.39 7.561 14.106 14.106 0 0 0 4.948 1.664Z"/><path class="cls-19" d="M524.441 619.785a1.678 1.678 0 0 0 1.49-.593c.729-1.1-.82-3.116-2.247-4.616l-.383.364c2.092 2.2 2.5 3.487 2.189 3.96-.386.582-2.264.609-6.285-1.233a53.541 53.541 0 0 1-12.7-8.435c-3.259-2.99-3.963-4.732-3.576-5.314.313-.472 1.659-.594 4.5.481l.188-.5c-1.937-.733-4.4-1.377-5.127-.279-.947 1.426 1.886 4.37 3.659 6a54.192 54.192 0 0 0 12.841 8.526 15.874 15.874 0 0 0 5.451 1.639Z"/><g class="cls-11"><path class="cls-1" d="M525.448 619.073c-.785 1.183-3.714.74-7.517-.9a48.437 48.437 0 0 1-7.252-3.987c2.46.757 4.252.783 4.84-.1a1.306 1.306 0 0 0 .2-.771 32.032 32.032 0 0 0 5.174 2.539c.993.341 1.651.405 1.835.129a.371.371 0 0 0 .046-.258l.8-1.252c1.718 2.013 2.472 3.696 1.874 4.6Z"/></g><path class="cls-1" d="M524.825 621.4a17.265 17.265 0 0 1-5.944-1.612 52.543 52.543 0 0 1-14.211-9.435c-1.966-1.886-5.078-5.332-3.82-7.227 1.084-1.632 4.459-.746 7.1.285a.509.509 0 0 1 .179.829 9.327 9.327 0 0 0-.762.887.507.507 0 0 1-.568.176 4.059 4.059 0 0 0-1.112-.255 4.218 4.218 0 0 0 .7.966 54.116 54.116 0 0 0 15.82 10.5 4.154 4.154 0 0 0 1.166.274 4.051 4.051 0 0 0-.669-.925.51.51 0 0 1-.058-.593 9.441 9.441 0 0 0 .522-1.046.509.509 0 0 1 .833-.157c1.975 2.034 4.1 4.8 3.019 6.433a2.478 2.478 0 0 1-2.195.9ZM501.7 603.691c-.486.731.462 2.848 3.676 5.93a51.549 51.549 0 0 0 13.91 9.235c4.087 1.765 6.406 1.818 6.892 1.086.37-.557-.063-2.089-2.392-4.623l-.078.15c.526.64.971 1.379.6 1.941-.433.652-1.523.38-2.424.071a54.969 54.969 0 0 1-16.248-10.787c-.635-.711-1.307-1.61-.875-2.262.373-.56 1.227-.438 2.021-.2l.107-.13c-3.239-1.163-4.819-.968-5.188-.41Z"/><g class="cls-11"><path class="cls-1" d="M504.956 605.3a54.584 54.584 0 0 0 16.035 10.646 10.21 10.21 0 0 0 .73-.965l.031-.048q.149-.227.282-.457a9.875 9.875 0 0 0 .551-1.1l.018-.046a9.61 9.61 0 0 0 .53-1.709 9.711 9.711 0 0 0-2.849-9.066 9.675 9.675 0 0 1 .087 7.619l-.019.046-.033.073c-.749 1.569-2.63 1.977-4.315 1.551-3.213-.811-9.665-5.743-11.027-6.861-.144.232.101.072-.021.317Z"/></g><g class="cls-20"><path class="cls-2" d="M506.242 606.588c.157.176.334.362.529.558q.195-.357.423-.7l.072-.106c.088-.129.179-.256.272-.379a9.817 9.817 0 0 1 .8-.936l.1-.1a9.7 9.7 0 0 1 15.695 2.957 9.7 9.7 0 0 0-14.654-5 9.553 9.553 0 0 0-1.388 1.141l-.1.1a9.8 9.8 0 0 0-.8.936q-.139.186-.272.379l-.072.107a9.829 9.829 0 0 0-.605 1.043Z"/></g><path class="cls-1" d="M522.046 617.509a.5.5 0 0 1-.165-.028 54.969 54.969 0 0 1-16.248-10.787.508.508 0 0 1-.076-.566 10.2 10.2 0 0 1 .637-1.1c.115-.174.237-.346.362-.511a10.205 10.205 0 0 1 16.973 11.27c-.1.178-.214.357-.329.531a10.39 10.39 0 0 1-.768 1.015.511.511 0 0 1-.386.176Zm-15.418-11.236a55.773 55.773 0 0 0 15.254 10.127c.165-.207.323-.424.47-.646.1-.156.2-.317.3-.478a9.376 9.376 0 0 0 .523-1.047 9.192 9.192 0 0 0-15.043-9.987 9.327 9.327 0 0 0-.762.887c-.112.149-.222.3-.326.46-.15.222-.288.452-.416.684Zm-.01-.965Z"/></g></g><path d="M480.577 609.8c6.39 9.982 20.684 12.58 30.284 9.409a24.441 24.441 0 0 0 7.094-8.019c-10.679 11.2-36.276 3.591-34.727-15.133a18.754 18.754 0 0 0-1.947 2.733Z" style="fill:#020202"/><path class="cls-1" d="m480.26 596.6-.859-.545a26.757 26.757 0 0 1 9.742-8.943 32.91 32.91 0 0 1 12.349-3.863c6.978-.734 13.237.967 16.743 4.548l-.727.712c-3.291-3.362-9.238-4.95-15.91-4.249-8.929.94-17.105 5.663-21.338 12.34Z"/><path class="cls-1" d="m481.72 599.044-.878-.513a23.271 23.271 0 0 1 9.57-8.68 32.318 32.318 0 0 1 12.935-3.49c7.464-.382 13.646 2.007 16.963 6.553l-.821.6c-3.111-4.263-8.978-6.5-16.09-6.136-9.167.467-17.879 5.156-21.679 11.666ZM502.482 621a31.286 31.286 0 0 1-8.1-1.068 24.032 24.032 0 0 1-14.235-9.853.509.509 0 0 1 .857-.549c6.2 9.693 20.246 12.323 29.7 9.2a.509.509 0 0 1 .32.966 27.411 27.411 0 0 1-8.542 1.304Z"/><path class="cls-1" d="M502 623.167c-9.8 0-18.022-4.033-23.354-11.522a.509.509 0 0 1 .829-.59c5.592 7.856 14.512 11.764 25.108 11a.509.509 0 0 1 .073 1.015q-1.35.097-2.656.097Z"/><g class="cls-22"><path class="cls-2" d="M505.534 589.794q11.445 5.961 10.041 19.934a.415.415 0 0 0 .763.267 17.016 17.016 0 0 0 2.51-12.256 7.155 7.155 0 0 0-2.5-4.361 18.828 18.828 0 0 0-10.59-4.366.415.415 0 0 0-.224.782Z"/><path class="cls-1" d="M515.994 610.272a.513.513 0 0 1-.167-.027.5.5 0 0 1-.336-.526c.928-9.233-2.436-15.912-10-19.85a.5.5 0 0 1 .272-.941 18.984 18.984 0 0 1 10.636 4.385 7.216 7.216 0 0 1 2.528 4.412 16.986 16.986 0 0 1-2.521 12.315.482.482 0 0 1-.412.232ZM505.719 589.1a.33.33 0 0 0-.146.623c7.628 3.974 11.022 10.709 10.087 20.018a.325.325 0 0 0 .223.349.319.319 0 0 0 .383-.136 16.82 16.82 0 0 0 2.5-12.2 7.053 7.053 0 0 0-2.468-4.309 18.824 18.824 0 0 0-10.543-4.347Z"/></g><g class="cls-22"><path class="cls-2" d="M493.037 597.688a17.266 17.266 0 0 0-2.851 4.066 1.782 1.782 0 0 1-2.677.633l-.032-.025a2.4 2.4 0 0 1-.735-2.632 8.249 8.249 0 0 1 3.022-4.268 2.323 2.323 0 0 1 3.47.7 1.3 1.3 0 0 1-.197 1.526Z"/><path class="cls-1" d="M488.573 602.833a1.8 1.8 0 0 1-1.113-.384l-.033-.026a2.481 2.481 0 0 1-.76-2.718 8.3 8.3 0 0 1 3.051-4.308 2.4 2.4 0 0 1 3.585.73 1.368 1.368 0 0 1-.208 1.615 17.31 17.31 0 0 0-2.839 4.047 1.891 1.891 0 0 1-1.28 1 1.844 1.844 0 0 1-.403.044Zm2.658-7.766a2.463 2.463 0 0 0-1.422.459 8.146 8.146 0 0 0-2.992 4.23 2.321 2.321 0 0 0 .71 2.544l.031.024a1.646 1.646 0 0 0 1.383.309 1.733 1.733 0 0 0 1.174-.915 17.446 17.446 0 0 1 2.864-4.085 1.209 1.209 0 0 0 .186-1.428 2.319 2.319 0 0 0-.583-.684 2.178 2.178 0 0 0-1.351-.454Z"/></g><g class="cls-22"><path class="cls-2" d="M485.949 610.119c.683 2.162 2.474 2.279 3.4 1.295a1.129 1.129 0 0 0 .257-1.037 22.046 22.046 0 0 1-.524-3.45 1.479 1.479 0 0 0-2.287-1.135c-.78.544-1.331 1.83-.846 4.327Z"/><path class="cls-1" d="M488.017 612.087a1.775 1.775 0 0 1-.408-.047 2.545 2.545 0 0 1-1.736-1.9v-.009c-.565-2.91.31-4.01.881-4.407a1.493 1.493 0 0 1 1.515-.111 1.556 1.556 0 0 1 .9 1.306 21.921 21.921 0 0 0 .523 3.437 1.212 1.212 0 0 1-.277 1.11 1.916 1.916 0 0 1-1.398.621Zm-1.992-1.988a2.4 2.4 0 0 0 1.619 1.787 1.73 1.73 0 0 0 1.65-.526 1.055 1.055 0 0 0 .237-.966 22.207 22.207 0 0 1-.526-3.461 1.4 1.4 0 0 0-.806-1.174 1.341 1.341 0 0 0-1.357.1c-.542.373-1.362 1.422-.817 4.241Z"/></g><path class="cls-1" d="M495.7 624.881a25.543 25.543 0 0 1-16.52-6.015 24.906 24.906 0 0 1-2.785-35.5 25.837 25.837 0 0 1 36.029-2.827 24.906 24.906 0 0 1 2.785 35.5 25.591 25.591 0 0 1-17.438 8.76q-1.04.083-2.071.082Zm.2-49.168q-.984 0-1.976.077a24.414 24.414 0 0 0-16.635 8.356 23.718 23.718 0 0 0 2.653 33.811 24.36 24.36 0 0 0 15.758 5.737q.984 0 1.976-.078a24.413 24.413 0 0 0 16.635-8.355 23.719 23.719 0 0 0-2.653-33.812 24.357 24.357 0 0 0-15.758-5.736Z"/><ellipse class="cls-2" cx="476.395" cy="603.153" rx="5.82" ry="8.928" transform="rotate(-4.487 476.342 603.096)"/><path class="cls-1" d="M476.793 612.15c-3.123 0-5.908-3.737-6.285-8.535-.389-4.954 1.936-9.192 5.182-9.447a5.119 5.119 0 0 1 4.381 2.318 11.76 11.76 0 0 1 2.211 6.205c.388 4.955-1.936 9.192-5.182 9.447-.1.008-.2.012-.307.012Zm-6.116-8.548c.382 4.861 3.261 8.614 6.41 8.367s5.407-4.4 5.026-9.265a11.6 11.6 0 0 0-2.176-6.115 4.962 4.962 0 0 0-4.234-2.252c-3.153.247-5.407 4.4-5.026 9.265Z"/><g class="cls-11"><path class="cls-1" d="M470.593 603.608c.386 4.916 3.3 8.7 6.5 8.446s5.489-4.441 5.1-9.357a13.183 13.183 0 0 0-.176-1.36c-.768 2.841-2.533 4.865-4.73 5.037-2.9.228-5.562-2.848-6.325-7.082a12.791 12.791 0 0 0-.369 4.316Z"/></g><path class="cls-1" d="M476.8 612.658c-3.388 0-6.4-3.939-6.8-9-.41-5.234 2.124-9.717 5.649-9.994a5.6 5.6 0 0 1 4.824 2.515 12.277 12.277 0 0 1 2.315 6.475c.41 5.234-2.124 9.718-5.649 9.994a6.49 6.49 0 0 1-.339.01Zm-5.613-9.1c.36 4.582 2.989 8.125 5.863 7.9s4.918-4.136 4.559-8.718a11.086 11.086 0 0 0-2.072-5.845 4.478 4.478 0 0 0-3.791-2.055c-2.873.226-4.918 4.136-4.559 8.718Z"/><path class="cls-1" d="M475.08 611.3a4.126 4.126 0 0 1-3.3-2.162 11.44 11.44 0 0 1-1.687-5.345c-.346-4.407 1.4-8.017 3.974-8.219s4.862 3.092 5.208 7.5-1.4 8.017-3.975 8.219c-.071 0-.146.007-.22.007Zm-.788-14.717h-.141c-1.939.152-3.331 3.415-3.04 7.125a10.419 10.419 0 0 0 1.521 4.864 3.064 3.064 0 0 0 2.593 1.7c1.939-.152 3.331-3.415 3.04-7.125-.284-3.619-2.085-6.568-3.973-6.568ZM469.348 644.883c-.024-.027-.034-.042-.047-.059l-.034-.049c-.01-.016-.042-.063-.06-.093-.039-.062-.072-.124-.106-.186a3.257 3.257 0 0 1-.165-.38 2.99 2.99 0 0 1-.175-.793 2.82 2.82 0 0 1 .04-.791 3.2 3.2 0 0 1 .229-.728.254.254 0 0 1 .486.136v.022a2.665 2.665 0 0 0-.036.62 2.161 2.161 0 0 0 .374 1.091 2.533 2.533 0 0 0 .172.22l.094.1.046.041a.146.146 0 0 0 .022.017c.006 0 .015.012.011.006a.593.593 0 0 1-.848.83Z"/><path class="cls-15" d="M517.46 612.973a9.705 9.705 0 0 0 14.06 9.335 52.054 52.054 0 0 1-14.06-9.335Z"/><path class="cls-16" d="m528.8 623.362.038-.158.1-.131-.027-.02-.033-.009a30 30 0 0 1-11.068-7.336l-.263.2a23.467 23.467 0 0 0 5.193 4.357 23.171 23.171 0 0 0 6.06 3.097ZM524.109 618.214a48.518 48.518 0 0 1-6.649-5.241 9.6 9.6 0 0 0-.01 1.187 42.039 42.039 0 0 0 6.225 4.9 43.417 43.417 0 0 0 6.7 3.742 9.642 9.642 0 0 0 1.147-.49 48.611 48.611 0 0 1-7.413-4.098Z"/><g class="cls-11"><path class="cls-1" d="M517.46 611.629a9.705 9.705 0 0 0 14.06 9.335 51.992 51.992 0 0 1-14.06-9.335Z"/></g><g class="cls-17"><path class="cls-3" d="M518.45 608.038c.059.066.12.133.185.2a5.89 5.89 0 0 1-.16-.25Z"/></g><path class="cls-15" d="M519.056 608.293a9.754 9.754 0 0 0-.606 1.047 54.567 54.567 0 0 0 16.034 10.645 9.748 9.748 0 0 0 .73-.964l.031-.048q.149-.226.282-.457a9.544 9.544 0 0 0 .551-1.1l.019-.046a9.61 9.61 0 0 0 .53-1.709 9.7 9.7 0 0 0-14.933-10.031 9.564 9.564 0 0 0-1.387 1.142l-.1.1a9.817 9.817 0 0 0-.8.936q-.139.186-.272.379c-.035.035-.056.07-.079.106Z"/><path class="cls-16" d="m519.127 608.187-.071.106a9.754 9.754 0 0 0-.606 1.047 54.567 54.567 0 0 0 16.034 10.645 9.748 9.748 0 0 0 .73-.964l.031-.048a36.427 36.427 0 0 1-8.541-4.479c-3.604-2.394-6.479-4.823-7.577-6.307ZM536.591 615.982l.071-.65c-1.315-.145-4.551-1.784-7.868-3.986-3.958-2.628-6.416-4.93-6.8-5.846l-.6.252c.5 1.212 3.334 3.679 7.039 6.138 3.448 2.29 6.727 3.935 8.158 4.092ZM536.643 612.648l.2-.622a30.181 30.181 0 0 1-6.268-3.361 28.642 28.642 0 0 1-5.634-4.6l-.508.411a29.253 29.253 0 0 0 5.78 4.73 30.752 30.752 0 0 0 6.43 3.442Z"/><path class="cls-16" d="m536.046 617.689.1-.646c-1.5-.236-4.839-1.945-8.314-4.252-3.645-2.42-6.62-4.957-7.236-6.171l-.583.3c.672 1.325 3.669 3.9 7.457 6.42 3.604 2.387 6.969 4.095 8.576 4.349Z"/><path class="cls-1" d="M527.139 623.86a10.2 10.2 0 0 1-10.186-10.922.509.509 0 0 1 .859-.332 51.487 51.487 0 0 0 13.91 9.235.509.509 0 0 1 .028.921 10.218 10.218 0 0 1-4.611 1.098Zm-9.181-9.731a9.19 9.19 0 0 0 12.3 8.169 53.754 53.754 0 0 1-12.3-8.169Z"/><path class="cls-18" d="M513.712 606.394c-.786 1.184.758 3.712 3.748 6.579a52.054 52.054 0 0 0 14.06 9.335c3.8 1.643 6.732 2.084 7.518.9.713-1.075-.494-3.258-2.96-5.8a9.544 9.544 0 0 1-.551 1.1c.673.76.972 1.326.792 1.6s-.842.213-1.835-.128a54.567 54.567 0 0 1-16.034-10.64c-.7-.783-1.014-1.365-.83-1.641s.818-.215 1.779.109a9.817 9.817 0 0 1 .8-.936c-3.293-1.287-5.773-1.552-6.487-.478Z"/><path class="cls-19" d="M536.279 621.363a1.162 1.162 0 0 0 1.034-.412c.387-.583-.062-1.566-1.374-3.006l-.391.356c1.232 1.353 1.492 2.1 1.324 2.358-.282.425-2.064.157-5.313-1.433a56.907 56.907 0 0 1-11.274-7.485c-2.726-2.377-3.664-3.916-3.383-4.34.168-.254.962-.306 2.687.305l.177-.5c-1.837-.65-2.917-.682-3.3-.1-.7 1.047 1.506 3.315 3.475 5.032a57.4 57.4 0 0 0 11.389 7.561 14.117 14.117 0 0 0 4.949 1.664Z"/><path class="cls-19" d="M536.879 622.77a1.678 1.678 0 0 0 1.49-.593c.729-1.1-.82-3.116-2.247-4.616l-.383.364c2.092 2.2 2.5 3.487 2.189 3.96-.387.582-2.264.609-6.285-1.233a53.541 53.541 0 0 1-12.7-8.435c-3.259-2.99-3.963-4.732-3.576-5.314.313-.472 1.659-.594 4.5.481l.188-.494c-1.937-.734-4.4-1.378-5.127-.28-.947 1.427 1.886 4.37 3.659 6a54.192 54.192 0 0 0 12.841 8.526 15.868 15.868 0 0 0 5.451 1.634Z"/><g class="cls-11"><path class="cls-1" d="M537.886 622.058c-.785 1.183-3.714.74-7.517-.9a48.437 48.437 0 0 1-7.252-3.987c2.46.758 4.252.783 4.84-.1a1.313 1.313 0 0 0 .2-.771 32.07 32.07 0 0 0 5.173 2.539c.994.341 1.652.406 1.836.129a.369.369 0 0 0 .046-.257l.8-1.253c1.718 2.013 2.472 3.696 1.874 4.6Z"/></g><path class="cls-1" d="M537.263 624.387a17.265 17.265 0 0 1-5.944-1.612 52.543 52.543 0 0 1-14.211-9.435c-1.966-1.886-5.078-5.332-3.82-7.227 1.084-1.632 4.459-.745 7.1.285a.509.509 0 0 1 .179.829 9.327 9.327 0 0 0-.762.887.507.507 0 0 1-.568.176 4.1 4.1 0 0 0-1.112-.255 4.218 4.218 0 0 0 .7.966 54.116 54.116 0 0 0 15.82 10.5 4.158 4.158 0 0 0 1.165.274 4.033 4.033 0 0 0-.668-.925.508.508 0 0 1-.058-.593 9.354 9.354 0 0 0 .522-1.046.509.509 0 0 1 .833-.157c1.975 2.034 4.1 4.8 3.018 6.433a2.475 2.475 0 0 1-2.194.9Zm-23.127-17.711c-.486.731.462 2.848 3.676 5.93a51.487 51.487 0 0 0 13.91 9.235c4.087 1.766 6.406 1.818 6.892 1.086.37-.557-.063-2.089-2.392-4.623l-.078.15c.526.64.971 1.38.6 1.941-.433.652-1.523.38-2.424.071a54.969 54.969 0 0 1-16.248-10.787c-.635-.711-1.307-1.61-.875-2.261.373-.561 1.227-.438 2.021-.2l.107-.13c-3.239-1.163-4.819-.968-5.188-.41Z"/><g class="cls-11"><path class="cls-1" d="M517.394 608.284a54.544 54.544 0 0 0 16.034 10.646 9.881 9.881 0 0 0 .73-.965l.032-.048q.148-.227.281-.457a9.715 9.715 0 0 0 .552-1.1l.018-.046a9.61 9.61 0 0 0 .53-1.709 9.711 9.711 0 0 0-2.849-9.066 9.675 9.675 0 0 1 .087 7.619l-.019.046-.033.074c-.749 1.568-2.63 1.976-4.316 1.55-3.212-.811-9.664-5.743-11.026-6.86-.144.232.101.072-.021.316Z"/></g><g class="cls-20"><path class="cls-2" d="M518.68 609.573c.157.176.334.362.529.558q.2-.357.423-.7l.072-.106q.132-.193.272-.378a9.83 9.83 0 0 1 .8-.937l.1-.1a9.7 9.7 0 0 1 15.695 2.958 9.7 9.7 0 0 0-14.654-5 9.553 9.553 0 0 0-1.381 1.132l-.1.105a9.662 9.662 0 0 0-.8.935c-.094.124-.184.25-.272.379l-.072.107a9.661 9.661 0 0 0-.612 1.047Z"/></g><path class="cls-1" d="M534.484 620.494a.5.5 0 0 1-.165-.028 54.969 54.969 0 0 1-16.248-10.787.507.507 0 0 1-.076-.565 10.117 10.117 0 0 1 .637-1.1c.115-.174.237-.346.361-.51a10.205 10.205 0 0 1 16.974 11.269c-.1.178-.214.357-.329.531a10.39 10.39 0 0 1-.768 1.015.512.512 0 0 1-.386.175Zm-15.418-11.236a55.773 55.773 0 0 0 15.254 10.127 8.88 8.88 0 0 0 .47-.646c.1-.156.2-.317.3-.478a9.291 9.291 0 0 0 .523-1.047 9.192 9.192 0 0 0-15.043-9.987 9.327 9.327 0 0 0-.762.887 9.387 9.387 0 0 0-.742 1.144Zm-.01-.965ZM520.788 620.306a1.364 1.364 0 0 1 .111.116c.032.035.058.069.086.1.053.07.106.138.152.209a4.27 4.27 0 0 1 .255.428 5.852 5.852 0 0 1 .373.89 6.971 6.971 0 0 1 .224.915c.029.153.044.308.066.46l.039.46a.17.17 0 0 1-.333.06v-.01l-.119-.424c-.048-.139-.088-.279-.142-.413a6.447 6.447 0 0 0-.357-.782 4.979 4.979 0 0 0-.461-.7 3.564 3.564 0 0 0-.268-.3c-.046-.048-.1-.09-.141-.132-.024-.019-.048-.041-.07-.057a.343.343 0 0 0-.054-.037.508.508 0 0 1 .641-.789Z"/><ellipse cx="494.6" cy="637.276" rx="2.123" ry="1.536" transform="rotate(-85.513 494.604 637.276)" style="fill:#22a7f0"/><path class="cls-2" d="M495.468 638.059c.092-1.169-.519-2.17-1.365-2.236a1.194 1.194 0 0 0-.669.152 1.479 1.479 0 0 1 1.332-.816c.846.067 1.457 1.068 1.366 2.237a2.285 2.285 0 0 1-1.029 1.843 2.713 2.713 0 0 0 .365-1.18Z" style="opacity:.6"/><path class="cls-1" d="M494.52 639.893h-.125a1.863 1.863 0 0 1-1.42-.942 3.066 3.066 0 0 1-.4-1.829c.115-1.464 1.1-2.542 2.232-2.453s1.938 1.307 1.823 2.772a3.075 3.075 0 0 1-.683 1.744 1.892 1.892 0 0 1-1.427.708Zm-.955-2.7a2.108 2.108 0 0 0 .259 1.234.769.769 0 0 0 1.363.106 2.1 2.1 0 0 0 .449-1.177c.069-.878-.348-1.658-.909-1.7s-1.093.661-1.162 1.539Z"/><path class="cls-4" d="M770.293 494.547a257.167 257.167 0 0 1-.077 35.919C760 673.049 636.154 780.372 493.569 770.191c-142.583-10.213-249.906-134.062-239.725-276.646.29-4.1.679-8.2 1.164-12.225 8.42 126.924 109.34 231.4 239.8 240.728 138.486 9.89 259.275-91.055 275.485-227.501Z"/><path class="cls-3" d="M531.061 245.864a266.935 266.935 0 0 0-252.62 395.26 269.149 269.149 0 0 0 31.95 45.62 266.562 266.562 0 0 0 388.71 15.35 270.35 270.35 0 0 0 19.7-21.58 265.786 265.786 0 0 0 55.9-121.55c.02-.1.03-.2.05-.3a269.019 269.019 0 0 0 3.42-27.63c10.5-146.75-100.36-274.68-247.11-285.17Zm-36.92 516.36a249 249 0 0 1-142.21-57.02 254.979 254.979 0 0 1-59.02-70.91 248.177 248.177 0 0 1-31.48-110.45 254.64 254.64 0 0 1 .39-29.73 250.944 250.944 0 0 1 234.04-232.49 256.52 256.52 0 0 1 34.06.16c99.4 7.11 181.28 71.52 215.61 158.57a249.376 249.376 0 0 1 16.72 109.54q-.255 3.5-.6 6.96-.96 9.84-2.69 19.41c0 .03-.01.06-.01.09a249.805 249.805 0 0 1-52.18 113.64 252.879 252.879 0 0 1-59.53 53.18 249.535 249.535 0 0 1-153.1 39.05Z"/><path class="cls-3" d="M767.721 463.2q-1.5-4.44-3.26-8.74c-1.09-2.71-2.25-5.37-3.49-8a159.857 159.857 0 0 0-15.44-26.11 181.035 181.035 0 0 0-38.92-38.8c-43.81-32.51-107.23-51.97-183.41-56.26s-141.39 7.92-188.56 35.3a178.67 178.67 0 0 0-46.68 38.32 159.158 159.158 0 0 0-18.57 26.83q-2.22 4.035-4.21 8.22-2.46 5.1-4.57 10.44-11.34 28.5-13.31 63.25a239.18 239.18 0 0 0 31.72 133.17q3.015 5.28 6.33 10.46c5.1 7.97 14.4 17.64 27.09 27.75 1.8 1.45 3.68 2.9 5.62 4.35 1.84 1.38 3.75 2.77 5.71 4.16a311.1 311.1 0 0 0 28.16 17.66c38.69 21.51 89.93 40.01 145.45 42.64a364.046 364.046 0 0 0 149.86-24.67 303.747 303.747 0 0 0 29.39-13.43q3.345-1.755 6.49-3.52a.037.037 0 0 1 .03-.01c1.87-1.06 3.69-2.1 5.45-3.16 13.15-7.83 23.39-15.65 30.2-22.54 1.56-1.58 2.94-3.12 4.14-4.59a247.312 247.312 0 0 0 22.63-32.95 238.121 238.121 0 0 0 29.13-84.01c.02-.1.03-.2.05-.3q1.53-10.5 2.13-21.18 2.295-40.616-9.16-74.28ZM298.8 642.664q-2.745-4.275-5.27-8.64a223.962 223.962 0 0 1-30.46-103.63q-.45-10.875.17-21.84c3.4-60.4 30.12-105.53 79.41-134.15 32.53-18.88 74.49-30.08 123.27-33.13a477.193 477.193 0 0 1 56.38-.04c73.06 4.12 133.5 22.49 174.79 53.14a166.991 166.991 0 0 1 30.28 28.7c22.55 27.71 33.92 61.61 33.92 101.3q0 6.015-.35 12.21c-.06 1.12-.13 2.23-.22 3.34q-.57 8.235-1.76 16.34c0 .03-.01.06-.01.09a222.557 222.557 0 0 1-27.79 79.63 230.7 230.7 0 0 1-20.62 29.88 52.284 52.284 0 0 1-3.77 4.13c-22.25 22.17-87.53 56.4-170.91 61.61a345.07 345.07 0 0 1-37.72.29 304.7 304.7 0 0 1-82.66-16.07c-58.769-19.84-103.849-53.13-116.68-73.16Z"/><g class="cls-25"><ellipse class="cls-2" cx="686.468" cy="514.153" rx="45.806" ry="33.192" transform="rotate(-76.505 686.472 514.153)"/></g><g class="cls-25"><ellipse class="cls-2" cx="715.768" cy="582.461" rx="21.025" ry="18.042" transform="rotate(-68.563 715.77 582.46)"/></g><path d="M724.994 417.375c29.708 31.727 45.936 73.9 42.915 127.652-2.848 50.581-21.918 96.6-52.162 133.868-22.695 27.937-112.1 74.029-218.993 68.981-37.744-1.776-73.741-11.276-104.941-24.051 131.532 3.4 240.454-53.214 268.59-87.865 38.413-47.294 62.6-105.717 66.207-169.887a262 262 0 0 0-1.616-48.698Z" style="fill:#111a28" class="cls-17"/><path class="cls-3" d="M753.932 426.4a7.958 7.958 0 0 1-5.779-1.982 7.292 7.292 0 0 1-.376-.352l-.643-.637-.483-.765C706.8 359.56 625.055 320.049 522.376 314.263c-103.231-5.81-188.878 25.4-234.96 85.633l-.516.609a7.984 7.984 0 0 1-12.021-10.5c49.378-64.381 139.9-97.8 248.4-91.686 107.713 6.069 193.937 48.147 236.656 115.471a7.987 7.987 0 0 1-6 12.613Z"/><g class="cls-25"><path class="cls-2" d="M268.311 525.588s-12.6-95.81 47.887-138.832 136.939-48.516 134.237-43.506c0 0-88.493 26.644-134.091 95.664-35.163 53.223-48.033 86.674-48.033 86.674Z"/></g><path d="M350.608 606.081s-41.307.478-56.494-27.38-13.634-60.59-11.644-59.188c0 0 6.812 38.914 33.79 61.776 20.803 17.629 34.348 24.792 34.348 24.792Z" style="opacity:.31"/><path class="cls-5" d="M580.64 475.851a63.492 63.492 0 0 1-2.526 17.772v.006l-.012.025a62.622 62.622 0 0 1-3.111 8.392v.006l-.006.006a63.4 63.4 0 0 1-57.8 37.243 64.776 64.776 0 0 1-8.908-.615 63.442 63.442 0 0 1-26.345-10.072c-.267-.18-.535-.361-.8-.547a63.454 63.454 0 1 1 99.5-52.216Z"/><circle class="cls-28" cx="477.999" cy="492.646" r="12.441"/><path class="cls-28" d="M493.19 534.6a7.467 7.467 0 1 0-12.05-6.532Z"/><circle class="cls-28" cx="485.464" cy="449.102" r="10.575"/><path class="cls-28" d="M574.991 502.046v.006a10.575 10.575 0 1 1 3.123-8.429v.006Z"/><circle class="cls-28" cx="539.583" cy="451.59" r="6.843"/><circle class="cls-28" cx="513.457" cy="491.402" r="10.575"/><path class="cls-28" d="M559.776 522.885a63.639 63.639 0 0 1-16.759 10.936 10.587 10.587 0 0 1 10.252-13.182 10.467 10.467 0 0 1 6.507 2.246ZM530.371 413.775a10.582 10.582 0 0 1-20.4-.965 63.852 63.852 0 0 1 20.4.965Z"/><circle class="cls-28" cx="539.583" cy="478.961" r="3.11"/><circle class="cls-2" cx="433.541" cy="512.095" r="1.866"/><circle class="cls-2" cx="564.741" cy="378.179" r="1.866"/><circle class="cls-2" cx="483.597" cy="412.4" r="1.244"/><circle class="cls-2" cx="457.207" cy="391.192" r=".933"/><circle class="cls-2" cx="626.171" cy="461.115" r="2.177"/><circle class="cls-2" cx="617.596" cy="437.617" r="4.043"/><circle class="cls-2" cx="548.596" cy="394.617" r="4.043"/><circle class="cls-2" cx="433.596" cy="465.617" r="4.043"/><circle class="cls-2" cx="609.774" cy="504.686" r="1.244"/><circle class="cls-2" cx="553.58" cy="537.746" r=".933"/><circle class="cls-2" cx="542.072" cy="543.656" r="1.866"/><circle class="cls-2" cx="488.885" cy="542.101" r="1.555"/><circle class="cls-2" cx="504.126" cy="545.522" r=".622"/><path class="cls-2" d="m402.452 442.4 1.518.6-1.518.6a3.13 3.13 0 0 0-1.765 1.765l-.6 1.518-.6-1.518a3.132 3.132 0 0 0-1.766-1.765l-1.518-.6 1.518-.6a3.134 3.134 0 0 0 1.766-1.765l.6-1.518.6 1.518a3.133 3.133 0 0 0 1.765 1.765ZM432.981 408.805l1.518.6-1.518.6a3.137 3.137 0 0 0-1.766 1.765l-.6 1.518-.6-1.518a3.139 3.139 0 0 0-1.762-1.77l-1.519-.6 1.519-.6a3.133 3.133 0 0 0 1.765-1.765l.6-1.518.6 1.518a3.132 3.132 0 0 0 1.763 1.77ZM599.772 527.129l1.518.6-1.518.6a3.137 3.137 0 0 0-1.766 1.765l-.6 1.518-.6-1.518a3.139 3.139 0 0 0-1.765-1.765l-1.518-.6 1.518-.6a3.133 3.133 0 0 0 1.765-1.765l.6-1.518.6 1.518a3.132 3.132 0 0 0 1.766 1.765ZM618.157 483.12l1.518.6-1.518.6a3.132 3.132 0 0 0-1.766 1.765l-.6 1.518-.6-1.518a3.133 3.133 0 0 0-1.765-1.765l-1.518-.6 1.518-.6a3.136 3.136 0 0 0 1.765-1.765l.6-1.518.6 1.518a3.134 3.134 0 0 0 1.766 1.765ZM608.157 402.12l1.518.6-1.518.6a3.132 3.132 0 0 0-1.766 1.765l-.6 1.518-.6-1.518a3.133 3.133 0 0 0-1.765-1.765l-1.518-.6 1.518-.6a3.136 3.136 0 0 0 1.765-1.765l.6-1.518.6 1.518a3.134 3.134 0 0 0 1.766 1.765ZM555.483 415.942l.672.265-.672.265a1.385 1.385 0 0 0-.78.78l-.265.672-.265-.672a1.382 1.382 0 0 0-.78-.78l-.671-.265.671-.265a1.379 1.379 0 0 0 .78-.78l.265-.671.265.671a1.382 1.382 0 0 0 .78.78ZM504.525 374.277l1.518.6-1.518.6a3.133 3.133 0 0 0-1.765 1.765l-.6 1.518-.6-1.518a3.13 3.13 0 0 0-1.765-1.765l-1.518-.6 1.518-.6a3.127 3.127 0 0 0 1.765-1.765l.6-1.518.6 1.518a3.13 3.13 0 0 0 1.765 1.765ZM418.185 480.453l1.518.6-1.518.6a3.137 3.137 0 0 0-1.766 1.765l-.6 1.518-.6-1.518a3.136 3.136 0 0 0-1.765-1.765l-1.518-.6 1.518-.6a3.13 3.13 0 0 0 1.765-1.765l.6-1.518.6 1.518a3.132 3.132 0 0 0 1.766 1.765ZM438.934 534.446l1.518.6-1.518.6a3.137 3.137 0 0 0-1.766 1.765l-.6 1.518-.6-1.518a3.139 3.139 0 0 0-1.765-1.765l-1.518-.6 1.518-.6a3.133 3.133 0 0 0 1.765-1.765l.6-1.518.6 1.518a3.132 3.132 0 0 0 1.766 1.765ZM485.722 561.754l1.518.6-1.518.6a3.13 3.13 0 0 0-1.765 1.765l-.6 1.518-.6-1.518a3.132 3.132 0 0 0-1.766-1.765l-1.518-.6 1.518-.6a3.137 3.137 0 0 0 1.766-1.765l.6-1.518.6 1.518a3.136 3.136 0 0 0 1.765 1.765ZM586.921 456.45l.487.191-.487.192a1 1 0 0 0-.566.566l-.191.486-.192-.486a1 1 0 0 0-.566-.566l-.486-.192.486-.191a1.006 1.006 0 0 0 .566-.566l.192-.487.191.487a1.006 1.006 0 0 0 .566.566ZM543.464 556.871l1.518.6-1.518.6a3.133 3.133 0 0 0-1.765 1.765l-.6 1.518-.6-1.518a3.13 3.13 0 0 0-1.765-1.765l-1.518-.6 1.518-.6a3.127 3.127 0 0 0 1.765-1.765l.6-1.518.6 1.518a3.13 3.13 0 0 0 1.765 1.765ZM466 531l.73.287-.73.288a1.508 1.508 0 0 0-.849.849l-.287.729-.288-.729a1.508 1.508 0 0 0-.849-.849l-.729-.288.729-.287a1.511 1.511 0 0 0 .849-.849l.288-.73.287.73A1.511 1.511 0 0 0 466 531ZM425.776 434.227l.73.288-.73.287a1.509 1.509 0 0 0-.848.849l-.288.73-.288-.73a1.509 1.509 0 0 0-.848-.849l-.73-.287.73-.288a1.507 1.507 0 0 0 .848-.849l.288-.729.288.729a1.507 1.507 0 0 0 .848.849Z"/></svg>