<?xml version="1.0" standalone="no"?>
<!DOCTYPE svg PUBLIC "-//W3C//DTD SVG 1.1//EN" "http://www.w3.org/Graphics/SVG/1.1/DTD/svg11.dtd" >
<svg xmlns="http://www.w3.org/2000/svg" xmlns:xlink="http://www.w3.org/1999/xlink" version="1.1">
<metadata>
Created by FontForge 20170731 at Fri Jan  1 02:30:17 1904
 By Aleksey,,,
Converted by ALLTYPE
</metadata>
<defs>
<font id="Andromeda" horiz-adv-x="425" >
  <font-face 
    font-family="Andromeda"
    font-weight="5"
    font-stretch="normal"
    units-per-em="1000"
    panose-1="0 0 0 0 0 0 0 0 0 0"
    ascent="800"
    descent="-200"
    x-height="295"
    cap-height="564"
    bbox="-29.1333 -258 1177 760"
    underline-thickness="50"
    underline-position="-155"
    unicode-range="U+0020-F002"
  />
<missing-glyph 
 />
    <glyph glyph-name=".notdef" 
 />
    <glyph glyph-name="glyph1" horiz-adv-x="0" 
 />
    <glyph glyph-name="glyph2" 
 />
    <glyph glyph-name="space" unicode=" " 
 />
    <glyph glyph-name="space" unicode="&#xa0;" 
 />
    <glyph glyph-name="exclam" unicode="!" horiz-adv-x="115" 
d="M27 60q0 13 9 19.5t19 5.5q10 0 18 -6.5t8 -19.5v-57q0 -14 -8.5 -20.5t-19.5 -5.5q-10 0 -18 6.5t-8 18.5v59v0zM27 541q0 13 9 19.5t19 5.5q10 0 18 -6.5t8 -19.5v-411q0 -14 -8.5 -21t-19.5 -6q-10 0 -18 6.5t-8 19.5v413v0z" />
    <glyph glyph-name="quotedbl" unicode="&#x22;" horiz-adv-x="222" 
d="M27 538q0 13 9 19.5t19 6.5t18 -6.5t8 -20.5v-129q0 -14 -8.5 -21t-19.5 -7q-10 0 -18 7t-8 20v131v0zM138 538q0 13 9 19.5t19 6.5t18 -6.5t8 -20.5v-129q0 -14 -8.5 -21t-19.5 -7q-10 0 -18 7t-8 20v131v0z" />
    <glyph glyph-name="numbersign" unicode="#" horiz-adv-x="420" 
d="M50 169h54v100h-50q-13 -1 -20 8t-7 19t7 18t20 8l50 1v50q0 13 9 19.5t19 5.5q10 0 18 -6.5t8 -19.5v-49h100v50q0 13 9 19.5t19 5.5q10 0 18 -6.5t8 -19.5v-49h50q14 -1 20.5 -9.5t5.5 -19.5q0 -10 -6.5 -18t-19.5 -8l-50 1v-100h50q14 -1 20.5 -9.5t5.5 -19.5
q0 -10 -6.5 -18t-19.5 -8l-50 1v-50q0 -14 -8.5 -21t-19.5 -6q-10 0 -18 6.5t-8 19.5v51h-100v-50q0 -14 -8.5 -21t-19.5 -6q-10 0 -18 6.5t-8 19.5v51h-54q-13 -1 -20 8t-6 19q0 10 6.5 18t19.5 8v1zM258 169v100h-100v-100h100v0z" />
    <glyph glyph-name="dollar" unicode="$" horiz-adv-x="471" 
d="M208 592q0 13 9 19.5t19 6.5t18 -6.5t8 -20.5v-645q0 -14 -8.5 -20.5t-19.5 -5.5q-10 0 -18 6.5t-8 19.5v646v0zM173 27q14 -1 20.5 -9.5t5.5 -18.5q0 -10 -6.5 -18t-19.5 -8h-119q-13 0 -20 8.5t-7 18.5t7 18t20 8l119 1v0zM308 242q-13 -1 -20 8t-7 19t7 18t20 8l104 1
q14 -1 20 -7.5t6 -20.5v-268q0 -14 -6 -20.5t-20 -6.5h-104q-13 0 -20 8.5t-7 18.5t7 18t20 8l77 1v215h-77v0zM119 242q-13 -1 -20 8t-6 19q0 10 6.5 18t19.5 8l46 1q14 -1 20.5 -9.5t6.5 -19.5q0 -10 -6.5 -18t-20.5 -8l-46 1v0zM158 565q13 -1 19.5 -8.5t6.5 -16.5v-1.5
v-1.5q0 -10 -6.5 -18t-19.5 -8l-77 1v-243q0 -14 -8.5 -21t-19.5 -6q-10 0 -18 6.5t-8 19.5v270q0 13 6.5 19.5t20.5 6.5l104 1v0zM412 565q13 -1 19.5 -8.5t6.5 -16.5v-1.5v-1.5q0 -10 -6.5 -18t-19.5 -8l-104 1q-13 -1 -19.5 6.5t-7.5 16.5v1.5v1.5q0 10 7 18t20 8l104 1
v0z" />
    <glyph glyph-name="percent" unicode="%" horiz-adv-x="822" 
d="M469 265q0 13 7 19.5t20 6.5l269 1q14 -1 20.5 -7.5t6.5 -20.5v-268q0 -14 -6.5 -20.5t-20.5 -6.5h-269q-13 0 -20 6.5t-7 20.5v269v0zM523 238v-215h215v215h-215v0zM225 -17q-4 -5 -9.5 -8t-10.5 -2q-10 0 -19 8.5t-9 18.5v4t1 4l2 4l2 4l423 539q5 4 10 7t10 2
q11 0 20 -8.5t9 -19.5q0 -4 -1.5 -7.5t-4.5 -7.5l-423 -538v0zM27 538q0 13 6.5 19.5t20.5 6.5l269 1q14 -1 20.5 -7.5t6.5 -20.5v-268q0 -14 -6.5 -21t-20.5 -7l-269 1q-14 -1 -20.5 6t-6.5 20v270v0zM81 512v-216h215v216h-215v0z" />
    <glyph glyph-name="ampersand" unicode="&#x26;" horiz-adv-x="503" 
d="M262 192q-2 3 -3.5 6.5t-1.5 7.5q1 11 10 19.5t20 8.5h2.5t2.5 -1q4 -1 8 -3.5t7 -7.5l161 -230q3 -4 4 -7.5t1 -7.5q0 -11 -9 -19t-20 -8h-2.5t-2.5 1q-4 1 -8 3.5t-7 7.5l-162 230v0zM323 27q14 -1 20.5 -9.5t5.5 -18.5q0 -10 -6.5 -18t-19.5 -8h-269q-13 0 -20.5 7.5
t-7.5 18.5q0 1 0.5 3t1.5 4q0 2 1.5 4t2.5 4l318 457q-3 2 -5.5 5t-5.5 6v0v0q-10 11 -18.5 20l-8.5 9l-181 1l-40 -40l126 -147q2 -3 3 -5l2 -4q0 -2 0.5 -4t0.5 -4q0 -11 -8 -19t-18 -9h-1.5h-1.5q-5 0 -10 2.5t-9 6.5l-142 166q-4 4 -6 8.5t-2 8.5q0 5 2.5 10t7.5 9
l65 67q2 1 3.5 2.5t3.5 1.5q2 2 4.5 2h7.5l204 1q5 -1 8 -1.5t6 -2.5q1 -1 2.5 -2t2.5 -3l62 -64q5 -6 7 -10.5t2 -9.5q0 -3 -1.5 -6.5t-4.5 -8.5l-302 -430h218v0z" />
    <glyph glyph-name="quotesingle" unicode="'" horiz-adv-x="115" 
d="M27 538q0 13 9 19.5t19 6.5t18 -6.5t8 -20.5v-129q0 -14 -8.5 -21t-19.5 -7q-10 0 -18 7t-8 20v131v0z" />
    <glyph glyph-name="parenleft" unicode="(" horiz-adv-x="189" 
d="M112 562q4 3 8.5 4.5t8.5 1.5q11 0 19.5 -8.5t7.5 -19.5q0 -5 -2 -9.5t-7 -9.5q-49 -43 -58.5 -106t-9.5 -147q0 -61 4 -105.5t25 -85.5q7 -15 17.5 -29.5t23.5 -30.5q4 -4 5.5 -8t1.5 -9q0 -10 -8.5 -18.5t-19.5 -8.5q-5 0 -9.5 2t-9.5 7q-11 12 -20 23.5t-16 23.5
q-35 56 -41.5 114.5t-6.5 124.5q0 83 11 159t76 134v1z" />
    <glyph glyph-name="parenright" unicode=")" horiz-adv-x="203" 
d="M42 522q-2 1 -4 3.5t-3 5.5q-1 2 -1.5 4.5t-0.5 4.5q0 11 9 19.5t20 8.5q2 0 4 -0.5t4 -1.5q2 0 4 -1.5t4 -3.5q65 -58 75.5 -134t10.5 -159q0 -66 -6.5 -124.5t-41.5 -114.5q-7 -12 -16 -23.5t-20 -23.5q-2 -3 -4.5 -4.5t-4.5 -2.5q-3 -1 -5.5 -1.5t-4.5 -0.5
q-11 0 -19.5 8.5t-8.5 18.5q0 5 1.5 9t5.5 8q14 16 24 30.5t17 29.5q21 41 25 85.5t4 105.5q0 84 -9.5 147t-58.5 106v1z" />
    <glyph glyph-name="asterisk" unicode="*" horiz-adv-x="360" 
d="M73 196l46 46h-65q-13 -1 -20 8t-7 19t7 18t20 8l65 1l-46 46q-4 4 -6 8.5t-2 9.5q1 11 10 19.5t20 7.5q2 0 4 -0.5t5 -1.5q2 0 4 -1.5t4 -3.5l46 -45v65q0 13 9 19.5t19 5.5q10 0 18 -6.5t8 -19.5v-64l46 46q3 2 6 3.5t6 2.5q1 1 3 1h3q11 -1 19.5 -9.5t8.5 -19.5
q0 -4 -1.5 -8.5t-6.5 -9.5l-46 -45h65q14 -1 20.5 -9.5t6.5 -19.5q0 -10 -6.5 -18t-20.5 -8l-65 1l46 -46q5 -5 6.5 -9.5t1.5 -9.5q0 -11 -8.5 -19.5t-19.5 -8.5h-3t-3 1q-3 1 -6 2.5t-6 4.5l-46 47v-66q0 -14 -8.5 -21t-19.5 -6q-10 0 -18 6.5t-8 19.5v67l-46 -46
q-4 -5 -9 -7t-10 -2q-11 0 -19.5 9t-8.5 20q0 5 2 9t6 8v1z" />
    <glyph glyph-name="plus" unicode="+" horiz-adv-x="369" 
d="M54 296h104v104q0 13 9 19.5t19 5.5q10 0 18 -6.5t8 -19.5v-103h103q14 -1 20.5 -9.5t6.5 -19.5q0 -10 -6.5 -18t-20.5 -8l-103 1v-104q0 -14 -8.5 -21t-19.5 -6q-10 0 -18 6.5t-8 19.5v105h-104q-13 -1 -20 8t-7 19t7 18t20 8v1z" />
    <glyph glyph-name="comma" unicode="," horiz-adv-x="134" 
d="M52 54q0 12 7.5 18.5t16.5 6.5h1.5h1.5q10 0 18 -6.5t8 -19.5v-53v-4.5v-3.5q-1 -1 -1.5 -2.5t-1.5 -3.5l-27 -46q-4 -7 -9.5 -10t-11.5 -3h-1.5h-1.5q-10 1 -18 9.5t-8 19.5q0 3 1 6l2 6l24 39v47v0z" />
    <glyph glyph-name="hyphen" unicode="-" horiz-adv-x="374" 
d="M54 242q-13 -1 -20 8t-7 19t7 18t20 8l269 1q14 -1 20.5 -9.5t5.5 -19.5q0 -10 -6.5 -18t-19.5 -8l-269 1v0z" />
    <glyph glyph-name="period" unicode="." horiz-adv-x="111" 
d="M27 54q0 13 9 19.5t19 5.5q10 0 18 -6.5t8 -19.5v-53q0 -14 -8.5 -20.5t-19.5 -5.5q-10 0 -18 6.5t-8 19.5v54v0z" />
    <glyph glyph-name="slash" unicode="/" horiz-adv-x="471" 
d="M388 553q5 6 10.5 8.5t11.5 2.5q11 0 19.5 -8t8.5 -19q0 -2 -0.5 -3.5t-1.5 -3.5q0 -2 -1 -3.5t-2 -3.5l-357 -538q-3 -5 -6.5 -7.5t-7.5 -3.5q-2 0 -3.5 -0.5t-3.5 -0.5q-10 0 -19 8t-9 19q0 3 1.5 6.5t3.5 7.5l356 539v0z" />
    <glyph glyph-name="zero" unicode="0" horiz-adv-x="466" 
d="M27 538q0 13 6.5 19.5t20.5 6.5l357 1q14 -1 20.5 -7.5t6.5 -20.5v-537q0 -14 -6.5 -20.5t-20.5 -6.5h-357q-14 0 -20.5 6.5t-6.5 20.5v538v0zM81 512v-485h303v485h-303v0z" />
    <glyph glyph-name="one" unicode="1" horiz-adv-x="111" 
d="M27 538q0 13 9 19.5t19 6.5t18 -6.5t8 -20.5v-537q0 -14 -8.5 -20.5t-19.5 -5.5q-10 0 -18 6.5t-8 19.5v538v0z" />
    <glyph glyph-name="two" unicode="2" horiz-adv-x="466" 
d="M323 296q14 -1 20.5 -9.5t5.5 -19.5q0 -10 -6.5 -18t-19.5 -8l-242 1v-215h331q14 -1 20.5 -9.5t5.5 -18.5q0 -10 -6.5 -18t-19.5 -8h-358q-14 0 -20.5 6.5t-6.5 20.5v269q0 13 6.5 19.5t20.5 6.5l269 1v0zM54 512q-13 -1 -19.5 6.5t-7.5 16.5v1.5v1.5q0 10 7 18t20 8
l358 1q14 -1 20 -7.5t6 -20.5v-229q0 -14 -7.5 -20.5t-16.5 -7.5h-1.5h-1.5q-10 0 -18 7t-8 20v205h-331v0z" />
    <glyph glyph-name="three" unicode="3" horiz-adv-x="466" 
d="M112 242q-13 -1 -20 8t-7 19t7 18t20 8l300 1q14 -1 20 -7.5t6 -20.5v-268q0 -14 -6 -20.5t-20 -6.5h-358q-13 0 -20 8.5t-7 18.5t7 18t20 8l331 1v215h-273v0zM54 512q-13 -1 -19.5 6.5t-7.5 16.5v1.5v1.5q0 10 7 18t20 8l358 1q14 -1 20 -7.5t6 -20.5v-183
q0 -14 -7.5 -20.5t-16.5 -7.5h-1.5h-1.5q-10 0 -18 7t-8 20v159h-331v0z" />
    <glyph glyph-name="four" unicode="4" horiz-adv-x="378" 
d="M296 538q0 13 9 19.5t19 6.5t18 -6.5t8 -20.5v-537q0 -14 -8.5 -20.5t-19.5 -5.5q-10 0 -18 6.5t-8 19.5v538v0zM27 538q0 13 9 19.5t19 6.5t18 -6.5t8 -20.5v-241h177q14 -1 20.5 -9.5t5.5 -19.5q0 -10 -6.5 -18t-19.5 -8l-204 1q-14 -1 -20.5 6t-6.5 20v270v0z" />
    <glyph glyph-name="five" unicode="5" horiz-adv-x="466" 
d="M135 242q-13 -1 -20 8t-7 19t7 18t20 8l188 1l7.5 -1.5t4.5 -1.5t3.5 -2.5l3.5 -3.5l88 -83q2 -2 3 -3.5t2 -2.5q2 -3 2.5 -6t0.5 -8v-80v-7.5t-1 -4.5t-2 -3.5t-3 -3.5l-88 -103l-2 -2l-2 -2q-3 -3 -7 -4t-10 -1h-181q-5 0 -7.5 0.5t-4.5 1.5t-3.5 2.5l-3.5 3.5l-88 88
q-4 4 -6 8.5t-2 9.5q0 11 9 19.5t20 7.5q2 0 4 -0.5t5 -1.5q2 0 4 -1.5t4 -3.5l81 -80h156q6 6 15 16.5t18 21.5q16 18 29 33l13 15v60l-73 69h-177v0zM412 565q13 -1 19.5 -8.5t6.5 -16.5v-1.5v-1.5q0 -10 -6.5 -18t-19.5 -8l-331 1v-243q0 -14 -8.5 -21t-19.5 -6
q-10 0 -18 6.5t-8 19.5v270q0 13 6.5 19.5t20.5 6.5l358 1v0z" />
    <glyph glyph-name="six" unicode="6" horiz-adv-x="434" 
d="M312 563q3 1 6 1.5t6 -0.5q11 0 18.5 -8.5t7.5 -19.5q0 -7 -4 -13t-12 -10l-253 -111v-375h273v215h-219q-13 -1 -20 8t-7 19t7 18t20 8l246 1q14 -1 20.5 -7.5t6.5 -20.5v-268q0 -14 -6.5 -20.5t-20.5 -6.5h-327q-14 0 -20.5 6.5t-6.5 20.5v419q0 9 2 13.5t9 7.5
q1 1 2.5 1.5t2.5 1.5l269 120v0z" />
    <glyph glyph-name="seven" unicode="7" horiz-adv-x="466" 
d="M54 512q-13 -1 -19.5 6.5t-7.5 16.5v1.5v1.5q0 10 7 18t20 8l358 1q14 -1 20 -7.5t6 -20.5v-160q0 -5 -0.5 -7t-1.5 -4q0 -1 -1 -2.5t-2 -3.5l-277 -376q-3 -4 -6.5 -6.5t-7.5 -3.5q-2 0 -3.5 -0.5t-3.5 -0.5q-10 0 -19 8t-9 19q0 1 0.5 3t1.5 4q0 2 1.5 4t2.5 4l272 370
v127h-331v0z" />
    <glyph glyph-name="eight" unicode="8" horiz-adv-x="466" 
d="M343.5 288.5q5.5 -6.5 5.5 -18.5q0 -11 -5 -17.5t-22 -9.5h-295v295q0 13 6.5 19.5t20.5 6.5l358 1q14 -1 20 -7.5t6 -20.5v-537q0 -14 -6 -20.5t-20 -6.5h-358q-14 0 -20.5 6.5t-6.5 20.5v243h54v-216h304v485h-304v-215h242q15 -2 20.5 -8.5z" />
    <glyph glyph-name="nine" unicode="9" horiz-adv-x="466" 
d="M323 296q14 -1 20.5 -9.5t5.5 -19.5q0 -10 -6.5 -18t-19.5 -8l-269 1q-14 -1 -20.5 6t-6.5 20v270q0 13 6.5 19.5t20.5 6.5l358 1q14 -1 20 -7.5t6 -20.5v-537q0 -13 -7.5 -19.5t-16.5 -6.5h-1.5h-1.5q-10 0 -18 6.5t-8 19.5v512h-304v-216h242v0z" />
    <glyph glyph-name="colon" unicode=":" horiz-adv-x="115" 
d="M27 54q0 13 9 19.5t19 5.5q10 0 18 -6.5t8 -19.5v-53q0 -14 -8.5 -20.5t-19.5 -5.5q-10 0 -18 6.5t-8 19.5v54v0zM27 323q0 13 9 19.5t19 5.5q10 0 18 -6.5t8 -19.5v-53q0 -14 -8.5 -21t-19.5 -6q-10 0 -18 6.5t-8 19.5v55v0z" />
    <glyph glyph-name="semicolon" unicode=";" horiz-adv-x="143" 
d="M55 54q0 12 7.5 18.5t16.5 6.5h1.5h1.5q10 0 18 -6.5t8 -19.5v-53v-4.5v-3.5q-1 -1 -1.5 -2.5t-1.5 -3.5l-27 -46q-4 -7 -9.5 -10t-11.5 -3h-1.5h-1.5q-10 1 -18 9t-8 19v3t1 3q0 2 1 3.5t2 3.5l23 39v47v0zM55 323q0 12 7.5 18.5t16.5 6.5h1.5h1.5q10 0 18 -6.5t8 -19.5
v-53q0 -14 -7.5 -20.5t-16.5 -6.5h-1.5h-1.5q-10 0 -18 6.5t-8 19.5v55v0z" />
    <glyph glyph-name="less" unicode="&#x3c;" horiz-adv-x="434" 
d="M358 505q4 1 7.5 2t7.5 1q13 0 22 -10t9 -22v-1.5v-1.5q0 -7 -4 -13.5t-13 -11.5l-262 -130l262 -131q9 -5 13 -12t4 -15q0 -13 -9 -23.5t-23 -10.5q-3 1 -6.5 2t-7.5 2l-319 160q-8 3 -12.5 9.5t-5.5 13.5v2.5v2.5q0 8 4.5 15.5t13.5 11.5l319 160v0z" />
    <glyph glyph-name="equal" unicode="=" 
d="M54 119q-13 -1 -20 8t-7 19t7 18t20 8l311 1q14 -1 20.5 -9.5t6.5 -19.5q0 -10 -6.5 -18t-20.5 -8l-311 1v0zM54 242q-13 -1 -20 8t-7 19t7 18t20 8l311 1q14 -1 20.5 -9.5t6.5 -19.5q0 -10 -6.5 -18t-20.5 -8l-311 1v0z" />
    <glyph glyph-name="greater" unicode="&#x3e;" horiz-adv-x="448" 
d="M50 449q-9 4 -13.5 11t-4.5 14q0 13 9.5 23.5t23.5 10.5q3 0 6.5 -1t7.5 -3l318 -158q10 -5 14.5 -13t4.5 -16t-5 -15.5t-14 -12.5l-318 -158q-4 -3 -7.5 -4t-7.5 -1q-13 1 -22.5 11.5t-9.5 23.5q0 8 4.5 14.5t13.5 10.5l262 132l-262 131v0z" />
    <glyph glyph-name="question" unicode="?" horiz-adv-x="462" 
d="M242 -8q0 -14 -8.5 -20.5t-19.5 -5.5q-10 0 -18 6.5t-8 19.5v50q0 13 9 19.5t19 6.5t18 -6.5t8 -20.5v-49v0zM35 504q-13 -1 -20 8t-7 19t7 18t20 8l357 1q14 -1 20.5 -7.5t6.5 -20.5v-176q0 -10 -1.5 -14.5t-7.5 -7.5q-1 -1 -2 -1.5l-3 -1.5l-163 -84v-107
q0 -14 -8.5 -21t-19.5 -6q-10 0 -18 6.5t-8 19.5v125q0 7 2 11t7 8l3 1.5l3 1.5l162 86v134h-330v0z" />
    <glyph glyph-name="at" unicode="@" horiz-adv-x="466" 
d="M27 469q0 13 9 19.5t19 6.5t18 -6.5t8 -20.5v-395h304v362h-208v-62h154q14 -1 20.5 -7.5t6.5 -20.5v-187q0 -15 -6.5 -21.5t-20.5 -6.5l-181 1q-13 -1 -20 5.5t-7 20.5v97q0 13 7 19.5t20 6.5l96 1q14 -1 20.5 -9.5t6.5 -19.5q0 -10 -6.5 -18t-20.5 -8l-69 1v-42h127
v134h-154q-13 -1 -20 6t-7 20v117q0 13 7 19t20 6l262 1q14 -1 20 -7t6 -20v-415q0 -14 -6 -21t-20 -7l-358 1q-14 -1 -20.5 6t-6.5 20v424v0z" />
    <glyph glyph-name="A" unicode="A" horiz-adv-x="600" 
d="M276 551l-222 -481l-24 -56q0 -27 10.5 -32.5t38.5 -7.5q57 113 221 105q171 9 221 -105q30 3 39 8.5t10 31.5q-11 30 -24 59l-222 480q-25 22 -48 -2zM410 220l16 -48q-3 -33 -40 -47q-86 -7 -172 0q-37 15 -41 48l17 48q73 168 92 208t38.5 0t89.5 -209z" />
    <glyph glyph-name="B" unicode="B" horiz-adv-x="466" 
d="M27 204v54h384q14 -1 20.5 -7.5t6.5 -20.5v-230q0 -14 -6.5 -20.5t-20.5 -6.5h-357q-13 0 -20 8.5t-6 18.5v204h56v-177h300v177h-357zM84 334h-57v200q0 14 7 22t20 8l329 1q14 -1 20.5 -7.5t6.5 -20.5v-229q0 -15 -6.5 -21.5t-20.5 -6.5h-356v54h329v178h-272v-178z
" />
    <glyph glyph-name="C" unicode="C" horiz-adv-x="466" 
d="M411 565q13 -1 19.5 -8.5t6.5 -16.5v-1.5v-1.5q0 -10 -6.5 -18t-19.5 -8h-330v-484h330q14 -1 20.5 -9.5t5.5 -18.5q0 -10 -6.5 -18t-19.5 -8h-357q-14 0 -20.5 6.5t-6.5 20.5v538q0 13 6.5 19.5t20.5 7.5h357v0z" />
    <glyph glyph-name="D" unicode="D" horiz-adv-x="471" 
d="M27 538q0 13 9 19.5t19 6.5l26 1v-538h224q6 17 15.5 46.5t19.5 62.5q16 50 29 92l13 42l-77 242h-224v52l244 1q11 -1 16 -4.5t9 -14.5l86 -267v-6v-3v-4v-5l-86 -269q-4 -11 -9 -15t-16 -4h-271q-14 0 -20.5 6.5t-6.5 20.5v538v0z" />
    <glyph glyph-name="E" unicode="E" horiz-adv-x="535" 
d="M54 -27q-13 0 -20 6t-7 13v35h450q14 -1 20.5 -9.5t5.5 -18.5q0 -10 -6.5 -18t-19.5 -8h-423v0zM111.5 250q-7.5 9 -7.5 19t7 18t20 9h269q14 -1 20.5 -9.5t5.5 -19.5q0 -10 -6.5 -18t-19.5 -8h-269q-12 0 -19.5 9zM80 27h-53v502q0 19 7 27t21 9h422q13 -1 19.5 -8.5
t6.5 -16.5v-1.5v-1.5q0 -10 -6.5 -18t-19.5 -8h-397v-484z" />
    <glyph glyph-name="F" unicode="F" horiz-adv-x="535" 
d="M27 511h54v-511q0 -14 -8.5 -20.5t-19.5 -5.5q-10 0 -18 6.5t-8 19.5v511zM131 241q-13 0 -20 9t-7 19t7 18t20 9h269q14 -1 20.5 -9.5t5.5 -19.5q0 -10 -6.5 -18t-19.5 -8h-269v0zM27 535v1.5v1.5q0 10 7 18t20 9h423q13 -1 19.5 -8.5t6.5 -16.5v-1.5v-1.5
q0 -10 -6.5 -18t-19.5 -8h-450v24z" />
    <glyph glyph-name="G" unicode="G" horiz-adv-x="466" 
d="M411 565q13 -1 19.5 -8.5t6.5 -16.5v-1.5v-1.5q0 -10 -6.5 -18t-19.5 -8h-330v-484h357v-27q-1 -14 -6 -19.5t-21 -7.5h-357q-14 0 -20.5 6.5t-6.5 20.5v538q0 13 6.5 19.5t20.5 7.5h357v0zM238 244q-13 -1 -20 8t-6 19q0 10 6.5 18t19.5 9h173q14 -1 20.5 -7.5
t6.5 -20.5v-243h-54v217h-146v0z" />
    <glyph glyph-name="H" unicode="H" horiz-adv-x="466" 
d="M84 298h300v240q0 13 9 19.5t19 6.5t18 -6.5t8 -20.5v-266v-271q0 -14 -8.5 -20.5t-19.5 -5.5q-10 0 -18 6.5t-8 19.5v244h-297l-1 -246q-3 -15 -11.5 -19.5t-18.5 -4.5q-10 -1 -18 4.5t-9 20.5l-1 274v265q2 13 10.5 18.5t18.5 5.5t18.5 -5t8.5 -19v-240z" />
    <glyph glyph-name="I" unicode="I" horiz-adv-x="115" 
d="M27 538q0 13 9 19.5t19 6.5t18 -6.5t8 -20.5v-537q0 -14 -8.5 -20.5t-19.5 -5.5q-10 0 -18 6.5t-8 19.5v538v0z" />
    <glyph glyph-name="J" unicode="J" horiz-adv-x="383" 
d="M296 538q0 13 9 19.5t19 6.5t18 -6.5t8 -20.5v-460q0 -6 -0.5 -8.5t-1.5 -4.5t-2.5 -3.5l-3.5 -3.5l-77 -76l-3.5 -3.5t-3.5 -2.5t-4.5 -1.5t-7.5 -0.5h-192q-13 0 -20 8.5t-7 18.5t7 18t20 8l181 1l61 61v450v0z" />
    <glyph glyph-name="K" unicode="K" horiz-adv-x="466" 
d="M81 0q0 -14 -8.5 -20.5t-19.5 -5.5q-10 0 -18 6.5t-8 19.5v231q0 13 6.5 19.5t20.5 7.5h200q7 -1 11 -2.5t8 -5.5q0 -1 1 -2t2 -3l158 -230q3 -5 4 -8.5t1 -6.5q0 -11 -8 -19t-18 -8h-1.5h-1.5q-6 0 -11.5 2.5t-9.5 9.5l-150 219h-158v-204v0zM27 538q0 13 9 19.5t19 6.5
t18 -6.5t8 -20.5v-202h158l150 219q4 5 9.5 8t11.5 3q11 -1 20 -9t9 -20q0 -3 -1.5 -6.5t-3.5 -7.5l-158 -230q-1 -2 -2 -3.5t-1 -2.5q-4 -4 -8 -5t-11 -1h-200q-14 0 -20.5 6.5t-6.5 20.5v231v0z" />
    <glyph glyph-name="L" unicode="L" horiz-adv-x="355" 
d="M27 538q0 13 9 19.5t19 6.5t18 -6.5t8 -20.5v-510h219q14 -1 20.5 -9.5t5.5 -18.5q0 -10 -6.5 -18t-19.5 -8h-246q-14 0 -20.5 6.5t-6.5 20.5v538v0z" />
    <glyph glyph-name="M" unicode="M" horiz-adv-x="928" 
d="M894 0q0 -14 -8.5 -20.5t-19.5 -5.5q-10 0 -18 6.5t-8 19.5l1 511h-230l-128 -248v-263q0 -9 -7.5 -14t-16.5 -5h-1.5h-1.5q-11 0 -18.5 4.5t-7.5 14.5v263l-127 249h-227v-513q0 -12 -5.5 -17.5t-19.5 -6.5q-12 0 -18 5t-5 17l1 568h290q8 -1 12 -2t7 -5q1 -2 2.5 -4
t2.5 -4l138 -268q0 -3 0.5 -4.5t1.5 -2.5q0 -2 0.5 -3.5t0.5 -3.5l-1 -268q0 -9 -7.5 -14t-16.5 -5h-1.5h-1.5q-10 0 -18 4.5t-8 14.5v269q0 1 0.5 2.5t1.5 3.5q0 1 0.5 2.5t0.5 3.5l138 270q1 1 1.5 2t1.5 2q3 6 7.5 7.5t13.5 1.5h8h291v-564v0z" />
    <glyph glyph-name="N" unicode="N" horiz-adv-x="466" 
d="M84 0q-5 -26 -28 -26t-29 26v535v1.5v1.5q0 10 7 18t20 8l83 1q11 -1 16.5 -4t8.5 -14l188 -520h34v511q0 13 9 19.5t19 6.5t18 -6.5t8 -20.5v-537q0 -14 -6.5 -20.5t-20.5 -6.5h-80q-12 0 -17 3.5t-9 14.5l-187 521h-34v-512z" />
    <glyph glyph-name="O" unicode="O" horiz-adv-x="466" 
d="M27 538q0 13 6.5 19.5t20.5 6.5l357 1q14 -1 20.5 -7.5t6.5 -20.5v-537q0 -14 -6.5 -20.5t-20.5 -6.5h-357q-14 0 -20.5 6.5t-6.5 20.5v538v0zM81 512v-485h303v485h-303v0z" />
    <glyph glyph-name="P" unicode="P" horiz-adv-x="465" 
d="M80 0q0 -14 -8.5 -20.5t-19.5 -5.5q-10 0 -18 6.5t-8 19.5v245h55l-1 -245v0zM26 512l1 20q-2 12 4.5 21.5t20.5 11.5h358q14 -1 20.5 -7.5t6.5 -20.5v-258q-1 -14 -7 -22t-21 -13h-383v268h53v-214h304v214h-357z" />
    <glyph glyph-name="Q" unicode="Q" horiz-adv-x="485" 
d="M283 93q-4 3 -5.5 7.5t-0.5 8.5q0 11 9 19t19 8h3.5t2.5 -1q3 -1 6.5 -2.5t5.5 -5.5l126 -143q4 -4 5.5 -8.5t1.5 -8.5q0 -11 -8.5 -19.5t-19.5 -8.5q-5 0 -9.5 2t-9.5 7l-126 145v0zM306 27q14 -1 20.5 -9.5t6.5 -18.5t-6.5 -18t-20.5 -8h-252q-14 0 -20.5 6.5
t-6.5 20.5v538q0 13 6.5 19.5t20.5 6.5l357 1q14 -1 20.5 -7.5t6.5 -20.5v-429q0 -14 -8.5 -21t-19.5 -7q-10 0 -18 7t-8 20v405h-303v-485h225v0z" />
    <glyph glyph-name="R" unicode="R" horiz-adv-x="466" 
d="M81 -1q-5 -26 -25.5 -26t-27.5 26q-1 213 0.5 236.5t26.5 22.5h246q9 -1 14 -3.5t9 -9.5l112 -233q2 -4 2.5 -7t0.5 -5q0 -12 -9.5 -19.5t-20.5 -7.5h-2.5t-2.5 1q-5 1 -9.5 4.5t-7.5 9.5l-103 214h-203v-203zM81 335h-53v201.5v1.5q0 10 7 18t20 9h341q14 -1 20.5 -7.5
t6.5 -20.5v-229q0 -15 -6.5 -21.5t-20.5 -6.5h-341q-13 0 -20 7.5t-7 20.5v27h341v177h-288v-177z" />
    <glyph glyph-name="S" unicode="S" horiz-adv-x="466" 
d="M384 245h54v-245q0 -14 -6.5 -20.5t-20.5 -6.5h-360q-13 0 -20 8.5t-7 18.5t7 18t20 8l333 1v218zM411 565q13 -1 19.5 -8.5t6.5 -16.5v-1.5v-1.5q0 -10 -6.5 -18t-19.5 -8l-330 1v-216h332q13 1 19 -4.5t6 -17.5v-30h-384q-13 5 -19.5 15.5t-7.5 23.5v255q0 13 6.5 19.5
t20.5 6.5l357 1v0z" />
    <glyph glyph-name="T" unicode="T" horiz-adv-x="466" 
d="M205 0v511h-151q-13 0 -19.5 7.5t-7.5 16.5v1.5v1.5q0 10 7 18t20 9h357q13 -1 19.5 -8.5t6.5 -16.5v-1.5v-1.5q0 -10 -6.5 -18t-19.5 -8h-152v-511q0 -14 -8.5 -20.5t-19.5 -5.5q-10 0 -18 6.5t-8 19.5v0z" />
    <glyph glyph-name="U" unicode="U" horiz-adv-x="466" 
d="M27 538q0 13 9 19.5t19 6.5t18 -6.5t8 -20.5v-396l77 -114h145q6 8 16 22l20 28q17 24 31 43.5l14 19.5v398q0 13 9 19.5t19 6.5t18 -6.5t8 -20.5v-405q0 -4 -0.5 -6t-0.5 -4q-1 -1 -2 -2.5t-2 -3.5l-94 -131q-2 -2 -3 -4t-3 -3q-3 -3 -6.5 -4t-9.5 -1h-174q-7 0 -11 1.5
t-8 5.5q0 1 -1 2t-2 3l-89 132q-1 1 -2 2.5t-2 2.5q0 2 -0.5 4t-0.5 5v407v0z" />
    <glyph glyph-name="V" unicode="V" horiz-adv-x="471" 
d="M27 535q0 16 9 22.5t19 6.5t16 -6t10 -21l139 -446l161 441q8 19 15.5 25.5t16.5 6.5q8 0 17 -7.5t8 -24.5l-181 -508q-10 -32 -15.5 -41t-8 -12t-13.5 -4q-12 1 -15.5 4t-8.5 11.5t-16 40.5z" />
    <glyph glyph-name="W" unicode="W" horiz-adv-x="748" 
d="M659 538q0 13 9 19.5t19 6.5t18 -6.5t8 -20.5v-563l-343 -1h-343v565q0 13 9 19.5t19 6.5t18 -6.5t8 -20.5v-510l289 -1l289 1v511v0zM342 504q0 13 9 19.5t19 5.5q10 0 18 -6.5t8 -19.5v-434q0 -14 -8.5 -21t-19.5 -6q-10 0 -18 6.5t-8 19.5v436v0z" />
    <glyph glyph-name="X" unicode="X" horiz-adv-x="466" 
d="M76 -15q-4 -7 -9.5 -9.5t-11.5 -2.5q-10 0 -19 8t-8 19q0 3 1 6.5t3 7.5l135 201q4 6 9.5 8.5t11.5 2.5h1.5h0.5q10 -1 18.5 -9t7.5 -19v-3.5t-1 -3.5q0 -2 -1 -3.5t-2 -3.5l-136 -199v0zM36 557.5q8 6.5 18 6.5q9 0 16.5 -6.5t9.5 -20.5v-208l336 -72q12 -3 17 -9t5 -18
v-230q0 -14 -8.5 -20.5t-19.5 -5.5q-10 0 -18 6.5t-8 19.5v209l-336 73q-11 1 -16 7t-5 18v231q1 13 9 19.5zM301 324q-3 -5 -6.5 -8t-7.5 -4q-2 0 -3.5 -0.5t-3.5 -0.5q-11 0 -20 8t-8 19v3.5t1 3.5q0 2 1 3.5t2 3.5l132 201q5 6 10.5 8.5t11.5 2.5q11 0 19.5 -8t8.5 -19
q0 -2 -0.5 -3.5t-1.5 -3.5q0 -2 -1 -3.5t-2 -3.5l-132 -199v0z" />
    <glyph glyph-name="Y" unicode="Y" horiz-adv-x="466" 
d="M385 538q0 12 7.5 18.5t16.5 7.5h1.5h1.5q10 0 18 -6.5t8 -20.5v-230q0 -12 -2 -18.5t-15 -7.5l-159 -41v-240q0 -14 -8.5 -20.5t-19.5 -5.5q-10 0 -18 6.5t-8 19.5v239l24 51l153 41v207v0zM27 538q0 13 9 19.5t19 6.5t18 -6.5t8 -20.5v-206l153 -39l-22 -54l-162 43
q-12 -1 -17.5 6t-5.5 20v231v0z" />
    <glyph glyph-name="Z" unicode="Z" horiz-adv-x="466" 
d="M162 211q5 6 10 8.5t11 2.5q11 0 20 -8.5t8 -19.5v-3t-1 -3q0 -2 -1 -3.5t-2 -3.5l-104 -154h309q14 -1 20.5 -9.5t5.5 -18.5q0 -10 -6.5 -18t-19.5 -8h-358q-13 0 -20 7t-7 18v3.5t1 4.5l2 4l2 4l130 197v0zM127 242q-13 -1 -20 8t-6 19q0 10 6.5 18t19.5 8l227 1
q14 -1 20.5 -9.5t5.5 -19.5q0 -10 -6.5 -18t-19.5 -8l-227 1v0zM65 512q-13 -1 -19.5 6.5t-6.5 16.5v1.5v1.5q0 10 6.5 18t19.5 8l347 1q13 -1 20 -9t7 -19q0 -4 -1.5 -7.5t-3.5 -7.5l-135 -199q-4 -7 -9.5 -10t-11.5 -3q-10 1 -19 9t-9 19q0 4 1.5 7.5t3.5 7.5l106 159
h-296v0z" />
    <glyph glyph-name="bracketleft" unicode="[" horiz-adv-x="217" 
d="M158 565q13 -1 19.5 -8.5t7.5 -16.5v-1.5v-1.5q0 -10 -6.5 -18t-20.5 -8l-77 1v-485h77q14 -1 20.5 -9.5t6.5 -18.5t-6.5 -18t-20.5 -8h-104q-14 0 -20.5 6.5t-6.5 20.5v538q0 13 6.5 19.5t20.5 6.5l104 1v0z" />
    <glyph glyph-name="backslash" unicode="\" horiz-adv-x="466" 
d="M32 524q-3 3 -4 6.5t-1 7.5q0 11 9 18.5t19 7.5q6 0 11.5 -3t9.5 -9l357 -537q2 -5 3.5 -8.5t1.5 -6.5q0 -11 -8.5 -19t-19.5 -8q-6 0 -11.5 3t-10.5 9l-356 539v0z" />
    <glyph glyph-name="bracketright" unicode="]" horiz-adv-x="217" 
d="M54 512q-13 -1 -19.5 6.5t-7.5 16.5v1.5v1.5q0 10 7 18t20 8l104 1q14 -1 20.5 -7.5t6.5 -20.5v-537q0 -14 -6.5 -20.5t-20.5 -6.5h-104q-13 0 -20 8.5t-7 18.5t7 18t20 8l78 1v485h-78v0z" />
    <glyph glyph-name="asciicircum" unicode="^" horiz-adv-x="365" 
d="M109 278q-4 -4 -8 -5.5t-9 -1.5q-10 0 -18.5 9t-8.5 19q0 5 2.5 10t7.5 9l97 78q5 2 9 4t8 2q3 0 7.5 -2t8.5 -5l97 -76q5 -5 7.5 -10.5t2.5 -10.5q-1 -10 -9 -18.5t-19 -8.5q-2 0 -4 0.5t-4 1.5q-2 0 -4 1.5t-4 2.5l-80 65l-79 -64v0z" />
    <glyph glyph-name="underscore" unicode="_" horiz-adv-x="466" 
d="M54 -81q-13 0 -20 8.5t-7 19.5q0 10 7 18t20 8h358q14 0 20.5 -9t5.5 -19q0 -10 -6.5 -18t-19.5 -8h-358v0z" />
    <glyph glyph-name="grave" unicode="`" horiz-adv-x="277" 
d="M37 605q-8 4 -11.5 11t-3.5 14v1.5v1.5q1 11 10.5 20.5t22.5 9.5q4 0 8 -1.5t8 -3.5l159 -99q8 -6 11.5 -12.5t3.5 -13.5q0 -13 -10 -23.5t-24 -10.5q-4 0 -7.5 1.5t-8.5 3.5l-158 101v0z" />
    <glyph glyph-name="a" unicode="a" horiz-adv-x="383" 
d="M97 244q-13 -1 -20 8t-6 19q0 10 6.5 18t19.5 9h228q14 -1 20.5 -7.5t6.5 -20.5v-270q0 -14 -6.5 -20.5t-20.5 -6.5h-271q-14 0 -20.5 6.5t-6.5 20.5v160q0 13 6.5 19.5t20.5 7.5h203q14 -1 20.5 -9.5t5.5 -19.5q0 -10 -6.5 -18t-19.5 -8h-176v-105h217v217h-201v0z" />
    <glyph glyph-name="b" unicode="b" horiz-adv-x="383" 
d="M27 538q0 13 9 19.5t19 6.5t18 -6.5t8 -20.5v-510h217v217h-173q-13 -1 -20 8t-7 19t7 18t20 9h200q14 -1 20.5 -7.5t6.5 -20.5v-270q0 -14 -6.5 -20.5t-20.5 -6.5h-271q-14 0 -20.5 6.5t-6.5 20.5v538v0z" />
    <glyph glyph-name="c" unicode="c" horiz-adv-x="383" 
d="M325 298q14 -1 20.5 -9.5t5.5 -19.5q0 -10 -6.5 -18t-19.5 -8h-244v-216h244q14 -1 20.5 -9.5t5.5 -18.5q0 -10 -6.5 -18t-19.5 -8h-271q-14 0 -20.5 6.5t-6.5 20.5v271q0 13 6.5 19.5t20.5 7.5h271v0z" />
    <glyph glyph-name="d" unicode="d" horiz-adv-x="383" 
d="M298 538q0 13 9 19.5t19 6.5t18 -6.5t8 -20.5v-537q0 -14 -6.5 -20.5t-20.5 -6.5h-271q-14 0 -20.5 6.5t-6.5 20.5v271q0 13 6.5 19.5t20.5 7.5h200q14 -1 20.5 -9.5t5.5 -19.5q0 -10 -6.5 -18t-19.5 -8h-173v-216h217v511v0z" />
    <glyph glyph-name="e" unicode="e" horiz-adv-x="383" 
d="M122 99q-12 1 -17.5 8.5t-5.5 16.5q0 11 4 17t18 9h175v94h-215v-217h244q14 -1 20.5 -9.5t5.5 -18.5q0 -10 -6.5 -18t-19.5 -8h-271q-14 0 -20.5 6.5t-6.5 20.5v271q0 13 6.5 19.5t20.5 6.5h271q12 0 19.5 -8.5t6.5 -19.5v-142q-1 -9 -8 -18t-15 -10h-206z" />
    <glyph glyph-name="f" unicode="f" horiz-adv-x="332" 
d="M218 242h-50v-242q0 -13 -7.5 -19.5t-16.5 -6.5h-1.5h-1.5q-10 0 -18 6.5t-8 19.5v242h-50q-13 -1 -20 8t-7 19t7 18t20 8l50 1v196q0 6 0.5 10t3.5 7q2 1 3.5 2.5t3.5 2.5l66 47q6 4 15 4h73q13 -1 19.5 -8.5t6.5 -16.5v-1.5v-1.5q0 -10 -6.5 -18t-19.5 -8h-67l-45 -33
v-182h50q14 -1 20.5 -9.5t6.5 -19.5q0 -10 -6.5 -18t-20.5 -8v1z" />
    <glyph glyph-name="g" unicode="g" horiz-adv-x="383" 
d="M123 -258q-13 0 -20 8.5t-6 19.5q0 10 6.5 18t19.5 8h173v446h-215v-215h165q14 -1 20.5 -9.5t6.5 -18.5t-6.5 -18t-20.5 -8h-192q-14 0 -20.5 6.5t-6.5 20.5v269q0 13 6.5 19.5t20.5 7.5h269q14 -1 20.5 -7.5t6.5 -20.5v-499q0 -14 -6.5 -20.5t-20.5 -6.5h-200v0z" />
    <glyph glyph-name="h" unicode="h" horiz-adv-x="383" 
d="M296 242h-215v-242q0 -14 -8.5 -20.5t-19.5 -5.5q-10 0 -18 6.5t-8 19.5v538q0 13 9 19.5t19 6.5t18 -6.5t8 -20.5v-241h242q14 -1 20.5 -7.5t6.5 -20.5v-268q0 -14 -8.5 -20.5t-19.5 -5.5q-10 0 -18 6.5t-8 19.5v242v0z" />
    <glyph glyph-name="i" unicode="i" horiz-adv-x="115" 
d="M27 269q0 13 9 19.5t19 6.5t18 -6.5t8 -20.5v-268q0 -14 -8.5 -20.5t-19.5 -5.5q-10 0 -18 6.5t-8 19.5v269v0zM81 350q0 -14 -8.5 -21t-19.5 -6q-10 0 -18 6.5t-8 19.5v39q0 13 9 19.5t19 6.5t18 -6.5t8 -20.5v-37v0z" />
    <glyph glyph-name="j" unicode="j" horiz-adv-x="134" 
d="M31 269q0 12 7.5 18.5t16.5 7.5h1.5h1.5q10 0 18 -6.5t8 -20.5v-499q0 -14 -6.5 -20.5t-20.5 -6.5h-61q-13 0 -19.5 8.5t-5.5 19.5q0 10 6.5 18t19.5 8h34v473v0zM84 350q0 -14 -7.5 -20.5t-16.5 -6.5h-1.5h-1.5q-10 0 -18 6.5t-8 19.5v39q0 12 7.5 18.5t16.5 7.5h1.5
h1.5q10 0 18 -6.5t8 -20.5v-37v0z" />
    <glyph glyph-name="k" unicode="k" horiz-adv-x="328" 
d="M81 538v-320l174 76q3 1 6 1h5q11 0 18 -8t8 -18v-1.5v-1.5q0 -7 -4 -13t-12 -9l-81 -35l91 -198q2 -4 2.5 -7t-0.5 -5q0 -11 -8.5 -18.5t-19.5 -7.5q-7 0 -13 4t-10 12l-92 199l-64 -29v-159q0 -14 -8.5 -20.5t-19.5 -5.5q-10 0 -18 6.5t-8 19.5v538q0 13 9 19.5t19 6.5
t18 -6.5t8 -20.5v1z" />
    <glyph glyph-name="l" unicode="l" horiz-adv-x="115" 
d="M27 538q0 13 9 19.5t19 6.5t18 -6.5t8 -20.5v-537q0 -14 -8.5 -20.5t-19.5 -5.5q-10 0 -18 6.5t-8 19.5v538v0z" />
    <glyph glyph-name="m" unicode="m" horiz-adv-x="651" 
d="M296 0v242h-215v-242q0 -14 -8.5 -20.5t-19.5 -5.5q-10 0 -18 6.5t-8 19.5v269q0 13 6.5 19.5t20.5 7.5h538q14 -1 20.5 -7.5t6.5 -20.5v-268q0 -14 -8.5 -20.5t-19.5 -5.5q-10 0 -18 6.5t-8 19.5v242h-215v-242q0 -14 -8.5 -20.5t-19.5 -5.5q-10 0 -18 6.5t-8 19.5v0z
" />
    <glyph glyph-name="n" unicode="n" horiz-adv-x="383" 
d="M77 0q0 -14 -8.5 -20.5t-19.5 -5.5q-10 0 -18 6.5t-8 19.5v269q0 13 7 19.5t20 7.5h273q14 -1 20.5 -7.5t6.5 -20.5v-268q0 -14 -8.5 -20.5t-19.5 -5.5q-10 0 -18 6.5t-8 19.5v242h-219v-242v0z" />
    <glyph glyph-name="o" unicode="o" horiz-adv-x="383" 
d="M27 269q0 13 6.5 19.5t20.5 7.5h269q14 -1 20.5 -7.5t6.5 -20.5v-268q0 -14 -6.5 -20.5t-20.5 -6.5h-269q-14 0 -20.5 6.5t-6.5 20.5v269v0zM81 242v-215h215v215h-215v0z" />
    <glyph glyph-name="p" unicode="p" horiz-adv-x="383" 
d="M81 -227q0 -14 -8.5 -20.5t-19.5 -5.5q-10 0 -18 6.5t-8 19.5v496q0 13 6.5 19.5t20.5 6.5l269 1q14 -1 20.5 -7.5t6.5 -20.5v-268q0 -14 -6.5 -20.5t-20.5 -6.5h-196q-13 0 -20 8.5t-6 18.5q0 10 6.5 18t19.5 8l169 1v215h-215v-469v0z" />
    <glyph glyph-name="q" unicode="q" horiz-adv-x="383" 
d="M352 -227q0 -14 -8.5 -20.5t-19.5 -5.5q-10 0 -18 6.5t-8 19.5v469h-216v-215h170q14 -1 20.5 -9.5t5.5 -18.5q0 -10 -6.5 -18t-19.5 -8h-197q-13 0 -20 6.5t-7 20.5v269q0 13 7 19.5t20 6.5l270 1q14 -1 20.5 -7.5t6.5 -20.5v-495v0z" />
    <glyph glyph-name="r" unicode="r" horiz-adv-x="383" 
d="M142 242l-61 -37v-205q0 -14 -8.5 -20.5t-19.5 -5.5q-10 0 -18 6.5t-8 19.5v269q0 13 9 19.5t19 6.5t18 -6.5t8 -20.5v0l40 24q6 3 14 4h134q5 -1 8 -1.5t6 -2.5q1 -1 2.5 -2t2.5 -2l54 -49q5 -5 6.5 -10t1.5 -10q0 -11 -9 -19.5t-20 -8.5q-2 0 -4 0.5t-4 1.5
q-2 0 -4 1.5t-4 3.5l-47 44h-116v0z" />
    <glyph glyph-name="s" unicode="s" horiz-adv-x="383" 
d="M323 296q14 -1 20.5 -9.5t5.5 -19.5q0 -10 -6.5 -18t-19.5 -8h-231v-79h231q14 -1 20.5 -7.5t6.5 -20.5v-134q0 -14 -6.5 -20.5t-20.5 -6.5h-269q-13 0 -20 8.5t-7 18.5t7 18t20 9h242v81h-231q-13 -1 -20 5.5t-7 20.5v135q0 13 7 19.5t20 7.5h258v0z" />
    <glyph glyph-name="t" unicode="t" horiz-adv-x="388" 
d="M54 377h108v161q0 12 7.5 18.5t16.5 7.5h1.5h1.5q10 0 18 -6.5t8 -20.5v-160h108q14 -1 20.5 -9.5t5.5 -19.5q0 -10 -6.5 -18t-19.5 -8l-108 1v-323q0 -13 -7.5 -19.5t-16.5 -6.5h-1.5h-1.5q-10 0 -18 6.5t-8 19.5v323h-108q-13 -1 -20 8t-7 19t7 18t20 8v1z" />
    <glyph glyph-name="u" unicode="u" horiz-adv-x="378" 
d="M27 269q0 13 9 19.5t19 6.5t18 -6.5t8 -20.5v-241h215v242q0 13 9 19.5t19 6.5t18 -6.5t8 -20.5v-268q0 -14 -6.5 -20.5t-20.5 -6.5h-269q-14 0 -20.5 6.5t-6.5 20.5v269v0z" />
    <glyph glyph-name="v" unicode="v" horiz-adv-x="314" 
d="M27 269q0 11 5 17.5t15 8.5q11 1 17.5 -2t13.5 -13l72 -198l79 198q6 10 11.5 12.5t15.5 2.5q13 -1 19 -7.5t5 -20.5l-104 -267q-6 -14 -11 -19.5t-15 -6.5q-10 1 -15.5 6.5t-9.5 18.5z" />
    <glyph glyph-name="w" unicode="w" horiz-adv-x="655" 
d="M325 -27h-1h-1h-269q-14 0 -20.5 6.5t-6.5 20.5v269q0 13 9 19.5t19 6.5t18 -6.5t8 -20.5v-241h215v242q0 13 9 19.5t19 6.5t18 -6.5t8 -20.5v-241h217v242q0 13 9 19.5t19 6.5t18 -6.5t8 -20.5v-268q0 -14 -6.5 -20.5t-20.5 -6.5h-269v0z" />
    <glyph glyph-name="x" unicode="x" horiz-adv-x="383" 
d="M342 250l-115 -115l115 -116q5 -5 6.5 -9.5t1.5 -9.5q0 -10 -8.5 -18.5t-19.5 -8.5h-3t-3 1q-3 1 -6 2.5t-6 4.5l-116 115l-115 -115q-4 -5 -9 -6.5t-10 -1.5q-10 0 -18.5 8.5t-8.5 18.5v3.5t1 2.5q1 3 2.5 6.5t4.5 5.5l115 117l-115 115q-4 4 -6 8.5t-2 9.5q0 11 8.5 19
t19.5 8q5 0 9.5 -1.5t8.5 -6.5l115 -114l116 115q5 4 9.5 5.5t8.5 1.5q11 0 19.5 -8.5t8.5 -19.5q0 -4 -1.5 -8.5t-6.5 -9.5v1z" />
    <glyph glyph-name="y" unicode="y" horiz-adv-x="383" 
d="M81 27h215v242q0 13 9 19.5t19 6.5t18 -6.5t8 -20.5v-495q0 -14 -8.5 -20.5t-19.5 -5.5q-10 0 -18 6.5t-8 19.5v200h-242q-14 0 -20.5 6.5t-6.5 20.5v269q0 13 9 19.5t19 6.5t18 -6.5t8 -20.5v-241v0z" />
    <glyph glyph-name="z" unicode="z" horiz-adv-x="383" 
d="M54 242q-13 -1 -20 8t-7 19t7 18t20 9h269q13 -1 20 -9t7 -19q0 -5 -1.5 -9.5t-6.5 -9.5l-223 -222h204q14 -1 20.5 -9.5t5.5 -18.5q0 -10 -6.5 -18t-19.5 -8h-269q-13 0 -20 8t-7 19q0 4 2 9t6 9l223 224h-204v0z" />
    <glyph glyph-name="braceleft" unicode="{" horiz-adv-x="286" 
d="M229 27q14 -1 20.5 -9.5t6.5 -18.5t-6.5 -18t-20.5 -8h-104q-13 0 -20 6.5t-7 20.5v242h-46q-13 -1 -20 8t-6 19q0 10 6.5 18t19.5 8l73 1q14 -1 20.5 -7.5t6.5 -20.5v-241h77v0zM229 565q13 -1 19.5 -8.5t7.5 -16.5v-1.5v-1.5q0 -10 -6.5 -18t-20.5 -8l-77 1v-166
q0 -14 -8.5 -21t-19.5 -6q-10 0 -18 6.5t-8 19.5v193q0 13 7 19.5t20 6.5l104 1v0z" />
    <glyph glyph-name="bar" unicode="|" horiz-adv-x="115" 
d="M27 598q0 13 9 19.5t19 5.5q10 0 18 -6.5t8 -19.5v-709q0 -14 -8.5 -20.5t-19.5 -6.5q-10 0 -18 6.5t-8 20.5v710v0z" />
    <glyph glyph-name="braceright" unicode="}" horiz-adv-x="286" 
d="M54 -27q-13 0 -20 8.5t-7 18.5t7 18t20 8l77 1v242q0 13 6.5 19.5t20.5 6.5l73 1q14 -1 20.5 -9.5t5.5 -19.5q0 -10 -6.5 -18t-19.5 -8l-46 1v-242q0 -14 -6.5 -20.5t-20.5 -6.5h-104v0zM54 512q-13 -1 -19.5 6.5t-7.5 16.5v1.5v1.5q0 10 7 18t20 8l104 1
q14 -1 20.5 -7.5t6.5 -20.5v-191q0 -14 -8.5 -21t-19.5 -6q-10 0 -18 6.5t-8 19.5v167h-77v0z" />
    <glyph glyph-name="asciitilde" unicode="~" horiz-adv-x="360" 
d="M105 280q-4 -5 -9 -6.5t-10 -1.5q-13 0 -23 10.5t-9 23.5q0 6 2.5 12t8.5 10l73 60q6 4 11.5 6t10.5 2t10.5 -3t10.5 -8l39 -38l50 41q3 1 5.5 2.5t4.5 1.5q2 1 4.5 1.5t5.5 0.5q13 0 22.5 -10t9.5 -23q0 -6 -3 -12t-9 -11l-72 -58q-6 -5 -11.5 -7.5t-10.5 -2.5
t-10.5 2.5t-10.5 8.5l-40 40l-50 -41v0z" />
    <glyph glyph-name="glyph163" unicode="&#xa1;" horiz-adv-x="115" 
d="M81 -4q0 -14 -8.5 -20.5t-19.5 -5.5q-10 0 -18 6.5t-8 19.5v412q0 13 9 19.5t19 5.5q10 0 18 -6.5t8 -19.5v-411v0zM81 477q0 -14 -8.5 -21t-19.5 -6q-10 0 -18 6.5t-8 19.5v59q0 13 9 19.5t19 5.5q10 0 18 -6.5t8 -19.5v-57v0z" />
    <glyph glyph-name="cent" unicode="&#xa2;" horiz-adv-x="383" 
d="M215 385v-31h108q14 -1 20.5 -9.5t5.5 -19.5q0 -10 -6.5 -18t-19.5 -8l-108 1v-215h108q14 -1 20.5 -9.5t5.5 -19.5q0 -10 -6.5 -18t-19.5 -8l-108 1v-31q0 -13 -7.5 -19.5t-16.5 -6.5h-1.5h-1.5q-10 0 -18 6.5t-8 19.5v31h-108q-14 -1 -20.5 5.5t-6.5 20.5v270
q0 13 6.5 19.5t20.5 6.5l108 1v31q0 12 7.5 18.5t16.5 6.5h1.5h1.5q10 0 18 -6.5t8 -19.5v1zM162 85v215h-81v-215h81v0z" />
    <glyph glyph-name="sterling" unicode="&#xa3;" horiz-adv-x="471" 
d="M204 242h-123v-215h237l83 36q3 1 6 1.5t5 -0.5q12 0 19.5 -8.5t6.5 -19.5q0 -7 -4 -13t-12 -10l-88 -38q-2 0 -3 -0.5t-2 -0.5q-2 0 -3 -0.5t-3 -0.5h-269q-14 0 -20.5 6.5t-6.5 20.5v481q0 4 0.5 6.5t1.5 4.5t2.5 3.5l3.5 3.5l57 59q2 1 3.5 2t3.5 2q2 2 5 2h8l211 1
q5 -1 7.5 -1t4.5 -2q2 0 3.5 -1.5l3.5 -3.5l46 -45q5 -5 6.5 -10t1.5 -10q0 -11 -9 -19.5t-20 -8.5q-2 0 -4 0.5t-4 1.5q-3 1 -5 2.5t-4 3.5l-38 40h-189l-42 -43v-173h123q14 -1 20.5 -9.5t5.5 -19.5q0 -10 -6.5 -18t-19.5 -8v1z" />
    <glyph glyph-name="Idieresis" unicode="&#xa4;" horiz-adv-x="402" 
d="M50 97q-4 -5 -8.5 -7t-9.5 -2q-11 1 -19.5 9.5t-7.5 19.5q0 5 2 9t6 8l39 39q-1 0 -1.5 1t-1.5 2q-10 14 -18 37t-8 55q0 14 9 20.5t19 6.5t18 -6.5t8 -20.5q0 -20 4.5 -34t9.5 -23q6 -10 10.5 -14t3.5 -4t-2 -1t-1 -3q0 -3 1 -7.5t3 -8.5q2 -7 3 -13t-1 -8l-58 -55v0z
M359 136q2 -3 3.5 -5t2.5 -4q1 -3 1.5 -5t0.5 -4q-1 -11 -9 -19.5t-19 -8.5q-4 0 -8.5 2t-9.5 6l-38 40q-1 -2 -2 -2.5t-2 -1.5q-14 -10 -37 -18t-55 -8q-13 0 -20 9t-6 19q0 10 6.5 18t19.5 8q20 0 34 4.5t23 10.5q10 6 14 10.5t4 3.5q0 -4 6 -2.5l14 3.5v0h1l8 2t7 1
q2 0 3 -0.5t2 -1.5l56 -57v0zM320 438q5 3 9.5 5t8.5 2q11 -1 19.5 -9t7.5 -19q0 -4 -1.5 -8.5t-6.5 -9.5l-39 -37l1.5 -3t1.5 -2q10 -14 18 -37t8 -55q0 -13 -8.5 -20t-19.5 -6q-10 0 -18 6.5t-8 19.5q0 20 -4.5 34.5t-9.5 23.5q-6 10 -10.5 14t-3.5 4q2 0 2.5 1.5t0.5 2.5
q0 3 -1 7t-3 9q-2 6 -3 12t1 8l58 57v0zM15 406q-2 1 -3.5 3t-1.5 5q-1 2 -1.5 4t-0.5 4q0 11 9 20t19 8q5 0 9.5 -1.5t8.5 -6.5l38 -37q2 0 3.5 1t3.5 3q15 8 37 15.5t52 7.5q14 0 20.5 -8.5t5.5 -19.5q0 -10 -6.5 -18t-19.5 -8q-20 0 -34.5 -4.5t-23.5 -9.5
q-10 -6 -14 -10.5t-4 -3.5q0 2 -1 2.5t-3 0.5q-3 0 -7 -1t-9 -3q-6 -2 -12 -3t-8 1l-57 59v0z" />
    <glyph glyph-name="ae" unicode="&#xa5;" horiz-adv-x="466" 
d="M354 77h-92v-77q0 -14 -8.5 -20.5t-19.5 -5.5q-10 0 -18 6.5t-8 19.5v77h-100q-13 -1 -20 8t-7 19t7 18t20 8l100 1v54q0 9 3 14t12 9l162 78v252q0 12 7.5 18.5t16.5 7.5h1.5h1.5q10 0 18 -6.5t8 -20.5v-268q0 -11 -3 -16t-12 -9l-161 -76v-37h92q14 -1 20.5 -9.5
t5.5 -19.5q0 -10 -6.5 -18t-19.5 -8v1zM27 538q0 13 9 19.5t19 6.5t18 -6.5t8 -20.5v-206l146 -39q12 -2 17.5 -10t5.5 -17v-1.5v-0.5q-1 -10 -8 -18.5t-19 -7.5h-0.5h-1.5h-1.5h-0.5l-169 44q-12 -1 -17.5 6t-5.5 20v231v0z" />
    <glyph glyph-name="brokenbar" unicode="&#xa6;" 
 />
    <glyph glyph-name="section" unicode="&#xa7;" horiz-adv-x="471" 
d="M28 39q0 13 9 19.5t19 6.5t18 -6.5t8 -20.5v-14h304v354h-215v-108q0 -14 -8.5 -21t-19.5 -6q-10 0 -18 6.5t-8 19.5v136q0 13 6.5 19.5t20.5 6.5l269 1q14 -1 20.5 -7.5t6.5 -20.5v-407q0 -14 -6.5 -20.5t-20.5 -6.5h-358q-13 0 -20 6.5t-7 20.5v42v0zM438 500
q0 -14 -7.5 -20.5t-16.5 -6.5h-1.5h-1.5q-10 0 -18 6.5t-8 19.5v13h-304v-354h215v111q0 13 9 19.5t19 6.5t18 -6.5t8 -20.5v-137q0 -15 -6.5 -21.5t-20.5 -6.5l-269 1q-14 -1 -20.5 5.5t-6.5 20.5v408q0 13 6.5 19.5t20.5 6.5l358 1q14 -1 20 -7.5t6 -20.5v-37v0z" />
    <glyph glyph-name="dieresis" unicode="&#xa8;" 
d="M77 538q-13 -1 -20 8t-6 19q0 10 6.5 18t19.5 8l104 1q14 -1 20.5 -9.5t5.5 -19.5q0 -10 -6.5 -18t-19.5 -8l-104 1v0zM250 538q-13 -1 -20 8t-6 19q0 10 6.5 18t19.5 8l104 1q14 -1 20.5 -9.5t5.5 -19.5q0 -10 -6.5 -18t-19.5 -8l-104 1v0z" />
    <glyph glyph-name="copyright" unicode="&#xa9;" horiz-adv-x="471" 
d="M27 481q0 13 6.5 19.5t20.5 6.5l358 1q14 -1 20 -7.5t6 -20.5v-361q0 -14 -6 -21t-20 -7l-358 1q-14 -1 -20.5 6t-6.5 20v363v0zM81 454v-308h304v308h-304v0zM292 246q14 -1 20.5 -9.5t6.5 -19.5q0 -10 -6.5 -18t-20.5 -8l-119 1q-13 -1 -20 6t-7 20v178q0 13 7 19.5
t20 6.5l119 1q14 -1 20.5 -9.5t6.5 -19.5q0 -10 -6.5 -18t-20.5 -8l-92 1v-123h92v0z" />
    <glyph glyph-name="ellipsis" unicode="&#xaa;" horiz-adv-x="397" 
d="M100 513q-13 -1 -20 8t-6 19q0 10 6.5 18t19.5 8l228 1q14 -1 20.5 -7.5t6.5 -20.5v-270q0 -14 -6.5 -21t-20.5 -7l-271 1q-14 -1 -20.5 6t-6.5 20v161q0 13 6.5 19.5t20.5 6.5l203 1q14 -1 20.5 -9.5t5.5 -19.5q0 -10 -6.5 -18t-19.5 -8l-176 1v-106h217v217h-201v0z
" />
    <glyph glyph-name="ydieresis" unicode="&#xab;" horiz-adv-x="378" 
d="M157 113q2 -4 2.5 -7t0.5 -6q-1 -10 -9 -17.5t-18 -8.5h-1.5h-1.5q-7 0 -12.5 3.5t-9.5 11.5l-79 167q-1 2 -1.5 3.5t-1.5 3.5v2v2q0 2 1.5 5t2.5 7l78 153q5 7 11 10.5t13 3.5h1.5h1.5q9 -1 16.5 -8t7.5 -18v-3t-1 -3q0 -2 -0.5 -3.5t-1.5 -3.5l-72 -139l73 -155v0z
M346 113q2 -4 2.5 -7t0.5 -6q0 -11 -9.5 -18.5t-20.5 -7.5h-2.5t-2.5 1q-5 1 -9.5 4t-7.5 10l-79 167q-1 3 -2 5.5t-1 4.5l2 6t2 7l79 153q4 7 10 10.5t13 3.5q11 0 19.5 -7.5t7.5 -18.5v-3t-1 -3q0 -2 -0.5 -3.5t-1.5 -3.5l-72 -139l73 -155v0z" />
    <glyph glyph-name="emdash" unicode="&#xac;" 
 />
    <glyph glyph-name="uni00AD" unicode="&#xad;" horiz-adv-x="500" 
 />
    <glyph glyph-name="registered" unicode="&#xae;" horiz-adv-x="471" 
d="M27 481q0 13 6.5 19.5t20.5 6.5l358 1q14 -1 20 -7.5t6 -20.5v-361q0 -14 -6 -21t-20 -7l-358 1q-14 -1 -20.5 6t-6.5 20v363v0zM81 454v-308h304v308h-304v0zM200 219q0 -14 -8.5 -21t-19.5 -6q-10 0 -18 6.5t-8 19.5v178q0 13 7 19.5t20 6.5l119 1q14 -1 20.5 -7.5
t6.5 -20.5v-80q0 -14 -6.5 -21t-20.5 -7l-21 1l45 -51q4 -5 5.5 -9t0.5 -9q0 -10 -8.5 -18.5t-19.5 -8.5h-3t-3 1q-3 1 -6 3t-6 5l-84 97q-4 4 -5.5 8.5t-1.5 9.5q0 10 7.5 17.5t19.5 7.5l53 1v27h-65v-150v0z" />
    <glyph glyph-name="glyph263" unicode="&#xaf;" 
 />
    <glyph glyph-name="glyph264" unicode="&#xb0;" 
 />
    <glyph glyph-name="mu" unicode="&#xb1;" horiz-adv-x="388" 
d="M323 77q14 -1 20.5 -9.5t5.5 -19.5q0 -10 -6.5 -18t-19.5 -8l-269 1q-13 -1 -20 8t-7 19t7 18t20 8l269 1v0zM54 296h104v104q0 13 9 19.5t19 5.5q10 0 18 -6.5t8 -19.5v-103h103q14 -1 20.5 -9.5t6.5 -19.5q0 -10 -6.5 -18t-20.5 -8l-103 1v-104q0 -14 -8.5 -21
t-19.5 -6q-10 0 -18 6.5t-8 19.5v105h-104q-13 -1 -20 8t-7 19t7 18t20 8v1z" />
    <glyph glyph-name="uni00B2" unicode="&#xb2;" 
 />
    <glyph glyph-name="uni00B3" unicode="&#xb3;" 
 />
    <glyph glyph-name="acute" unicode="&#xb4;" horiz-adv-x="245" 
d="M173 558q4 1 7.5 2t6.5 1q11 0 19 -8t9 -18v-1.5v-1.5q0 -6 -3 -11.5t-10 -9.5l-134 -84q-4 -3 -7.5 -4t-7.5 -1q-11 0 -19.5 9.5t-7.5 20.5v2.5t1 2.5q1 4 3.5 8t7.5 7l135 86v0z" />
    <glyph glyph-name="oslash" unicode="&#xb5;" horiz-adv-x="383" 
d="M323 -27h-242v-200q0 -14 -8.5 -20.5t-19.5 -5.5q-10 0 -18 6.5t-8 19.5v496q0 13 9 19.5t19 6.5t18 -6.5t8 -20.5v-241h215v242q0 13 9 19.5t19 6.5t18 -6.5t8 -20.5v-268q0 -14 -6.5 -20.5t-20.5 -6.5v0z" />
    <glyph glyph-name="paragraph" unicode="&#xb6;" horiz-adv-x="471" 
d="M296 462q0 13 9 19.5t19 5.5q10 0 18 -6.5t8 -19.5v-530q0 -14 -8.5 -20.5t-19.5 -6.5q-10 0 -18 6.5t-8 20.5v531v0zM385 462q0 12 7.5 18.5t16.5 6.5h1.5h1.5q10 0 18 -6.5t8 -19.5v-530q0 -13 -7.5 -19.5t-16.5 -7.5h-1.5h-1.5q-10 0 -18 6.5t-8 20.5v531v0zM412 565
q13 -1 19.5 -8.5t6.5 -16.5v-1.5v-1.5q0 -10 -6.5 -18t-19.5 -8l-331 1v-216h177q14 -1 20.5 -9.5t5.5 -19.5q0 -10 -6.5 -18t-19.5 -8l-204 1q-14 -1 -20.5 6t-6.5 20v270q0 13 6.5 19.5t20.5 6.5l358 1v0z" />
    <glyph glyph-name="glyph265" unicode="&#xb7;" 
 />
    <glyph glyph-name="bullet" unicode="&#xb8;" horiz-adv-x="355" 
d="M235 -105q4 -5 6 -9.5t2 -8.5q-1 -11 -10 -20t-20 -9q-4 0 -8.5 2t-8.5 6l-55 56q-3 3 -4.5 5.5t-3.5 4.5q-1 2 -1.5 4.5t-0.5 5.5q0 4 3 8.5t7 9.5l46 46q5 4 9.5 5.5t9.5 1.5q11 0 19 -8.5t8 -18.5v-3.5t-1 -2.5q-1 -3 -2.5 -6.5t-4.5 -5.5l-27 -27l37 -36v0z" />
    <glyph glyph-name="uni00B9" unicode="&#xb9;" 
 />
    <glyph glyph-name="Agrave" unicode="&#xba;" horiz-adv-x="397" 
d="M30 538q0 13 6.5 19.5t20.5 6.5l269 1q14 -1 20.5 -7.5t6.5 -20.5v-268q0 -14 -6.5 -21t-20.5 -7l-269 1q-14 -1 -20.5 6t-6.5 20v270v0zM84 512v-216h215v216h-215v0z" />
    <glyph glyph-name="Ydieresis" unicode="&#xbb;" horiz-adv-x="378" 
d="M83 90q-4 -9 -10 -12.5t-13 -3.5q-11 0 -20 7.5t-9 19.5q0 2 1 5l2 6l73 156l-72 140q-2 3 -3 6t-1 6q1 11 9.5 18.5t18.5 7.5q7 0 13 -3.5t10 -11.5l79 -151q1 -4 2 -6.5t2 -4.5v-1.5v-1.5q0 -2 -0.5 -5t-2.5 -6l-79 -165v0zM272 90q-4 -9 -9.5 -12.5t-12.5 -3.5
q-11 0 -20.5 7.5t-9.5 19.5q0 2 1 5l2 6l73 156l-72 140l-2 6t-1 6q0 11 9 18.5t19 7.5q7 0 13 -3.5t10 -11.5l78 -151q2 -5 3 -8t1 -6q0 -2 -0.5 -4.5t-2.5 -6.5l-79 -165v0z" />
    <glyph glyph-name="onequarter" unicode="&#xbc;" 
 />
    <glyph glyph-name="glyph243" unicode="&#xbd;" horiz-adv-x="500" 
 />
    <glyph glyph-name="threequarters" unicode="&#xbe;" 
 />
    <glyph glyph-name="oe" unicode="&#xbf;" horiz-adv-x="485" 
d="M424 35q14 -1 20.5 -9.5t5.5 -19.5q0 -9 -6.5 -17t-19.5 -8h-358q-13 0 -20 6.5t-7 19.5v178q0 7 2 11t7 8l3 1.5l3 1.5l162 86v107q0 13 9 19.5t19 5.5q10 0 18 -6.5t8 -19.5v-122q0 -10 -1.5 -14.5t-7.5 -7.5l-3 -1.5l-3 -1.5l-162 -84v-133h331v0zM216 546
q0 13 9 19.5t19 6.5t18 -6.5t8 -20.5v-49q0 -14 -8.5 -21t-19.5 -6q-10 0 -18 6.5t-8 19.5v51v0z" />
    <glyph glyph-name="currency" unicode="&#xc0;" horiz-adv-x="471" 
d="M80 -7q-3 -11 -10.5 -15.5t-15.5 -4.5q-10 1 -19 8t-8 18v1.5v1.5t0.5 2t0.5 2l135 490q0 4 2 7t6 5q1 1 2.5 2t3.5 2l98 50q2 -1 3.5 -0.5t3.5 1.5q1 0 2.5 0.5t3.5 0.5l123 1q14 -1 20.5 -7.5t6.5 -20.5v-266q0 -15 -6.5 -21.5t-20.5 -6.5l-194 1q-13 -1 -20 8t-6 19
q0 10 6.5 18t19.5 8l167 1v214h-90l-82 -41l-132 -478v0zM206 702q-8 4 -11.5 11t-3.5 14v1.5v1.5q1 11 10.5 20.5t22.5 9.5q2 0 4 -0.5t4 -0.5l4 -2l4 -2l159 -99q8 -6 11.5 -12.5t3.5 -14.5q0 -13 -9.5 -23.5t-23.5 -9.5q-2 0 -4 0.5t-4 0.5l-4 2l-4 2l-159 101v0z" />
    <glyph glyph-name="breve" unicode="&#xc1;" horiz-adv-x="480" 
d="M85 -7q-3 -11 -10.5 -15.5t-15.5 -4.5q-10 1 -19 8t-9 18v1.5v1.5t0.5 2t0.5 2l136 490q0 4 1.5 7t5.5 5q2 1 3.5 2t3.5 2l98 50q2 -1 3 -0.5t2 0.5v0l1 1q1 0 2.5 0.5t3.5 0.5l123 1q14 -1 20.5 -7.5t6.5 -20.5v-266q0 -15 -6.5 -21.5t-20.5 -6.5l-193 1q-13 -1 -20 8
t-7 19t7 18t20 8l166 1v214h-90l-81 -41l-132 -478v0zM365 752q4 1 7.5 2t7.5 1q11 0 19.5 -9.5t7.5 -20.5q0 -6 -2.5 -11t-9.5 -10l-135 -83q-4 -3 -7.5 -4.5t-7.5 -1.5q-11 1 -19 10t-8 19q0 6 3 12t10 10l134 86v0z" />
    <glyph glyph-name="tilde" unicode="&#xc2;" horiz-adv-x="480" 
d="M85 -7q-3 -11 -10.5 -15.5t-15.5 -4.5q-10 1 -19 8t-9 18v1.5v1.5t0.5 2t0.5 2l136 490q0 4 1.5 7t5.5 5q2 1 3.5 2t3.5 2l98 50q2 -1 3 -0.5t2 0.5v0l1 1q1 0 2.5 0.5t3.5 0.5l123 1q14 -1 20.5 -7.5t6.5 -20.5v-266q0 -15 -6.5 -21.5t-20.5 -6.5l-193 1q-13 -1 -20 8
t-7 19t7 18t20 8l166 1v214h-90l-81 -41l-132 -478v0zM209 615q-4 -4 -8 -5.5t-9 -1.5q-10 0 -18.5 9t-8.5 19q0 5 2.5 10t7.5 9l97 78q5 2 9 4t8 2q3 0 7.5 -2t8.5 -5l97 -76q5 -5 7.5 -10.5t2.5 -10.5q-1 -10 -9 -18.5t-19 -8.5q-2 0 -4 0.5t-4 1.5q-2 0 -4 1.5t-4 2.5
l-80 64l-79 -63v0z" />
    <glyph glyph-name="guilsinglleft" unicode="&#xc3;" horiz-adv-x="475" 
d="M85 -7q-3 -11 -10.5 -15.5t-15.5 -4.5q-10 1 -19 8t-9 18v1.5v1.5t0.5 2t0.5 2l136 490q0 4 1.5 7t5.5 5q2 1 3.5 2t3.5 2l98 50q2 -1 3 -0.5t2 0.5v0l1 1q1 0 2.5 0.5t3.5 0.5l123 1q14 -1 20.5 -7.5t6.5 -20.5v-266q0 -15 -6.5 -21.5t-20.5 -6.5l-193 1q-13 -1 -20 8
t-7 19t7 18t20 8l166 1v214h-90l-81 -41l-132 -478v0zM221 592q-4 -4 -8 -5.5t-9 -1.5q-10 0 -18.5 9t-8.5 19q0 5 2.5 10t7.5 9l61 51q5 3 10 5t9 2q5 0 9.5 -2t8.5 -7l33 -33l42 35q4 2 8.5 3.5t8.5 1.5q11 0 19 -8.5t8 -19.5q0 -5 -2.5 -10t-7.5 -9l-62 -49
q-5 -5 -9.5 -7t-9.5 -2q-2 0 -4 0.5t-4 1.5q-3 1 -5 3l-4 4l-33 34l-42 -34v0z" />
    <glyph glyph-name="Adieresis" unicode="&#xc4;" horiz-adv-x="475" 
d="M85 -7q-3 -11 -10.5 -15.5t-15.5 -4.5q-10 1 -19 8t-9 18v1.5v1.5t0.5 2t0.5 2l136 490q0 4 1.5 7t5.5 5q2 1 3.5 2t3.5 2l98 50q2 -1 3 -0.5t2 0.5v0l1 1q1 0 2.5 0.5t3.5 0.5l123 1q14 -1 20.5 -7.5t6.5 -20.5v-266q0 -15 -6.5 -21.5t-20.5 -6.5l-193 1q-13 -1 -20 8
t-7 19t7 18t20 8l166 1v214h-90l-81 -41l-132 -478v0zM133 581q-13 -1 -20 8t-6 19q0 10 6.5 18t19.5 8l104 1q14 -1 20.5 -9.5t5.5 -19.5q0 -10 -6.5 -18t-19.5 -8l-104 1v0zM306 581q-13 -1 -20 8t-6 19q0 10 6.5 18t19.5 8l104 1q14 -1 20.5 -9.5t5.5 -19.5
q0 -10 -6.5 -18t-19.5 -8l-104 1v0z" />
    <glyph glyph-name="Aring" unicode="&#xc5;" horiz-adv-x="485" 
d="M80 -7q-3 -11 -10.5 -15.5t-15.5 -4.5q-10 1 -19 8t-8 18v1.5v1.5t0.5 2t0.5 2l135 490q0 4 2 7t6 5q1 1 2.5 2t3.5 2l98 50q2 -1 3.5 -0.5t3.5 1.5q1 0 2.5 0.5t3.5 0.5l123 1q14 -1 20.5 -7.5t6.5 -20.5v-266q0 -15 -6.5 -21.5t-20.5 -6.5l-194 1q-13 -1 -20 8t-6 19
q0 10 6.5 18t19.5 8l167 1v214h-90l-82 -41l-132 -478v0zM348 738q38 -1 64.5 -28t26.5 -65t-26.5 -64.5t-64.5 -26.5t-65 26.5t-27 64.5t27 65t65 27v1zM348 684q-15 -1 -26.5 -12.5t-11.5 -26.5t11.5 -26.5t26.5 -11.5t26 11.5t11 26.5t-11 26.5t-26 11.5v1z" />
    <glyph glyph-name="Oslash" unicode="&#xc6;" horiz-adv-x="905" 
d="M75 -7q-3 -11 -10 -15.5t-15 -4.5q-10 1 -19 8t-9 18v1.5v1.5t0.5 2t0.5 2l135 490q0 4 2 7t6 5q1 1 2.5 2t3.5 2l99 50q2 -1 3 -0.5t2 0.5v0l1 1q1 0 2.5 0.5t3.5 0.5l123 1q14 -1 20.5 -7.5t6.5 -20.5v-266q0 -15 -6.5 -21.5t-20.5 -6.5l-194 1q-13 -1 -20 8t-6 19
q0 10 6.5 18t19.5 8l167 1v214h-90l-81 -41l-133 -478v0zM425 -27q-13 0 -20 8.5t-7 18.5t7 18t20 8l423 1q14 -1 20.5 -9.5t5.5 -18.5q0 -10 -6.5 -18t-19.5 -8h-423v0zM502 242q-13 -1 -20 8t-7 19t7 18t20 8l269 1q14 -1 20.5 -9.5t5.5 -19.5q0 -10 -6.5 -18t-19.5 -8
l-269 1v0zM425 512q-13 -1 -19.5 6.5t-7.5 16.5v1.5v1.5q0 10 7 18t20 8l423 1q13 -1 19.5 -8.5t6.5 -16.5v-1.5v-1.5q0 -10 -6.5 -18t-19.5 -8l-423 1v0z" />
    <glyph glyph-name="Ccedilla" unicode="&#xc7;" horiz-adv-x="466" 
d="M233 -105q5 -5 6.5 -9.5t1.5 -9.5q0 -11 -9 -19.5t-20 -7.5q-4 0 -8.5 1.5t-8.5 5.5l-56 56q-3 3 -4.5 5.5t-3.5 4.5q-1 2 -1.5 4.5t-0.5 5.5q0 4 3 8.5t7 9.5l46 46q5 4 9.5 5.5t9.5 1.5q11 0 19.5 -8.5t7.5 -19.5q0 -5 -1.5 -9t-5.5 -8l-27 -27l36 -36v0zM409 565
q13 -1 19.5 -8.5t7.5 -16.5v-1.5v-1.5q0 -10 -6.5 -18t-20.5 -8l-330 1v-485h330q14 -1 20.5 -9.5t6.5 -18.5t-6.5 -18t-20.5 -8h-357q-13 0 -20 6.5t-7 20.5v538q0 13 7 19.5t20 6.5l357 1v0z" />
    <glyph glyph-name="ring" unicode="&#xc8;" horiz-adv-x="535" 
d="M52 -27q-13 0 -20 8.5t-6 18.5q0 10 6.5 18t19.5 8l423 1q14 -1 20.5 -9.5t6.5 -18.5t-6.5 -18t-20.5 -8h-423v0zM129 242q-13 -1 -20 8t-6 19q0 10 6.5 18t19.5 8l269 1q14 -1 20.5 -9.5t6.5 -19.5q0 -10 -6.5 -18t-20.5 -8l-269 1v0zM52 512q-13 -1 -19.5 6.5
t-6.5 16.5v1.5v1.5q0 10 6.5 18t19.5 8l423 1q13 -1 19.5 -8.5t7.5 -16.5v-1.5v-1.5q0 -10 -6.5 -18t-20.5 -8l-423 1v0zM174 697q-8 4 -11.5 11t-3.5 14q0 13 10 23.5t23 10.5q2 0 4 -0.5t4 -0.5l4 -2l4 -2l159 -99q8 -6 11.5 -12.5t3.5 -14.5q0 -13 -10 -23.5t-24 -10.5
q-4 0 -7.5 1.5t-8.5 3.5l-158 101v0z" />
    <glyph glyph-name="Eacute" unicode="&#xc9;" horiz-adv-x="535" 
d="M52 -27q-13 0 -20 8.5t-6 18.5q0 10 6.5 18t19.5 8l423 1q14 -1 20.5 -9.5t6.5 -18.5t-6.5 -18t-20.5 -8h-423v0zM129 242q-13 -1 -20 8t-6 19q0 10 6.5 18t19.5 8l269 1q14 -1 20.5 -9.5t6.5 -19.5q0 -10 -6.5 -18t-20.5 -8l-269 1v0zM52 512q-13 -1 -19.5 6.5
t-6.5 16.5v1.5v1.5q0 10 6.5 18t19.5 8l423 1q13 -1 19.5 -8.5t7.5 -16.5v-1.5v-1.5q0 -10 -6.5 -18t-20.5 -8l-423 1v0zM324 738q4 1 7.5 2t6.5 1q11 0 19 -8t9 -18v-1.5v-1.5q0 -6 -3 -11.5t-10 -9.5l-135 -84q-4 -3 -7.5 -4t-6.5 -1q-11 0 -19 8t-9 18v1.5v1.5
q0 6 3 11.5t10 9.5l135 86v0z" />
    <glyph glyph-name="macron" unicode="&#xca;" horiz-adv-x="540" 
d="M52 -27q-13 0 -20 8.5t-6 18.5q0 10 6.5 18t19.5 8l423 1q14 -1 20.5 -9.5t6.5 -18.5t-6.5 -18t-20.5 -8h-423v0zM129 242q-13 -1 -20 8t-6 19q0 10 6.5 18t19.5 8l269 1q14 -1 20.5 -9.5t6.5 -19.5q0 -10 -6.5 -18t-20.5 -8l-269 1v0zM52 512q-13 -1 -19.5 6.5
t-6.5 16.5v1.5v1.5q0 10 6.5 18t19.5 8l423 1q13 -1 19.5 -8.5t7.5 -16.5v-1.5v-1.5q0 -10 -6.5 -18t-20.5 -8l-423 1v0zM191 615q-4 -4 -8 -5.5t-9 -1.5q-10 0 -18.5 9t-8.5 19q0 5 2.5 10t7.5 9l96 78q5 3 9.5 4.5t8.5 1.5t8 -2t8 -5l96 -76q5 -5 8 -10.5t2 -10.5
q0 -10 -8 -18.5t-19 -8.5q-2 0 -4 0.5t-4 1.5q-3 0 -5 1.5t-4 2.5l-79 64l-79 -63v0z" />
    <glyph glyph-name="dotaccent" unicode="&#xcb;" horiz-adv-x="535" 
d="M57 -27q-13 0 -20 8.5t-6 18.5q0 10 6.5 18t19.5 8l423 1q14 -1 20.5 -9.5t5.5 -18.5q0 -10 -6.5 -18t-19.5 -8h-423v0zM134 242q-13 -1 -20 8t-7 19t7 18t20 8l269 1q14 -1 20.5 -9.5t5.5 -19.5q0 -10 -6.5 -18t-19.5 -8l-269 1v0zM57 512q-13 -1 -19.5 6.5t-6.5 16.5
v1.5v1.5q0 10 6.5 18t19.5 8l423 1q13 -1 19.5 -8.5t6.5 -16.5v-1.5v-1.5q0 -10 -6.5 -18t-19.5 -8l-423 1v0zM122 588q-13 -1 -20 8t-6 19q0 10 6.5 18t19.5 8l104 1q14 -1 20.5 -9.5t6.5 -19.5q0 -10 -6.5 -18t-20.5 -8l-104 1v0zM295 588q-13 -1 -20 8t-6 19q0 10 6.5 18
t19.5 8l104 1q14 -1 20.5 -9.5t6.5 -19.5q0 -10 -6.5 -18t-20.5 -8l-104 1v0z" />
    <glyph glyph-name="caron" unicode="&#xcc;" horiz-adv-x="277" 
d="M113 538q0 13 9 19.5t19 6.5t18 -6.5t8 -20.5v-537q0 -14 -8.5 -20.5t-19.5 -5.5q-10 0 -18 6.5t-8 19.5v538v0zM35 697q-8 4 -11.5 11t-3.5 14q0 13 10 23.5t24 10.5q4 0 7.5 -1.5t7.5 -3.5l159 -99q8 -6 11.5 -13t3.5 -15q0 -13 -9.5 -23.5t-23.5 -9.5q-2 0 -4 0.5
t-4 0.5l-4 2l-4 2l-159 101v0z" />
    <glyph glyph-name="cedilla" unicode="&#xcd;" horiz-adv-x="235" 
d="M81 538q0 13 9 19.5t19 6.5t18 -6.5t8 -20.5v-537q0 -14 -8.5 -20.5t-19.5 -5.5q-10 0 -18 6.5t-8 19.5v538v0zM162 752q4 1 7.5 2t7.5 1q11 0 19.5 -9.5t7.5 -20.5q0 -6 -2.5 -11t-9.5 -10l-135 -83q-4 -3 -7.5 -4.5t-7.5 -1.5q-11 1 -19 10t-8 19q0 6 3 12t10 10
l134 86v0z" />
    <glyph glyph-name="hungarumlaut" unicode="&#xce;" horiz-adv-x="291" 
d="M118 538q0 13 9 19.5t19 6.5t18 -6.5t8 -20.5v-537q0 -14 -8.5 -20.5t-19.5 -5.5q-10 0 -18 6.5t-8 19.5v538v0zM62 619q-2 -2 -4 -3.5t-4 -1.5q-2 -1 -4 -1.5t-4 -0.5q-11 0 -19.5 9t-8.5 19q0 5 2.5 10.5t7.5 9.5l96 78q5 3 9 4.5t8 1.5t8.5 -2t8.5 -5l96 -76
q5 -5 8 -10.5t2 -10.5q0 -10 -8.5 -19t-19.5 -9q-2 0 -4 0.5t-4 1.5q-2 0 -4 1.5t-4 2.5l-79 65l-79 -64v0z" />
    <glyph glyph-name="ogonek" unicode="&#xcf;" horiz-adv-x="388" 
d="M159 538q0 13 9 19.5t19 6.5t18 -6.5t8 -20.5v-537q0 -14 -8.5 -20.5t-19.5 -5.5q-10 0 -18 6.5t-8 19.5v538v0zM48 581q-13 -1 -20 8t-7 19t7 18t20 8l104 1q14 -1 20.5 -9.5t5.5 -19.5q0 -10 -6.5 -18t-19.5 -8l-104 1v0zM221 581q-13 -1 -20 8t-7 19t7 18t20 8l104 1
q14 -1 20.5 -9.5t5.5 -19.5q0 -10 -6.5 -18t-19.5 -8l-104 1v0z" />
    <glyph glyph-name="glyph232" unicode="&#xd0;" horiz-adv-x="500" 
 />
    <glyph glyph-name="Ntilde" unicode="&#xd1;" horiz-adv-x="485" 
d="M62 512q-13 -1 -19.5 6.5t-7.5 16.5v1.5v1.5q0 10 7 18t20 8l83 1q11 -1 16 -4t9 -14l188 -520h34v511q0 12 7.5 18.5t16.5 7.5h1.5h1.5q10 0 18 -6.5t8 -20.5v-537q0 -14 -6.5 -20.5t-20.5 -6.5h-80q-11 0 -16 3.5t-9 14.5l-188 521h-63v0zM198 592q-4 -4 -8 -5.5
t-9 -1.5q-10 0 -18.5 9t-8.5 19q0 5 2.5 10t7.5 9l61 51q5 3 10 5t9 2q5 0 9.5 -2t8.5 -7l33 -33l42 35q4 2 8.5 3.5t8.5 1.5q11 0 19 -8.5t8 -19.5q0 -5 -2.5 -10t-7.5 -9l-62 -49q-5 -5 -9.5 -7t-9.5 -2q-2 0 -4 0.5t-4 1.5q-3 1 -5 3l-4 4l-33 34l-42 -34v0z" />
    <glyph glyph-name="scaron" unicode="&#xd2;" 
 />
    <glyph glyph-name="Lslash" unicode="&#xd3;" horiz-adv-x="471" 
d="M30 538q0 13 6.5 19.5t20.5 6.5l357 1q14 -1 20.5 -7.5t6.5 -20.5v-537q0 -14 -6.5 -20.5t-20.5 -6.5h-357q-14 0 -20.5 6.5t-6.5 20.5v538v0zM84 512v-485h303v485h-303v0zM292 752q4 1 7.5 2t6.5 1q11 0 19 -8t9 -18v-1.5v-1.5q0 -6 -3 -11.5t-10 -10.5l-135 -83
q-4 -3 -7.5 -4.5t-7.5 -1.5q-11 1 -19 10t-8 19q0 6 3 12t10 10l135 86v0z" />
    <glyph glyph-name="lslash" unicode="&#xd4;" horiz-adv-x="471" 
d="M25 538q0 13 7 19.5t20 6.5l357 1q14 -1 20.5 -7.5t6.5 -20.5v-537q0 -14 -6.5 -20.5t-20.5 -6.5h-357q-13 0 -20 6.5t-7 20.5v538v0zM79 512v-485h303v485h-303v0zM149 619q-2 -2 -4 -3.5t-4 -1.5q-2 -1 -4 -1.5t-4 -0.5q-11 0 -19.5 9t-8.5 19q0 5 2.5 10.5t7.5 9.5
l97 78q5 2 9 4t8 2q3 0 7.5 -2t8.5 -5l97 -76q5 -5 7.5 -10.5t2.5 -10.5q-1 -10 -9.5 -19t-19.5 -9q-4 0 -7.5 1.5t-7.5 4.5l-80 65l-79 -64v0z" />
    <glyph glyph-name="guilsinglright" unicode="&#xd5;" horiz-adv-x="471" 
d="M30 538q0 13 6.5 19.5t20.5 6.5l357 1q14 -1 20.5 -7.5t6.5 -20.5v-537q0 -14 -6.5 -20.5t-20.5 -6.5h-357q-14 0 -20.5 6.5t-6.5 20.5v538v0zM84 512v-485h303v485h-303v0zM165 592q-4 -4 -8 -5.5t-9 -1.5q-10 0 -18.5 9t-7.5 19q0 5 2.5 10t7.5 9l61 51q5 3 10 5t9 2
q2 0 4 -0.5t5 -1.5q2 -1 4 -3l4 -4l33 -33l43 35q4 2 8.5 3.5t8.5 1.5q11 0 19 -8.5t7 -19.5q0 -5 -2.5 -10t-7.5 -9l-61 -49q-5 -5 -9.5 -7t-9.5 -2q-2 0 -4 0.5t-4 1.5q-3 1 -5 3l-4 4l-33 34l-43 -34v0z" />
    <glyph glyph-name="Odieresis" unicode="&#xd6;" horiz-adv-x="471" 
d="M30 538q0 13 6.5 19.5t20.5 6.5l357 1q14 -1 20.5 -7.5t6.5 -20.5v-537q0 -14 -6.5 -20.5t-20.5 -6.5h-357q-14 0 -20.5 6.5t-6.5 20.5v538v0zM84 512v-485h303v485h-303v0zM88 585q-13 -1 -19.5 6.5t-7.5 16.5v1.5v1.5q0 10 7 18t20 8l104 1q13 -1 19.5 -8.5t6.5 -16.5
v-1.5v-1.5q0 -10 -6.5 -18t-19.5 -8l-104 1v0zM261 585q-13 -1 -19.5 6.5t-7.5 16.5v1.5v1.5q0 10 7 18t20 8l104 1q13 -1 19.5 -8.5t6.5 -16.5v-1.5v-1.5q0 -10 -6.5 -18t-19.5 -8l-104 1v0z" />
    <glyph glyph-name="multiply" unicode="&#xd7;" 
 />
    <glyph glyph-name="plusminus" unicode="&#xd8;" horiz-adv-x="489" 
d="M401 592q4 5 9.5 8t11.5 3q11 -1 19.5 -9t8.5 -19q0 -3 -1.5 -6.5t-3.5 -7.5l-377 -615q-4 -6 -9.5 -8.5t-11.5 -2.5q-10 0 -19 8t-9 20q0 3 1.5 6.5t3.5 7.5l377 615v0zM142 -31q-13 0 -20 8.5t-6 19.5q0 9 6.5 17t19.5 8l243 1v400q0 12 7.5 18.5t16.5 6.5h1.5h1.5
q10 0 18 -6.5t8 -19.5v-426q0 -14 -6 -20.5t-20 -6.5h-270v0zM312 565q13 -1 19.5 -8.5t6.5 -16.5v-1.5v-1.5q0 -10 -6.5 -18t-19.5 -8l-231 1v-400q0 -14 -8.5 -21t-19.5 -7q-10 0 -18 7t-8 20v427q0 13 6.5 19.5t20.5 6.5l258 1v0z" />
    <glyph glyph-name="Thorn" unicode="&#xd9;" horiz-adv-x="471" 
d="M30 538q0 13 9 19.5t19 6.5t18 -6.5t8 -20.5v-396l77 -114h145q6 8 16 22l20 28q17 24 31 43.5l14 19.5v398q0 13 9 19.5t19 6.5t18 -6.5t8 -20.5v-405q0 -4 -0.5 -6t-0.5 -4q-1 -1 -2 -2.5t-2 -3.5l-94 -131q-2 -2 -3 -4t-3 -3q-3 -3 -6.5 -4t-9.5 -1h-174q-7 0 -11 1.5
t-8 5.5q0 1 -1 2t-2 3l-89 132q-1 1 -2 2.5t-2 2.5q0 2 -0.5 4t-0.5 5v407v0zM146 697q-8 4 -11.5 11t-3.5 14q0 13 10 23.5t24 10.5q4 0 7.5 -1.5t7.5 -3.5l159 -99q8 -6 11.5 -13t3.5 -15q0 -13 -9.5 -23.5t-23.5 -9.5q-2 0 -4 0.5t-4 0.5l-4 2l-4 2l-159 101v0z" />
    <glyph glyph-name="Eth" unicode="&#xda;" horiz-adv-x="475" 
d="M30 538q0 13 9 19.5t19 6.5t18 -6.5t8 -20.5v-396l77 -114h145q6 8 16 22l20 28q17 24 31 43.5l14 19.5v398q0 13 9 19.5t19 6.5t18 -6.5t8 -20.5v-405q0 -4 -0.5 -6t-0.5 -4q-1 -1 -2 -2.5t-2 -3.5l-94 -131q-2 -2 -3 -4t-3 -3q-3 -3 -6.5 -4t-9.5 -1h-174q-7 0 -11 1.5
t-8 5.5q0 1 -1 2t-2 3l-89 132q-1 1 -2 2.5t-2 2.5q0 2 -0.5 4t-0.5 5v407v0zM292 752q4 1 7.5 2t6.5 1q11 0 19 -8t9 -18v-1.5v-1.5q0 -6 -3 -11.5t-10 -10.5l-135 -83q-4 -3 -7.5 -4.5t-7.5 -1.5q-11 1 -19 10t-8 19q0 6 3 12t10 10l135 86v0z" />
    <glyph glyph-name="eth" unicode="&#xdb;" horiz-adv-x="475" 
d="M30 538q0 13 9 19.5t19 6.5t18 -6.5t8 -20.5v-396l77 -114h145q6 8 16 22l20 28q17 24 31 43.5l14 19.5v398q0 13 9 19.5t19 6.5t18 -6.5t8 -20.5v-405q0 -4 -0.5 -6t-0.5 -4q-1 -1 -2 -2.5t-2 -3.5l-94 -131q-2 -2 -3 -4t-3 -3q-3 -3 -6.5 -4t-9.5 -1h-174q-7 0 -11 1.5
t-8 5.5q0 1 -1 2t-2 3l-89 132q-1 1 -2 2.5t-2 2.5q0 2 -0.5 4t-0.5 5v407v0zM154 615q-4 -4 -8 -5.5t-9 -1.5q-10 0 -18.5 9t-8.5 19q0 5 2.5 10t7.5 9l96 78q5 3 9.5 4.5t8.5 1.5t8 -2t8 -5l96 -76q5 -5 8 -10.5t2 -10.5q0 -10 -8 -18.5t-19 -8.5q-2 0 -4 0.5t-4 1.5
q-3 0 -5 1.5t-4 2.5l-79 64l-79 -63v0z" />
    <glyph glyph-name="Udieresis" unicode="&#xdc;" horiz-adv-x="471" 
d="M30 538q0 13 9 19.5t19 6.5t18 -6.5t8 -20.5v-396l77 -114h145q6 8 16 22l20 28q17 24 31 43.5l14 19.5v398q0 13 9 19.5t19 6.5t18 -6.5t8 -20.5v-405q0 -4 -0.5 -6t-0.5 -4q-1 -1 -2 -2.5t-2 -3.5l-94 -131q-2 -2 -3 -4t-3 -3q-3 -3 -6.5 -4t-9.5 -1h-174q-7 0 -11 1.5
t-8 5.5q0 1 -1 2t-2 3l-89 132q-1 1 -2 2.5t-2 2.5q0 2 -0.5 4t-0.5 5v407v0zM92 585q-13 -1 -19.5 6.5t-7.5 16.5v1.5v1.5q0 10 7 18t20 8l103 1q13 -1 19.5 -8.5t7.5 -16.5v-1.5v-1.5q0 -10 -6.5 -18t-20.5 -8l-103 1v0zM265 585q-13 -1 -19.5 6.5t-7.5 16.5v1.5v1.5
q0 10 7 18t20 8l103 1q13 -1 19.5 -8.5t7.5 -16.5v-1.5v-1.5q0 -10 -6.5 -18t-20.5 -8l-103 1v0z" />
    <glyph glyph-name="Yacute" unicode="&#xdd;" 
 />
    <glyph glyph-name="glyph236" unicode="&#xde;" horiz-adv-x="500" 
 />
    <glyph glyph-name="germandbls" unicode="&#xdf;" horiz-adv-x="466" 
d="M81 -46q0 -14 -8.5 -20.5t-19.5 -6.5q-10 0 -18 6.5t-8 20.5v508q0 4 0.5 6.5t1.5 4.5t2.5 3.5l3.5 3.5l77 78q1 1 2.5 2t2.5 2q3 1 6 1.5t8 0.5l204 1q5 -1 7.5 -1t4.5 -2q2 0 3.5 -1.5l3.5 -3.5l77 -76q2 -3 3.5 -4.5t1.5 -3.5q2 -2 2 -4.5v-7.5v-115v-8.5t-2 -4.5
q0 -2 -1.5 -3.5l-3.5 -3.5l-61 -60l59 -54q2 -3 3.5 -4.5l2.5 -2.5q2 -3 2.5 -6t0.5 -8v-114v-8.5t-2 -4.5q0 -2 -1.5 -3.5l-3.5 -3.5l-77 -76l-3.5 -3.5t-3.5 -2.5t-4.5 -1.5t-7.5 -0.5h-181q-13 0 -20 8.5t-7 18.5t7 18t20 8l169 1l62 61v93l-72 64q-5 4 -8 9.5t-3 10.5
t2.5 10t7.5 9l73 74v92l-62 62h-181l-61 -62v-496v0z" />
    <glyph glyph-name="agrave" unicode="&#xe0;" horiz-adv-x="360" 
d="M151 244q-13 -1 -20 8t-7 19t7 18t20 8l227 1q14 -1 20.5 -7.5t6.5 -20.5v-270q0 -14 -6.5 -20.5t-20.5 -6.5h-270q-14 0 -20.5 6.5t-6.5 20.5v160q0 13 6.5 19.5t20.5 6.5l203 1q14 -1 20.5 -9.5t5.5 -19.5q0 -10 -6.5 -18t-19.5 -8l-176 1v-106h217v217h-201v0z
M155 452q-8 4 -11.5 11t-3.5 14q0 13 10 23.5t23 10.5q2 0 4 -0.5t4 -0.5l4 -2l4 -2l159 -99q8 -6 11.5 -12.5t3.5 -14.5q0 -13 -9.5 -23.5t-23.5 -10.5q-2 0 -4 0.5t-4 0.5l-4 2l-4 2l-159 101v0z" />
    <glyph glyph-name="aacute" unicode="&#xe1;" horiz-adv-x="383" 
d="M100 244q-13 -1 -20 8t-6 19q0 10 6.5 18t19.5 8l228 1q14 -1 20.5 -7.5t6.5 -20.5v-270q0 -14 -6.5 -20.5t-20.5 -6.5h-271q-14 0 -20.5 6.5t-6.5 20.5v160q0 13 6.5 19.5t20.5 6.5l203 1q14 -1 20.5 -9.5t5.5 -19.5q0 -10 -6.5 -18t-19.5 -8l-176 1v-106h217v217h-201
v0zM259 507q4 1 7.5 2t6.5 1q11 0 19 -8t9 -18v-1.5v-1.5q0 -6 -3 -11.5t-10 -9.5l-134 -84q-4 -3 -7.5 -4t-6.5 -1q-11 0 -19 8t-9 18v1.5v1.5q0 6 3 11.5t10 9.5l134 86v0z" />
    <glyph glyph-name="acircumflex" unicode="&#xe2;" horiz-adv-x="383" 
d="M95 244q-13 -1 -20 8t-6 19q0 10 6.5 18t19.5 8l228 1q14 -1 20.5 -7.5t6.5 -20.5v-270q0 -14 -6.5 -20.5t-20.5 -6.5h-271q-13 0 -20 6.5t-7 20.5v160q0 13 7 19.5t20 6.5l203 1q14 -1 20.5 -9.5t6.5 -19.5q0 -10 -6.5 -18t-20.5 -8l-176 1v-106h217v217h-201v0z
M122 338q-4 -4 -8 -5.5t-9 -1.5q-10 0 -18.5 9t-8.5 19q0 5 2.5 10t7.5 9l96 78q5 3 9 4.5t8 1.5t8.5 -2t8.5 -5l96 -76q5 -5 8 -10.5t2 -10.5q0 -10 -8 -18.5t-19 -8.5q-2 0 -4 0.5t-4 1.5q-3 0 -5 1.5t-4 2.5l-79 65l-79 -64v0z" />
    <glyph glyph-name="atilde" unicode="&#xe3;" horiz-adv-x="383" 
d="M95 244q-13 -1 -20 8t-6 19q0 10 6.5 18t19.5 8l228 1q14 -1 20.5 -7.5t6.5 -20.5v-270q0 -14 -6.5 -20.5t-20.5 -6.5h-271q-13 0 -20 6.5t-7 20.5v160q0 13 7 19.5t20 6.5l203 1q14 -1 20.5 -9.5t6.5 -19.5q0 -10 -6.5 -18t-20.5 -8l-176 1v-106h217v217h-201v0z
M124 342q-2 -2 -4 -3.5t-4 -1.5q-2 -1 -4 -1.5t-4 -0.5q-11 0 -19.5 9t-8.5 19q0 5 2.5 10.5t7.5 9.5l62 51q4 2 6.5 3.5t5.5 2.5q2 1 3.5 1h2.5q5 -1 9.5 -3t8.5 -7l33 -32l42 35l4 2l4 2q2 0 4 0.5t4 0.5q11 0 19.5 -8.5t8.5 -19.5q0 -5 -2.5 -10t-7.5 -10l-62 -49
q-4 -5 -8.5 -6.5t-8.5 -1.5t-9 2.5t-10 6.5l-33 34l-42 -35v0z" />
    <glyph glyph-name="adieresis" unicode="&#xe4;" horiz-adv-x="388" 
d="M105 244q-13 -1 -20 8t-7 19t7 18t20 8l227 1q14 -1 20.5 -7.5t6.5 -20.5v-270q0 -14 -6.5 -20.5t-20.5 -6.5h-270q-14 0 -20.5 6.5t-6.5 20.5v160q0 13 6.5 19.5t20.5 6.5l203 1q14 -1 20.5 -9.5t5.5 -19.5q0 -10 -6.5 -18t-19.5 -8l-177 1v-106h217v217h-200v0zM50 338
q-13 -1 -20 8t-6 19q0 10 6.5 18t19.5 8l104 1q14 -1 20.5 -9.5t5.5 -19.5q0 -10 -6.5 -18t-19.5 -8l-104 1v0zM223 338q-13 -1 -20 8t-6 19q0 10 6.5 18t19.5 8l104 1q14 -1 20.5 -9.5t5.5 -19.5q0 -10 -6.5 -18t-19.5 -8l-104 1v0z" />
    <glyph glyph-name="aring" unicode="&#xe5;" horiz-adv-x="383" 
d="M95 244q-13 -1 -20 8t-6 19q0 10 6.5 18t19.5 8l228 1q14 -1 20.5 -7.5t6.5 -20.5v-270q0 -14 -6.5 -20.5t-20.5 -6.5h-271q-13 0 -20 6.5t-7 20.5v160q0 13 7 19.5t20 6.5l203 1q14 -1 20.5 -9.5t6.5 -19.5q0 -10 -6.5 -18t-20.5 -8l-176 1v-106h217v217h-201v0z
M205 470q38 -1 64.5 -28t26.5 -65q0 -37 -26.5 -64t-64.5 -27t-65 27t-27 64q0 38 27 65t65 27v1zM205 416q-15 -1 -26.5 -12.5t-11.5 -26.5t11.5 -26t26.5 -11t26 11t11 26t-11 26.5t-26 11.5v1z" />
    <glyph glyph-name="Otilde" unicode="&#xe6;" horiz-adv-x="665" 
d="M100 244q-13 -1 -20 8t-6 19q0 10 6.5 18t19.5 8l228 1q14 -1 20.5 -7.5t6.5 -20.5v-270q0 -14 -6.5 -20.5t-20.5 -6.5h-271q-14 0 -20.5 6.5t-6.5 20.5v160q0 13 6.5 19.5t20.5 6.5l203 1q14 -1 20.5 -9.5t5.5 -19.5q0 -10 -6.5 -18t-19.5 -8l-176 1v-106h217v217h-201
v0zM407 98l206 151q5 3 7.5 8.5t2.5 11.5q1 11 -6.5 19.5t-19.5 8.5l-271 1q-13 -1 -20 -7.5t-7 -20.5v-270q0 -14 7 -20.5t20 -6.5h271q13 0 19.5 8t6.5 18q1 10 -5.5 18.5t-20.5 8.5l-244 1v217h162l-140 -102q-6 -5 -9 -10.5t-3 -10.5q0 -11 8.5 -20t19.5 -9h4t4 1l4 2
l4 2v1z" />
    <glyph glyph-name="ccedilla" unicode="&#xe7;" horiz-adv-x="383" 
d="M238 -105q4 -5 6 -9.5t2 -8.5q-1 -11 -10 -20t-20 -9q-4 0 -8.5 2t-8.5 6l-55 56q-3 3 -4.5 5.5t-3.5 4.5q-1 2 -1.5 4.5t-0.5 5.5q0 4 3 8.5t7 9.5l46 46q5 4 9.5 5.5t9.5 1.5q11 0 19 -8.5t8 -18.5v-3.5t-1 -2.5q-1 -3 -2.5 -6.5t-4.5 -5.5l-26 -27l36 -36v0zM328 298
q14 -1 20.5 -9.5t5.5 -19.5q0 -10 -6.5 -18t-19.5 -8l-244 1v-217h244q14 -1 20.5 -9.5t5.5 -18.5q0 -10 -6.5 -18t-19.5 -8h-271q-14 0 -20.5 6.5t-6.5 20.5v271q0 13 6.5 19.5t20.5 6.5l271 1v0z" />
    <glyph glyph-name="egrave" unicode="&#xe8;" horiz-adv-x="383" 
d="M133 98q-2 -2 -4 -3l-4 -2t-4 -1h-4q-11 0 -19 9t-8 20q0 5 2.5 10.5t8.5 9.5l140 103h-162v-217h244q14 -1 20.5 -9.5t5.5 -18.5q0 -10 -6.5 -18t-19.5 -8h-271q-13 0 -20 6.5t-7 20.5v271q0 13 7 19.5t20 6.5l271 1q12 -1 19.5 -9.5t6.5 -19.5q0 -6 -2.5 -11.5
t-7.5 -9.5l-206 -150v0zM95 452q-8 4 -11.5 11t-3.5 14q0 13 10 23.5t23 10.5q2 0 4 -0.5t4 -0.5l4 -2l4 -2l159 -99q8 -6 11.5 -12.5t3.5 -14.5q0 -13 -9.5 -23.5t-23.5 -10.5q-2 0 -4 0.5t-4 0.5l-4 2l-4 2l-159 101v0z" />
    <glyph glyph-name="eacute" unicode="&#xe9;" horiz-adv-x="383" 
d="M138 98q-2 -2 -4 -3l-4 -2t-4 -1h-4q-11 0 -19.5 9t-8.5 20q0 5 2.5 10.5t8.5 9.5l140 103h-161v-217h244q14 -1 20.5 -9.5t5.5 -18.5q0 -10 -6.5 -18t-19.5 -8h-271q-14 0 -20.5 6.5t-6.5 20.5v271q0 13 6.5 19.5t20.5 6.5l271 1q12 -1 19.5 -9.5t6.5 -19.5
q0 -6 -2.5 -11.5t-7.5 -9.5l-206 -150v0zM241 507q4 1 7.5 2t6.5 1q11 0 19 -8t9 -18v-1.5v-1.5q0 -6 -3 -11.5t-10 -9.5l-135 -84q-4 -3 -7.5 -4t-6.5 -1q-11 0 -19 8t-9 18v1.5v1.5q0 6 3 11.5t10 9.5l135 86v0z" />
    <glyph glyph-name="ecircumflex" unicode="&#xea;" horiz-adv-x="383" 
d="M138 98q-2 -2 -4 -3l-4 -2t-4 -1h-4q-11 0 -19.5 9t-8.5 20q0 5 2.5 10.5t8.5 9.5l140 103h-161v-217h244q14 -1 20.5 -9.5t5.5 -18.5q0 -10 -6.5 -18t-19.5 -8h-271q-14 0 -20.5 6.5t-6.5 20.5v271q0 13 6.5 19.5t20.5 6.5l271 1q12 -1 19.5 -9.5t6.5 -19.5
q0 -6 -2.5 -11.5t-7.5 -9.5l-206 -150v0zM117 338q-4 -4 -8 -5.5t-9 -1.5q-10 0 -18.5 9t-8.5 19q0 5 2.5 10t7.5 9l96 78q4 2 6.5 3.5t5.5 1.5q2 1 3.5 1h2.5q4 0 8 -2t8 -5l96 -76q5 -5 8 -10.5t2 -10.5q0 -10 -8 -18.5t-19 -8.5q-2 0 -4 0.5t-4 1.5q-3 0 -5 1.5t-4 2.5
l-79 65l-79 -64v0z" />
    <glyph glyph-name="edieresis" unicode="&#xeb;" horiz-adv-x="383" 
d="M133 98q-2 -2 -4 -3l-4 -2t-4 -1h-4q-11 0 -19 9t-8 20q0 5 2.5 10.5t8.5 9.5l140 103h-162v-217h244q14 -1 20.5 -9.5t5.5 -18.5q0 -10 -6.5 -18t-19.5 -8h-271q-13 0 -20 6.5t-7 20.5v271q0 13 7 19.5t20 6.5l271 1q12 -1 19.5 -9.5t6.5 -19.5q0 -6 -2.5 -11.5
t-7.5 -9.5l-206 -150v0zM48 338q-13 -1 -20 8t-6 19q0 10 6.5 18t19.5 8l104 1q14 -1 20.5 -9.5t6.5 -19.5q0 -10 -6.5 -18t-20.5 -8l-104 1v0zM222 338q-13 -1 -20 8t-7 19t7 18t20 8l103 1q14 -1 20.5 -9.5t6.5 -19.5q0 -10 -6.5 -18t-20.5 -8l-103 1v0z" />
    <glyph glyph-name="igrave" unicode="&#xec;" horiz-adv-x="282" 
d="M110 269q0 13 9 19.5t19 6.5t18 -6.5t8 -20.5v-268q0 -14 -8.5 -20.5t-19.5 -5.5q-10 0 -18 6.5t-8 19.5v269v0zM40 452q-8 4 -11.5 11t-3.5 14q0 13 9.5 23.5t23.5 10.5q4 0 8 -1.5t8 -3.5l159 -99q8 -6 11.5 -12.5t3.5 -13.5v-1.5v-1.5q-1 -12 -10.5 -22t-23.5 -10
q-4 0 -7.5 1.5t-8.5 3.5l-158 101v0z" />
    <glyph glyph-name="iacute" unicode="&#xed;" horiz-adv-x="226" 
d="M27 269q0 13 9 19.5t19 6.5t18 -6.5t8 -20.5v-268q0 -14 -8.5 -20.5t-19.5 -5.5q-10 0 -18 6.5t-8 19.5v269v0zM167 507q4 1 7.5 2t6.5 1q11 0 19 -8t9 -18v-1.5v-1.5q0 -6 -3 -11.5t-10 -9.5l-134 -84q-4 -3 -7.5 -4t-7.5 -1q-11 0 -19.5 9.5t-7.5 20.5v2.5t1 2.5
q1 4 3.5 8t7.5 7l135 86v0z" />
    <glyph glyph-name="icircumflex" unicode="&#xee;" horiz-adv-x="305" 
d="M119 269q0 13 9 19.5t19 6.5t18 -6.5t8 -20.5v-268q0 -14 -8.5 -20.5t-19.5 -5.5q-10 0 -18 6.5t-8 19.5v269v0zM71 342q-2 -2 -4 -3.5t-4 -1.5q-2 -1 -4 -1.5t-4 -0.5q-11 0 -19.5 9t-8.5 19q0 5 2.5 10.5t7.5 9.5l96 78q5 3 9.5 4.5t8.5 1.5t8 -2t8 -5l96 -76
q5 -5 8 -10.5t2 -10.5q0 -10 -8.5 -19t-19.5 -9q-2 0 -4 0.5t-4 1.5q-2 0 -4 1.5t-4 2.5l-79 65l-79 -64v0z" />
    <glyph glyph-name="idieresis" unicode="&#xef;" horiz-adv-x="378" 
d="M156 269q0 13 9 19.5t19 6.5t18 -6.5t8 -20.5v-268q0 -14 -8.5 -20.5t-19.5 -5.5q-10 0 -18 6.5t-8 19.5v269v0zM48 338q-13 -1 -20 8t-7 19t7 18t20 8l104 1q14 -1 20.5 -9.5t5.5 -19.5q0 -10 -6.5 -18t-19.5 -8l-104 1v0zM221 338q-13 -1 -20 8t-7 19t7 18t20 8l104 1
q14 -1 20.5 -9.5t5.5 -19.5q0 -10 -6.5 -18t-19.5 -8l-104 1v0z" />
    <glyph glyph-name="glyph233" unicode="&#xf0;" horiz-adv-x="500" 
 />
    <glyph glyph-name="ntilde" unicode="&#xf1;" horiz-adv-x="383" 
d="M80 0q0 -14 -8.5 -20.5t-19.5 -5.5q-10 0 -18 6.5t-8 19.5v269q0 13 7 19.5t20 6.5l273 1q14 -1 20.5 -7.5t6.5 -20.5v-268q0 -14 -8.5 -20.5t-19.5 -5.5q-10 0 -18 6.5t-8 19.5v242h-219v-242v0zM119 347q-4 -4 -8 -5.5t-9 -1.5q-10 0 -18.5 9t-8.5 19q0 5 2.5 10t7.5 9
l62 51q5 3 10 5t9 2q2 0 4 -0.5t5 -1.5q2 -1 4 -3l4 -4l33 -32l42 34q4 2 8.5 3.5t8.5 1.5q11 0 19 -8.5t8 -19.5q0 -5 -2.5 -10t-7.5 -9l-61 -49q-5 -5 -9.5 -7t-9.5 -2q-2 0 -4 0.5t-4 1.5q-3 1 -5 3l-4 4l-33 35l-43 -35v0z" />
    <glyph glyph-name="ograve" unicode="&#xf2;" horiz-adv-x="383" 
d="M25 269q0 13 7 19.5t20 6.5l270 1q14 -1 20 -7.5t6 -20.5v-268q0 -14 -6 -20.5t-20 -6.5h-270q-13 0 -20 6.5t-7 20.5v269v0zM79 242v-215h216v215h-216v0zM91 452q-8 4 -11.5 11t-3.5 14q0 13 9.5 23.5t23.5 10.5q4 0 8 -1.5t8 -3.5l159 -99q8 -6 11.5 -12.5t3.5 -13.5
v-1.5v-1.5q-1 -12 -10.5 -22t-23.5 -10q-4 0 -7.5 1.5t-8.5 3.5l-158 101v0z" />
    <glyph glyph-name="oacute" unicode="&#xf3;" horiz-adv-x="383" 
d="M30 269q0 13 6.5 19.5t20.5 6.5l269 1q14 -1 20.5 -7.5t6.5 -20.5v-268q0 -14 -6.5 -20.5t-20.5 -6.5h-269q-14 0 -20.5 6.5t-6.5 20.5v269v0zM84 242v-215h215v215h-215v0zM250 507q4 1 7.5 2t6.5 1q11 0 19 -8t9 -18v-1.5v-1.5q0 -6 -3 -11.5t-10 -9.5l-134 -84
q-4 -3 -7.5 -4t-7.5 -1q-11 0 -19.5 9.5t-7.5 20.5v2.5t1 2.5q1 4 3.5 8t7.5 7l135 86v0z" />
    <glyph glyph-name="ocircumflex" unicode="&#xf4;" horiz-adv-x="383" 
d="M30 269q0 13 6.5 19.5t20.5 6.5l269 1q14 -1 20.5 -7.5t6.5 -20.5v-268q0 -14 -6.5 -20.5t-20.5 -6.5h-269q-14 0 -20.5 6.5t-6.5 20.5v269v0zM84 242v-215h215v215h-215v0zM112 338q-4 -4 -8 -5.5t-9 -1.5q-10 0 -18.5 9t-8.5 19q1 5 3 10t7 9l97 78q5 2 9 4t8 2
q3 0 7.5 -2t8.5 -5l97 -76q5 -5 7.5 -10.5t2.5 -10.5q-1 -10 -9 -18.5t-19 -8.5q-2 0 -4 0.5t-4 1.5q-2 0 -4 1.5t-4 2.5l-79 65l-80 -64v0z" />
    <glyph glyph-name="otilde" unicode="&#xf5;" horiz-adv-x="383" 
d="M25 269q0 13 7 19.5t20 6.5l270 1q14 -1 20 -7.5t6 -20.5v-268q0 -14 -6 -20.5t-20 -6.5h-270q-13 0 -20 6.5t-7 20.5v269v0zM79 242v-215h216v215h-216v0zM110 342q-2 -2 -4 -3.5t-4 -1.5q-2 -1 -4 -1.5t-4 -0.5q-11 0 -19.5 9t-8.5 19q0 5 2.5 10.5t7.5 9.5l62 51
q5 3 9.5 5t8.5 2q5 -1 9.5 -3t8.5 -7l33 -32l42 35l4 2l4 2q2 0 4 0.5t4 0.5q11 0 19.5 -8.5t8.5 -19.5q0 -5 -2.5 -10t-7.5 -10l-61 -49q-5 -5 -9.5 -6.5t-8.5 -1.5t-9 2.5t-10 6.5l-33 34l-42 -35v0z" />
    <glyph glyph-name="odieresis" unicode="&#xf6;" horiz-adv-x="383" 
d="M30 269q0 13 6.5 19.5t20.5 6.5l269 1q14 -1 20.5 -7.5t6.5 -20.5v-268q0 -14 -6.5 -20.5t-20.5 -6.5h-269q-14 0 -20.5 6.5t-6.5 20.5v269v0zM84 242v-215h215v215h-215v0zM45 338q-13 -1 -20 8t-6 19q0 10 6.5 18t19.5 8l104 1q14 -1 20.5 -9.5t6.5 -19.5
q0 -10 -6.5 -18t-20.5 -8l-104 1v0zM218 338q-13 -1 -20 8t-6 19q0 10 6.5 18t19.5 8l104 1q14 -1 20.5 -9.5t6.5 -19.5q0 -10 -6.5 -18t-20.5 -8l-104 1v0z" />
    <glyph glyph-name="Aacute" unicode="&#xf7;" 
 />
    <glyph glyph-name="OE" unicode="&#xf8;" horiz-adv-x="415" 
d="M331 315q5 4 9.5 5.5t8.5 1.5q11 0 19.5 -8.5t8.5 -19.5q0 -4 -1.5 -8.5t-6.5 -9.5l-323 -322q-4 -5 -8.5 -6.5t-9.5 -1.5q-11 0 -19.5 8.5t-8.5 19.5v3t1 3q1 3 2.5 6t4.5 6l323 323v0zM162 -25q-13 0 -19.5 7.5t-6.5 16.5v1v1q0 10 6.5 18t19.5 8l135 1v147
q0 13 9 19.5t19 5.5q10 0 18 -6.5t8 -19.5v-172q0 -14 -6.5 -20.5t-20.5 -6.5h-162v0zM223 296q14 -1 20.5 -9.5t5.5 -19.5q0 -10 -6.5 -18t-19.5 -8l-142 1v-138q0 -14 -8.5 -21t-19.5 -7q-10 0 -18 7t-8 20v166q0 13 6.5 19.5t20.5 6.5l169 1v0z" />
    <glyph glyph-name="ugrave" unicode="&#xf9;" horiz-adv-x="383" 
d="M25 269q0 13 9 19.5t19 6.5t18 -6.5t8 -20.5v-241h216v242q0 12 7.5 18.5t16.5 7.5h1.5h1.5q10 0 18 -6.5t8 -20.5v-268q0 -14 -6 -20.5t-20 -6.5h-270q-13 0 -20 6.5t-7 20.5v269v0zM86 452q-8 4 -11.5 11t-3.5 14q0 13 10 23.5t23 10.5q2 0 4 -0.5t4 -0.5l4 -2l4 -2
l159 -99q8 -6 11.5 -12.5t3.5 -14.5q0 -13 -9.5 -23.5t-23.5 -10.5q-2 0 -4 0.5t-4 0.5l-4 2l-4 2l-159 101v0z" />
    <glyph glyph-name="uacute" unicode="&#xfa;" horiz-adv-x="383" 
d="M30 269q0 13 9 19.5t19 6.5t18 -6.5t8 -20.5v-241h215v242q0 13 9 19.5t19 6.5t18 -6.5t8 -20.5v-268q0 -14 -6.5 -20.5t-20.5 -6.5h-269q-14 0 -20.5 6.5t-6.5 20.5v269v0zM250 502q4 1 7.5 2.5t7.5 1.5q11 -1 19 -9.5t8 -19.5q0 -6 -3 -11.5t-10 -10.5l-134 -83
q-4 -3 -7.5 -4.5t-7.5 -1.5q-12 1 -20 10t-8 20q1 6 3.5 11.5t9.5 9.5l135 85v0z" />
    <glyph glyph-name="ucircumflex" unicode="&#xfb;" horiz-adv-x="383" 
d="M21 269q0 13 9 19.5t19 6.5t18 -6.5t8 -20.5v-241h215v242q0 13 9 19.5t19 6.5t18 -6.5t8 -20.5v-268q0 -14 -6.5 -20.5t-20.5 -6.5h-269q-14 0 -20.5 6.5t-6.5 20.5v269v0zM98 342q-4 -4 -7.5 -5.5t-8.5 -1.5q-10 0 -18.5 9t-8.5 19q0 5 2.5 10.5t7.5 9.5l96 78
q5 3 9 4.5t8 1.5t8.5 -2t8.5 -5l96 -76q5 -5 7.5 -10.5t2.5 -10.5q0 -10 -8.5 -19t-19.5 -9q-2 0 -4 0.5t-4 1.5q-2 0 -4 1.5t-4 2.5l-79 65l-80 -64v0z" />
    <glyph glyph-name="udieresis" unicode="&#xfc;" horiz-adv-x="383" 
d="M30 269q0 13 9 19.5t19 6.5t18 -6.5t8 -20.5v-241h215v242q0 13 9 19.5t19 6.5t18 -6.5t8 -20.5v-268q0 -14 -6.5 -20.5t-20.5 -6.5h-269q-14 0 -20.5 6.5t-6.5 20.5v269v0zM53 338q-13 -1 -20 8t-6 19q0 10 6.5 18t19.5 8l104 1q14 -1 20.5 -9.5t5.5 -19.5
q0 -10 -6.5 -18t-19.5 -8l-104 1v0zM226 338q-13 -1 -20 8t-6 19q0 10 6.5 18t19.5 8l104 1q14 -1 20.5 -9.5t5.5 -19.5q0 -10 -6.5 -18t-19.5 -8l-104 1v0z" />
    <glyph glyph-name="yacute" unicode="&#xfd;" 
 />
    <glyph glyph-name="glyph237" unicode="&#xfe;" horiz-adv-x="500" 
 />
    <glyph glyph-name="Egrave" unicode="&#xff;" horiz-adv-x="383" 
d="M79 27h216v242q0 12 7.5 18.5t16.5 7.5h1.5h1.5q10 0 18 -6.5t8 -20.5v-495q0 -13 -7.5 -19.5t-16.5 -6.5h-1.5h-1.5q-10 0 -18 6.5t-8 19.5v200h-243q-13 0 -20 6.5t-7 20.5v269q0 13 9 19.5t19 6.5t18 -6.5t8 -20.5v-241v0zM48 338q-13 -1 -20 8t-6 19q0 10 6.5 18
t19.5 8l104 1q14 -1 20.5 -9.5t6.5 -19.5q0 -10 -6.5 -18t-20.5 -8l-104 1v0zM222 338q-13 -1 -20 8t-7 19t7 18t20 8l103 1q14 -1 20.5 -9.5t6.5 -19.5q0 -10 -6.5 -18t-20.5 -8l-103 1v0z" />
    <glyph glyph-name="Abreve" unicode="&#x102;" 
 />
    <glyph glyph-name="abreve" unicode="&#x103;" 
 />
    <glyph glyph-name="Aogonek" unicode="&#x104;" 
 />
    <glyph glyph-name="aogonek" unicode="&#x105;" 
 />
    <glyph glyph-name="Cacute" unicode="&#x106;" 
 />
    <glyph glyph-name="cacute" unicode="&#x107;" 
 />
    <glyph glyph-name="Ccaron" unicode="&#x10c;" 
 />
    <glyph glyph-name="ccaron" unicode="&#x10d;" 
 />
    <glyph glyph-name="Dcaron" unicode="&#x10e;" 
 />
    <glyph glyph-name="dcaron" unicode="&#x10f;" 
 />
    <glyph glyph-name="Dcroat" unicode="&#x110;" 
 />
    <glyph glyph-name="dcroat" unicode="&#x111;" 
 />
    <glyph glyph-name="Eogonek" unicode="&#x118;" 
 />
    <glyph glyph-name="eogonek" unicode="&#x119;" 
 />
    <glyph glyph-name="Ecaron" unicode="&#x11a;" 
 />
    <glyph glyph-name="ecaron" unicode="&#x11b;" 
 />
    <glyph glyph-name="Gbreve" unicode="&#x11e;" 
 />
    <glyph glyph-name="gbreve" unicode="&#x11f;" 
 />
    <glyph glyph-name="Idotaccent" unicode="&#x130;" 
 />
    <glyph glyph-name="thorn" unicode="&#x131;" horiz-adv-x="115" 
d="M27 269q0 13 9 19.5t19 6.5t18 -6.5t8 -20.5v-268q0 -14 -8.5 -20.5t-19.5 -5.5q-10 0 -18 6.5t-8 19.5v269v0z" />
    <glyph glyph-name="Lacute" unicode="&#x139;" 
 />
    <glyph glyph-name="lacute" unicode="&#x13a;" 
 />
    <glyph glyph-name="Lcaron" unicode="&#x13d;" 
 />
    <glyph glyph-name="lcaron" unicode="&#x13e;" 
 />
    <glyph glyph-name="Ldot" unicode="&#x13f;" 
 />
    <glyph glyph-name="ldot" unicode="&#x140;" 
 />
    <glyph glyph-name="glyph225" unicode="&#x141;" horiz-adv-x="500" 
 />
    <glyph glyph-name="glyph226" unicode="&#x142;" horiz-adv-x="500" 
 />
    <glyph glyph-name="Nacute" unicode="&#x143;" 
 />
    <glyph glyph-name="nacute" unicode="&#x144;" 
 />
    <glyph glyph-name="Ncaron" unicode="&#x147;" 
 />
    <glyph glyph-name="ncaron" unicode="&#x148;" 
 />
    <glyph glyph-name="Ohungarumlaut" unicode="&#x150;" 
 />
    <glyph glyph-name="ohungarumlaut" unicode="&#x151;" 
 />
    <glyph glyph-name="fi" unicode="&#x152;" horiz-adv-x="895" 
d="M30 538q0 13 6.5 19.5t20.5 6.5l357 1q14 -1 20.5 -7.5t6.5 -20.5v-537q0 -14 -6.5 -20.5t-20.5 -6.5h-357q-14 0 -20.5 6.5t-6.5 20.5v538v0zM415 -27h423q13 0 19.5 8t6.5 18q1 10 -5.5 18.5t-20.5 8.5l-423 1q-13 -1 -20 -9t-7 -18t7 -18.5t20 -8.5v0zM84 512v-485
h303v485h-303v0zM492 242q-13 -1 -20 8t-7 19t7 18t20 8l269 1q14 -1 20.5 -9.5t5.5 -19.5q0 -10 -6.5 -18t-19.5 -8l-269 1v0zM415 512q-13 -1 -19.5 6.5t-7.5 16.5v1.5v1.5q0 10 7 18t20 8l423 1q13 -1 19.5 -8.5t6.5 -16.5v-1.5v-1.5q0 -10 -6.5 -18t-19.5 -8l-423 1v0z
" />
    <glyph glyph-name="fl" unicode="&#x153;" horiz-adv-x="655" 
d="M30 269q0 13 6.5 19.5t20.5 6.5l269 1q14 -1 20.5 -7.5t6.5 -20.5v-268q0 -14 -6.5 -20.5t-20.5 -6.5h-269q-14 0 -20.5 6.5t-6.5 20.5v269v0zM84 242v-215h215v215h-215v0zM407 98q-2 -2 -4 -3l-4 -2t-4 -1h-4q-11 0 -19.5 9t-8.5 20q0 5 3 10.5t9 9.5l140 103h-162
v-217h244q14 -1 20.5 -9.5t5.5 -18.5q0 -10 -6.5 -18t-19.5 -8h-271q-13 0 -20 6.5t-7 20.5v271q0 13 7 19.5t20 6.5l271 1q12 -1 19.5 -9.5t6.5 -19.5q0 -6 -2.5 -11.5t-7.5 -9.5l-206 -150v0z" />
    <glyph glyph-name="Racute" unicode="&#x154;" 
 />
    <glyph glyph-name="racute" unicode="&#x155;" 
 />
    <glyph glyph-name="Rcaron" unicode="&#x158;" 
 />
    <glyph glyph-name="rcaron" unicode="&#x159;" 
 />
    <glyph glyph-name="Sacute" unicode="&#x15a;" 
 />
    <glyph glyph-name="sacute" unicode="&#x15b;" 
 />
    <glyph glyph-name="Scedilla" unicode="&#x15e;" 
 />
    <glyph glyph-name="scedilla" unicode="&#x15f;" 
 />
    <glyph glyph-name="glyph227" unicode="&#x160;" horiz-adv-x="500" 
 />
    <glyph glyph-name="glyph228" unicode="&#x161;" horiz-adv-x="500" 
 />
    <glyph glyph-name="uni0162" unicode="&#x162;" 
 />
    <glyph glyph-name="uni0163" unicode="&#x163;" 
 />
    <glyph glyph-name="Tcaron" unicode="&#x164;" 
 />
    <glyph glyph-name="tcaron" unicode="&#x165;" 
 />
    <glyph glyph-name="Uring" unicode="&#x16e;" 
 />
    <glyph glyph-name="uring" unicode="&#x16f;" 
 />
    <glyph glyph-name="Uhungarumlaut" unicode="&#x170;" 
 />
    <glyph glyph-name="uhungarumlaut" unicode="&#x171;" 
 />
    <glyph glyph-name="Iacute" unicode="&#x178;" horiz-adv-x="471" 
d="M388 538q0 13 9 19.5t19 6.5t18 -6.5t8 -20.5v-268q0 -11 -3.5 -16t-12.5 -9l-161 -76v-168q0 -14 -8.5 -20.5t-19.5 -5.5q-10 0 -18 6.5t-8 19.5v185q0 9 3 14t12 9l162 78v252v0zM30 538q0 13 9 19.5t19 6.5t18 -6.5t8 -20.5v-206l146 -39q12 -2 17.5 -10t5.5 -17v-1.5
v-0.5q-1 -10 -8 -18.5t-19 -7.5h-0.5h-1.5h-1.5h-0.5l-169 44q-12 -1 -17.5 6t-5.5 20v231v0zM103 588q-13 -1 -20 8t-6 19q0 10 6.5 18t19.5 8l104 1q14 -1 20.5 -9.5t5.5 -19.5q0 -10 -6.5 -18t-19.5 -8l-104 1v0zM276 588q-13 -1 -20 8t-6 19q0 10 6.5 18t19.5 8l104 1
q14 -1 20.5 -9.5t5.5 -19.5q0 -10 -6.5 -18t-19.5 -8l-104 1v0z" />
    <glyph glyph-name="Zacute" unicode="&#x179;" 
 />
    <glyph glyph-name="zacute" unicode="&#x17a;" 
 />
    <glyph glyph-name="Zdotaccent" unicode="&#x17b;" 
 />
    <glyph glyph-name="zdotaccent" unicode="&#x17c;" 
 />
    <glyph glyph-name="Zcaron" unicode="&#x17d;" 
 />
    <glyph glyph-name="zcaron" unicode="&#x17e;" 
 />
    <glyph glyph-name="quotedblright" unicode="&#x192;" horiz-adv-x="378" 
d="M112 296h46v185v6.5t2 4.5q0 2 1.5 3.5l3.5 3.5l58 59q2 1 3.5 2.5t3.5 1.5q2 2 4.5 2h7.5l77 1q13 -1 19.5 -8.5t7.5 -16.5v-1.5v-1.5q0 -10 -6.5 -18t-20.5 -8l-65 1l-42 -43v-173h73q14 -1 20.5 -9.5t5.5 -19.5q0 -10 -6.5 -18t-19.5 -8l-73 1l-1 -322q0 -5 -0.5 -7.5
t-1.5 -4.5t-2.5 -3.5l-3.5 -3.5l-58 -58l-3.5 -3.5t-3.5 -2.5t-4.5 -1.5t-7.5 -0.5h-77q-13 0 -20 8.5t-6 19.5q0 10 6.5 18t19.5 8h66l42 43l1 310h-46q-13 -1 -20 8t-7 19t7 18t20 8v1z" />
    <glyph glyph-name="uni02BA" unicode="&#x2ba;" horiz-adv-x="500" 
 />
    <glyph glyph-name="arrowright" unicode="&#x2c6;" horiz-adv-x="337" 
d="M98 518q-4 -4 -8 -5.5t-9 -1.5q-10 0 -18.5 9t-8.5 19q0 5 2.5 10t7.5 9l61 51q5 3 10 5t9 2q5 0 9.5 -2t8.5 -7l33 -32l42 34q4 2 8.5 3.5t8.5 1.5q11 0 19 -8.5t8 -19.5q0 -5 -2.5 -10t-7.5 -9l-62 -49q-5 -5 -9.5 -7t-9.5 -2q-2 0 -4 0.5t-4 1.5q-3 1 -5 3l-4 4
l-33 34l-42 -34v0z" />
    <glyph glyph-name="glyph224" unicode="&#x2c7;" horiz-adv-x="355" 
d="M75 632q-5 4 -7.5 9t-2.5 10q1 11 9 19t19 8q2 0 4 -0.5t4 -0.5l4 -2t4 -3l79 -63l80 64q4 2 8.5 3.5t8.5 1.5q11 0 19 -8.5t8 -19.5q0 -5 -2.5 -10t-7.5 -9l-97 -76q-4 -5 -8.5 -6.5t-7.5 -1.5q-4 0 -8 1.5t-9 5.5l-97 78v0z" />
    <glyph glyph-name="house" unicode="&#x2c9;" horiz-adv-x="378" 
d="M54 472q-13 -1 -19.5 6.5t-7.5 16.5v1.5v1.5q0 10 7 18t20 8l272 1q13 -1 19.5 -8.5t7.5 -16.5v-1.5v-1.5q0 -10 -6.5 -18t-20.5 -8l-272 1v0z" />
    <glyph glyph-name="endash" unicode="&#x2d8;" horiz-adv-x="355" 
d="M75 632q-5 4 -7.5 9t-2.5 10q1 11 9 19t19 8q2 0 4 -0.5t4 -0.5l4 -2t4 -3l79 -63l80 64q4 2 8.5 3.5t8.5 1.5q11 0 19 -8.5t8 -19.5q0 -5 -2.5 -10t-7.5 -9l-97 -76q-4 -5 -8.5 -6.5t-7.5 -1.5q-4 0 -8 1.5t-9 5.5l-97 78v0z" />
    <glyph glyph-name="sfthyphen" unicode="&#x2d9;" horiz-adv-x="115" 
d="M27 585q0 13 9 19.5t19 5.5q10 0 18 -6.5t8 -19.5v-53q0 -14 -8.5 -21t-19.5 -7q-10 0 -18 7t-8 20v55v0z" />
    <glyph glyph-name="filledbox" unicode="&#x2da;" horiz-adv-x="434" 
d="M248 719q38 -1 64.5 -27.5t26.5 -64.5t-26.5 -65t-64.5 -27t-65 27t-27 65t27 64.5t65 26.5v1zM248 665q-15 -1 -26.5 -12t-11.5 -26t11.5 -26.5t26.5 -11.5t26 11.5t11 26.5t-11 26t-26 11v1z" />
    <glyph glyph-name="glyph223" unicode="&#x2db;" horiz-adv-x="249" 
d="M122 -144q-2 -3 -5.5 -4.5t-6.5 -2.5q-1 -1 -2.5 -1h-3.5q-10 1 -19 9.5t-9 19.5q0 4 2 8.5t6 9.5l36 36l-27 27q-4 4 -6 8.5t-2 9.5q1 11 9.5 19t19.5 8q5 0 9.5 -1.5t8.5 -5.5l46 -46q3 -3 4.5 -5.5t3.5 -4.5q1 -2 1.5 -4.5t0.5 -5.5q0 -5 -2.5 -9.5t-7.5 -8.5l-56 -56
v0z" />
    <glyph glyph-name="onehalf" unicode="&#x2dc;" horiz-adv-x="355" 
d="M109 564q-4 -4 -8 -5.5t-9 -1.5q-10 0 -18.5 9t-8.5 19q0 5 2.5 10t7.5 9l97 78q5 3 9 5t8 2q3 0 7.5 -2t8.5 -6l97 -76q5 -5 7.5 -10.5t2.5 -10.5q-1 -10 -9 -18.5t-19 -8.5q-2 0 -4 0.5t-4 1.5q-2 0 -4 1.5t-4 2.5l-80 65l-79 -64v0z" />
    <glyph glyph-name="Gamma" unicode="&#x393;" 
 />
    <glyph glyph-name="Theta" unicode="&#x398;" 
 />
    <glyph glyph-name="exclamdown" unicode="&#x3a3;" 
 />
    <glyph glyph-name="Phi" unicode="&#x3a6;" 
 />
    <glyph glyph-name="Atilde" unicode="&#x3a9;" 
 />
    <glyph glyph-name="alpha" unicode="&#x3b1;" 
 />
    <glyph glyph-name="delta" unicode="&#x3b4;" 
 />
    <glyph glyph-name="epsilon" unicode="&#x3b5;" 
 />
    <glyph glyph-name="guillemotleft" unicode="&#x3c0;" 
 />
    <glyph glyph-name="sigma" unicode="&#x3c3;" 
 />
    <glyph glyph-name="tau" unicode="&#x3c4;" 
 />
    <glyph glyph-name="phi" unicode="&#x3c6;" 
 />
    <glyph glyph-name="glyph259" unicode="&#x2013;" horiz-adv-x="286" 
d="M54 242q-13 -1 -20 8t-7 19t7 18t20 8l173 1q14 -1 20.5 -9.5t5.5 -19.5q0 -10 -6.5 -18t-19.5 -8l-173 1v0z" />
    <glyph glyph-name="periodcentered" unicode="&#x2014;" horiz-adv-x="697" 
d="M54 242q-13 -1 -20 8t-7 19t7 18t20 8l584 1q14 -1 20.5 -9.5t6.5 -19.5q0 -10 -6.5 -18t-20.5 -8l-584 1v0z" />
    <glyph glyph-name="underscoredbl" unicode="&#x2017;" 
 />
    <glyph glyph-name="Acircumflex" unicode="&#x2018;" horiz-adv-x="166" 
d="M98 408q-3 -12 -11 -19t-17 -8q-2 -1 -3.5 -1h-3.5q-8 0 -14 5t-6 15v3.5t1 3.5l35 131q3 10 10 16t15 9q3 0 5 0.5t4 0.5q9 0 15 -5t6 -15v-3t-1 -4l-35 -129v0z" />
    <glyph glyph-name="Ecircumflex" unicode="&#x2019;" horiz-adv-x="166" 
d="M133 408q0 -2 0.5 -3t0.5 -2v-2v-2q0 -10 -6.5 -14.5t-15.5 -4.5q-2 0 -4 0.5t-4 0.5q-8 2 -15.5 8.5t-9.5 17.5l-35 131l-0.5 1t-0.5 2v2v2q0 10 6.5 14.5t15.5 4.5h3.5t3.5 -1q8 -2 15.5 -8.5t10.5 -17.5l35 -129v0z" />
    <glyph glyph-name="Ugrave" unicode="&#x201a;" 
 />
    <glyph glyph-name="quotedblbase" unicode="&#x201c;" horiz-adv-x="314" 
d="M105 482q-3 -14 -12 -21.5t-19 -9.5q-3 -1 -5 -1h-4q-10 0 -17 5.5t-7 16.5v4.5t1 4.5l42 155q4 12 13 19.5t19 9.5q2 1 4.5 1h4.5q10 0 17 -5.5t7 -17.5v-3.5t-1 -4.5l-43 -153v0zM233 482q-4 -14 -13 -21.5t-19 -9.5q-2 -1 -4.5 -1h-4.5q-10 0 -17 5.5t-7 16.5v4.5
t1 4.5l42 155q4 12 13 19.5t19 9.5q2 1 4.5 1h4.5q10 0 17 -5.5t7 -17.5v-3.5t-1 -4.5l-42 -153v0z" />
    <glyph glyph-name="perthousand" unicode="&#x201d;" horiz-adv-x="314" 
d="M148 482q1 -3 1 -5.5v-4.5q0 -11 -7.5 -17t-18.5 -6q-2 0 -3.5 0.5t-2.5 0.5q-11 2 -20.5 9.5t-12.5 21.5l-42 155q-1 2 -1 4.5v4.5q0 11 8 16.5t18 4.5q2 0 4 -0.5t5 -0.5q9 -3 17.5 -10.5t11.5 -19.5l43 -153v0zM275 482q1 -3 1 -5.5v-4.5q0 -11 -7.5 -17t-18.5 -6
q-2 0 -3.5 0.5t-2.5 0.5q-11 2 -20.5 9.5t-12.5 21.5l-42 155q-1 2 -1 4.5v4.5q0 11 8 16.5t18 4.5q3 0 5.5 -0.5t4.5 -1.5q10 -2 18 -9.5t11 -19.5l42 -153v0z" />
    <glyph glyph-name="dotlessi" unicode="&#x201e;" horiz-adv-x="282" 
d="M98 -62q-3 -11 -11 -17.5t-17 -8.5h-3.5h-3.5q-8 0 -14 5t-6 14v2v1q0 1 0.5 2t0.5 2l35 131q3 10 10 16t15 9q3 0 5 0.5t4 0.5q9 0 15 -5t6 -15v-3t-1 -4l-35 -130v0zM205 -62q-3 -11 -10 -17t-15 -8q-3 -1 -5 -1h-4q-8 0 -14 4.5t-6 14.5v3t1 4l35 131q3 10 10 16t15 9
q3 0 5 0.5t4 0.5q9 0 15 -5t6 -15v-3t-1 -4l-36 -130v0z" />
    <glyph glyph-name="dagger" unicode="&#x2020;" horiz-adv-x="235" 
d="M141 538v-30h31q14 -1 20.5 -9.5t5.5 -19.5q0 -10 -6.5 -18t-19.5 -8l-31 1v-123q0 -14 -8.5 -21t-19.5 -7q-10 0 -18 7t-8 20v124h-31q-13 -1 -20 8t-6 19q0 10 6.5 18t19.5 8l31 1v30q0 13 9 19.5t19 6.5t18 -6.5t8 -20.5v1z" />
    <glyph glyph-name="Uacute" unicode="&#x2021;" horiz-adv-x="240" 
d="M61 508h31v30q0 12 7.5 18.5t16.5 7.5h1.5h1.5q10 0 18 -6.5t8 -20.5v-29h31q14 -1 20.5 -9.5t6.5 -19.5q0 -10 -6.5 -18t-20.5 -8l-31 1v-158h31q14 -1 20.5 -9.5t6.5 -19.5q0 -10 -6.5 -18t-20.5 -8l-31 1v-30q0 -14 -7.5 -20.5t-16.5 -7.5h-1.5h-1.5q-10 0 -18 7
t-8 20v31h-31q-13 -1 -20 8t-7 19t7 18t20 8l31 1v158h-31q-13 -1 -20 8t-7 19t7 18t20 8v1z" />
    <glyph glyph-name="glyph262" unicode="&#x2022;" horiz-adv-x="235" 
d="M33 338q0 7 4 11.5t12 4.5l139 1q8 -1 12 -5.5t4 -12.5v-137q0 -9 -4 -13t-12 -4l-139 1q-8 -1 -12 3t-4 12v139v0z" />
    <glyph glyph-name="fraction" unicode="&#x2026;" 
d="M27 54q0 13 9 19.5t19 5.5q10 0 18 -6.5t8 -19.5v-53q0 -14 -8.5 -20.5t-19.5 -5.5q-10 0 -18 6.5t-8 19.5v54v0zM173 54q0 13 9 19.5t19 5.5q10 0 18 -6.5t8 -19.5v-53q0 -14 -8.5 -20.5t-19.5 -5.5q-10 0 -18 6.5t-8 19.5v54v0zM335 54q0 12 7.5 18.5t16.5 6.5h1.5h1.5
q10 0 18 -6.5t8 -19.5v-53q0 -13 -7.5 -19.5t-16.5 -6.5h-1.5h-1.5q-10 0 -18 6.5t-8 19.5v54v0z" />
    <glyph glyph-name="circumflex" unicode="&#x2030;" horiz-adv-x="1209" 
d="M469 265q0 13 7 19.5t20 6.5l269 1q14 -1 20.5 -7.5t6.5 -20.5v-268q0 -14 -6.5 -20.5t-20.5 -6.5h-269q-13 0 -20 6.5t-7 20.5v269v0zM523 238v-215h215v215h-215v0zM854 265q0 13 6.5 19.5t20.5 6.5l269 1q14 -1 20.5 -7.5t6.5 -20.5v-268q0 -14 -6.5 -20.5t-20.5 -6.5
h-269q-14 0 -20.5 6.5t-6.5 20.5v269v0zM908 238v-215h215v215h-215v0zM225 -17q-4 -5 -9.5 -8t-10.5 -2q-10 0 -19 8.5t-9 18.5v4t1 4l2 4l2 4l423 539q5 4 10 7t10 2q11 0 20 -8.5t9 -19.5q0 -4 -1.5 -7.5t-4.5 -7.5l-423 -538v0zM27 538q0 13 6.5 19.5t20.5 6.5l269 1
q14 -1 20.5 -7.5t6.5 -20.5v-268q0 -14 -6.5 -21t-20.5 -7l-269 1q-14 -1 -20.5 6t-6.5 20v270v0zM81 512v-216h215v216h-215v0z" />
    <glyph glyph-name="Igrave" unicode="&#x2039;" horiz-adv-x="194" 
d="M157 113q2 -4 2.5 -7t0.5 -6q-1 -10 -9 -17.5t-18 -8.5h-1.5h-1.5q-7 0 -12.5 3.5t-9.5 11.5l-79 167q-1 2 -1.5 3.5t-1.5 3.5v2v2q0 2 1.5 5t2.5 7l78 153q5 7 11 10.5t13 3.5h1.5h1.5q9 -1 16.5 -8t7.5 -18v-3t-1 -3q0 -2 -0.5 -3.5t-1.5 -3.5l-72 -139l73 -155v0z" />
    <glyph glyph-name="Oacute" unicode="&#x203a;" horiz-adv-x="203" 
d="M83 90q-4 -9 -10 -12.5t-13 -3.5q-11 0 -20 7.5t-9 19.5q0 2 1 5l2 6l73 156l-72 140q-2 3 -3 6t-1 6q1 11 9.5 18.5t18.5 7.5q7 0 13 -3.5t10 -11.5l79 -151q1 -4 2 -6.5t2 -4.5v-1.5v-1.5q0 -2 -0.5 -5t-2.5 -6l-79 -165v0z" />
    <glyph glyph-name="exclamdbl" unicode="&#x203c;" 
 />
    <glyph glyph-name="uni207F" unicode="&#x207f;" 
 />
    <glyph glyph-name="franc" unicode="&#x20a3;" 
 />
    <glyph glyph-name="peseta" unicode="&#x20a7;" 
 />
    <glyph glyph-name="trademark" unicode="&#x2122;" horiz-adv-x="475" 
d="M112 385v127h-58q-13 -1 -19.5 6.5t-7.5 16.5v1.5v1.5q0 10 7 18t20 8l81 1h84q13 -1 19.5 -8.5t7.5 -16.5v-1.5v-1.5q0 -10 -6.5 -18t-20.5 -8l-54 1v-127q0 -14 -7.5 -20.5t-16.5 -7.5h-1.5h-1.5q-10 0 -18 7t-8 20v1zM425 385q0 -14 -8.5 -21t-19.5 -7q-10 0 -18 7
t-8 20v54l-27 -47q-4 -8 -10 -12t-12 -4q-7 0 -13.5 3.5t-10.5 11.5l-27 48v-53q0 -14 -8.5 -21t-19.5 -7q-10 0 -18 7t-8 20v154q0 10 8 17t18 8h1.5h1.5h2h2q5 -1 10 -4t7 -8l54 -94l54 95q4 5 9.5 8t12.5 3q11 0 19.5 -7t8.5 -19v-152v0z" />
    <glyph glyph-name="arrowleft" unicode="&#x2190;" 
 />
    <glyph glyph-name="arrowup" unicode="&#x2191;" 
 />
    <glyph glyph-name="glyph257" unicode="&#x2192;" horiz-adv-x="500" 
 />
    <glyph glyph-name="arrowdown" unicode="&#x2193;" 
 />
    <glyph glyph-name="arrowboth" unicode="&#x2194;" 
 />
    <glyph glyph-name="arrowupdn" unicode="&#x2195;" 
 />
    <glyph glyph-name="arrowupdnbse" unicode="&#x21a8;" 
 />
    <glyph glyph-name="questiondown" unicode="&#x2202;" 
 />
    <glyph glyph-name="quoteright" unicode="&#x2206;" 
 />
    <glyph glyph-name="florin" unicode="&#x220f;" 
 />
    <glyph glyph-name="minus" unicode="&#x2212;" 
 />
    <glyph glyph-name="Icircumflex" unicode="&#x2215;" horiz-adv-x="623" 
d="M79 -20q-5 -7 -11 -9.5t-13 -2.5q-13 0 -23.5 10t-10.5 22q0 2 0.5 4.5t1.5 5.5q0 2 1.5 4.5t3.5 4.5l500 637q4 4 8 6.5t8 3.5q2 0 4 0.5t4 0.5q14 0 24.5 -10t9.5 -23q0 -2 -0.5 -4.5t-1.5 -4.5q0 -3 -1.5 -5.5t-3.5 -4.5l-500 -635v0z" />
    <glyph glyph-name="Ucircumflex" unicode="&#x2219;" horiz-adv-x="115" 
d="M27 296q0 13 9 19.5t19 6.5t18 -6.5t8 -20.5v-53q0 -14 -8.5 -21t-19.5 -6q-10 0 -18 6.5t-8 19.5v55v0z" />
    <glyph glyph-name="quotedblleft" unicode="&#x221a;" 
 />
    <glyph glyph-name="yen" unicode="&#x221e;" 
 />
    <glyph glyph-name="orthogonal" unicode="&#x221f;" 
 />
    <glyph glyph-name="intersection" unicode="&#x2229;" 
 />
    <glyph glyph-name="guillemotright" unicode="&#x222b;" 
 />
    <glyph glyph-name="quoteleft" unicode="&#x2248;" 
 />
    <glyph glyph-name="AE" unicode="&#x2260;" 
 />
    <glyph glyph-name="equivalence" unicode="&#x2261;" 
 />
    <glyph glyph-name="ordfeminine" unicode="&#x2264;" 
 />
    <glyph glyph-name="ordmasculine" unicode="&#x2265;" 
 />
    <glyph glyph-name="glyph258" unicode="&#x2302;" 
 />
    <glyph glyph-name="revlogicalnot" unicode="&#x2310;" 
 />
    <glyph glyph-name="integraltp" unicode="&#x2320;" 
 />
    <glyph glyph-name="integralbt" unicode="&#x2321;" 
 />
    <glyph glyph-name="SF100000" unicode="&#x2500;" 
 />
    <glyph glyph-name="SF110000" unicode="&#x2502;" 
 />
    <glyph glyph-name="SF010000" unicode="&#x250c;" 
 />
    <glyph glyph-name="SF030000" unicode="&#x2510;" 
 />
    <glyph glyph-name="SF020000" unicode="&#x2514;" 
 />
    <glyph glyph-name="SF040000" unicode="&#x2518;" 
 />
    <glyph glyph-name="SF080000" unicode="&#x251c;" 
 />
    <glyph glyph-name="SF090000" unicode="&#x2524;" 
 />
    <glyph glyph-name="SF060000" unicode="&#x252c;" 
 />
    <glyph glyph-name="SF070000" unicode="&#x2534;" 
 />
    <glyph glyph-name="SF050000" unicode="&#x253c;" 
 />
    <glyph glyph-name="SF430000" unicode="&#x2550;" 
 />
    <glyph glyph-name="SF240000" unicode="&#x2551;" 
 />
    <glyph glyph-name="SF510000" unicode="&#x2552;" 
 />
    <glyph glyph-name="SF520000" unicode="&#x2553;" 
 />
    <glyph glyph-name="SF390000" unicode="&#x2554;" 
 />
    <glyph glyph-name="SF220000" unicode="&#x2555;" 
 />
    <glyph glyph-name="SF210000" unicode="&#x2556;" 
 />
    <glyph glyph-name="SF250000" unicode="&#x2557;" 
 />
    <glyph glyph-name="SF500000" unicode="&#x2558;" 
 />
    <glyph glyph-name="SF490000" unicode="&#x2559;" 
 />
    <glyph glyph-name="SF380000" unicode="&#x255a;" 
 />
    <glyph glyph-name="SF280000" unicode="&#x255b;" 
 />
    <glyph glyph-name="SF270000" unicode="&#x255c;" 
 />
    <glyph glyph-name="SF260000" unicode="&#x255d;" 
 />
    <glyph glyph-name="SF360000" unicode="&#x255e;" 
 />
    <glyph glyph-name="SF370000" unicode="&#x255f;" 
 />
    <glyph glyph-name="SF420000" unicode="&#x2560;" 
 />
    <glyph glyph-name="SF190000" unicode="&#x2561;" 
 />
    <glyph glyph-name="SF200000" unicode="&#x2562;" 
 />
    <glyph glyph-name="SF230000" unicode="&#x2563;" 
 />
    <glyph glyph-name="SF470000" unicode="&#x2564;" 
 />
    <glyph glyph-name="SF480000" unicode="&#x2565;" 
 />
    <glyph glyph-name="SF410000" unicode="&#x2566;" 
 />
    <glyph glyph-name="SF450000" unicode="&#x2567;" 
 />
    <glyph glyph-name="SF460000" unicode="&#x2568;" 
 />
    <glyph glyph-name="SF400000" unicode="&#x2569;" 
 />
    <glyph glyph-name="SF540000" unicode="&#x256a;" 
 />
    <glyph glyph-name="SF530000" unicode="&#x256b;" 
 />
    <glyph glyph-name="SF440000" unicode="&#x256c;" 
 />
    <glyph glyph-name="upblock" unicode="&#x2580;" 
 />
    <glyph glyph-name="dnblock" unicode="&#x2584;" 
 />
    <glyph glyph-name="block" unicode="&#x2588;" 
 />
    <glyph glyph-name="lfblock" unicode="&#x258c;" 
 />
    <glyph glyph-name="rtblock" unicode="&#x2590;" 
 />
    <glyph glyph-name="ltshade" unicode="&#x2591;" 
 />
    <glyph glyph-name="shade" unicode="&#x2592;" 
 />
    <glyph glyph-name="dkshade" unicode="&#x2593;" 
 />
    <glyph glyph-name="glyph261" unicode="&#x25a0;" horiz-adv-x="500" 
 />
    <glyph glyph-name="filledrect" unicode="&#x25ac;" 
 />
    <glyph glyph-name="triagup" unicode="&#x25b2;" 
 />
    <glyph glyph-name="triagrt" unicode="&#x25ba;" 
 />
    <glyph glyph-name="triagdn" unicode="&#x25bc;" 
 />
    <glyph glyph-name="triaglf" unicode="&#x25c4;" 
 />
    <glyph glyph-name="Edieresis" unicode="&#x25ca;" 
 />
    <glyph glyph-name="circle" unicode="&#x25cb;" 
 />
    <glyph glyph-name="invbullet" unicode="&#x25d8;" 
 />
    <glyph glyph-name="invcircle" unicode="&#x25d9;" 
 />
    <glyph glyph-name="smileface" unicode="&#x263a;" 
 />
    <glyph glyph-name="invsmileface" unicode="&#x263b;" 
 />
    <glyph glyph-name="sun" unicode="&#x263c;" 
 />
    <glyph glyph-name="female" unicode="&#x2640;" 
 />
    <glyph glyph-name="male" unicode="&#x2642;" 
 />
    <glyph glyph-name="spade" unicode="&#x2660;" 
 />
    <glyph glyph-name="club" unicode="&#x2663;" 
 />
    <glyph glyph-name="heart" unicode="&#x2665;" 
 />
    <glyph glyph-name="diamond" unicode="&#x2666;" 
 />
    <glyph glyph-name="musicalnote" unicode="&#x266a;" 
 />
    <glyph glyph-name="musicalnotedbl" unicode="&#x266b;" 
 />
    <glyph glyph-name="Scaron" unicode="&#xf000;" 
 />
    <glyph glyph-name="Ocircumflex" unicode="&#xf001;" horiz-adv-x="337" 
d="M300 242h-50v-242q0 -14 -8.5 -20.5t-19.5 -5.5q-10 0 -18 6.5t-8 19.5v242h-50q-13 -1 -20 8t-6 19q0 10 6.5 18t19.5 8l50 1v196q0 6 1 10t4 7q2 1 3.5 2.5t3.5 2.5l65 47q2 0 3.5 1t2.5 1q2 1 4 1h5l74 1q13 -1 19.5 -8.5t6.5 -16.5v-1.5v-1.5q0 -10 -6.5 -18
t-19.5 -8l-65 1l-47 -34v-182h50q14 -1 20.5 -9.5t5.5 -19.5q0 -10 -6.5 -18t-19.5 -8v1zM255 269v-269q0 -13 8 -19.5t18 -6.5h1.5h1.5q9 0 16.5 6.5t7.5 19.5v269q0 13 -8 19.5t-18 6.5h-1.5h-1.5q-9 -1 -16.5 -7.5t-7.5 -19.5v1zM308 350q0 -14 -7.5 -20.5t-16.5 -6.5
h-1.5h-1.5q-10 0 -18 6.5t-8 19.5v39q0 12 7.5 18.5t16.5 7.5h1.5h1.5q10 0 18 -6.5t8 -20.5v-37v0z" />
    <glyph glyph-name="Ograve" unicode="&#xf002;" horiz-adv-x="337" 
d="M291 242h-50v-242q0 -14 -8.5 -20.5t-19.5 -5.5q-10 0 -18 6.5t-8 19.5v242h-50q-13 -1 -20 8t-6 19q0 10 6.5 18t19.5 8l50 1v196q0 6 0.5 10t3.5 7q2 1 3.5 2.5t3.5 2.5l66 47q2 0 3.5 1t2.5 1q2 1 4 1h5l73 1q13 -1 19.5 -8.5t7.5 -16.5v-1.5v-1.5q0 -10 -6.5 -18
t-20.5 -8l-64 1l-47 -34v-182h50q14 -1 20.5 -9.5t5.5 -19.5q0 -10 -6.5 -18t-19.5 -8v1zM257 538v-538q0 -13 8 -19.5t18 -6.5q11 -1 19.5 5.5t8.5 20.5v538q0 13 -8 19.5t-18 6.5t-19 -6.5t-9 -20.5v1z" />
    <glyph glyph-name="degree" horiz-adv-x="231" 
d="M27 538q0 13 6.5 19.5t20.5 6.5l115 1q14 -1 20.5 -7.5t6.5 -20.5v-114q0 -14 -6.5 -21t-20.5 -7l-115 1q-14 -1 -20.5 6t-6.5 20v116v0zM81 512v-62h61v62h-61v0z" />
    <glyph glyph-name="glyph135" horiz-adv-x="235" 
d="M33 338q0 7 4 11.5t12 4.5l139 1q8 -1 12 -5.5t4 -12.5v-137q0 -9 -4 -13t-12 -4l-139 1q-8 -1 -12 3t-4 12v139v0z" />
    <glyph glyph-name="daggerdbl" horiz-adv-x="286" 
d="M54 242q-13 -1 -20 8t-7 19t7 18t20 8l173 1q14 -1 20.5 -9.5t5.5 -19.5q0 -10 -6.5 -18t-19.5 -8l-173 1v0z" />
    </font>
</defs>
</svg>
